solid contact_local
 facet normal 0.098016622 0.99518478 0
  outer loop
   vertex 0.00048772612 0.0024519634 0.018
   vertex -1.110223e-19 0.0025 0.018
   vertex -1.110223e-19 0.0025 0.019
  endloop
 endfacet
 facet normal 0.098016622 0.99518478 0
  outer loop
   vertex 0.00048772612 0.0024519634 0.018
   vertex -1.110223e-19 0.0025 0.019
   vertex 0.00048772612 0.0024519634 0.019
  endloop
 endfacet
 facet normal -0.098016622 0.99518478 0
  outer loop
   vertex -1.110223e-19 0.0025 0.018
   vertex -0.00048772612 0.0024519634 0.018
   vertex -0.00048772612 0.0024519634 0.019
  endloop
 endfacet
 facet normal -0.098016622 0.99518478 0
  outer loop
   vertex -1.110223e-19 0.0025 0.018
   vertex -0.00048772612 0.0024519634 0.019
   vertex -1.110223e-19 0.0025 0.019
  endloop
 endfacet
endsolid contact_local
