v 0.00065625 0.00065625 0
v 0.00065625 0.00046875 0
v 0.00065625 0.00028125 0
v 0.00065625 9.375e-05 0
v 0.00065625 -9.375e-05 0
v 0.00065625 -0.00028125 0
v 0.00065625 -0.00046875 0
v 0.00065625 -0.00065625 0
v 0.00046875 0.00065625 0
v 0.00046875 0.00046875 0
v 0.00046875 0.00028125 0
v 0.00046875 9.375e-05 0
v 0.00046875 -9.375e-05 0
v 0.00046875 -0.00028125 0
v 0.00046875 -0.00046875 0
v 0.00046875 -0.00065625 0
v 0.00028125 0.00065625 0
v 0.00028125 0.00046875 0
v 0.00028125 0.00028125 0
v 0.00028125 9.375e-05 0
v 0.00028125 -9.375e-05 0
v 0.00028125 -0.00028125 0
v 0.00028125 -0.00046875 0
v 0.00028125 -0.00065625 0
v 9.375e-05 0.00065625 0
v 9.375e-05 0.00046875 0
v 9.375e-05 0.00028125 0
v 9.375e-05 9.375e-05 0
v 9.375e-05 -9.375e-05 0
v 9.375e-05 -0.00028125 0
v 9.375e-05 -0.00046875 0
v 9.375e-05 -0.00065625 0
v -9.375e-05 0.00065625 0
v -9.375e-05 0.00046875 0
v -9.375e-05 0.00028125 0
v -9.375e-05 9.375e-05 0
v -9.375e-05 -9.375e-05 0
v -9.375e-05 -0.00028125 0
v -9.375e-05 -0.00046875 0
v -9.375e-05 -0.00065625 0
v -0.00028125 0.00065625 0
v -0.00028125 0.00046875 0
v -0.00028125 0.00028125 0
v -0.00028125 9.375e-05 0
v -0.00028125 -9.375e-05 0
v -0.00028125 -0.00028125 0
v -0.00028125 -0.00046875 0
v -0.00028125 -0.00065625 0
v -0.00046875 0.00065625 0
v -0.00046875 0.00046875 0
v -0.00046875 0.00028125 0
v -0.00046875 9.375e-05 0
v -0.00046875 -9.375e-05 0
v -0.00046875 -0.00028125 0
v -0.00046875 -0.00046875 0
v -0.00046875 -0.00065625 0
v -0.00065625 0.00065625 0
v -0.00065625 0.00046875 0
v -0.00065625 0.00028125 0
v -0.00065625 9.375e-05 0
v -0.00065625 -9.375e-05 0
v -0.00065625 -0.00028125 0
v -0.00065625 -0.00046875 0
v -0.00065625 -0.00065625 0
v 0.00078502209 -0.00067424358 0
v 0.00079828732 -0.00048495226 0
v 0.00080751401 -0.00029217562 0
v 0.00081223577 -9.758536e-05 0
v 0.00081223577 9.758536e-05 0
v 0.00080751401 0.00029217562 0
v 0.00079828732 0.00048495226 0
v 0.00078502209 0.00067424358 0
v 0.0008531443 -0.00072327917 0
v 0.00089300205 -0.00052423175 0
v 0.00092064181 -0.00031753236 0
v 0.00093476956 -0.00010634205 0
v 0.00093476956 0.00010634205 0
v 0.00092064181 0.00031753236 0
v 0.00089300205 0.00052423175 0
v 0.0008531443 0.00072327917 0
v 0.00092108795 -0.00077218623 0
v 0.0009876639 -0.00056348932 0
v 0.0010337624 -0.00034288748 0
v 0.0010573133 -0.00011509945 0
v 0.0010573133 0.00011509945 0
v 0.0010337624 0.00034288748 0
v 0.0009876639 0.00056348932 0
v 0.00092108795 0.00077218623 0
v 0.0009889068 -0.00082100346 0
v 0.0010822859 -0.00060273034 0
v 0.0011468775 -0.00036824136 0
v 0.0011798647 -0.0001238574 0
v 0.0011798647 0.0001238574 0
v 0.0011468775 0.00036824136 0
v 0.0010822859 0.00060273034 0
v 0.0009889068 0.00082100346 0
v 0.001056635 -0.00086975544 0
v 0.001176877 -0.00064195859 0
v 0.0012599881 -0.00039359424 0
v 0.0013024224 -0.0001326158 0
v 0.0013024224 0.0001326158 0
v 0.0012599881 0.00039359424 0
v 0.001176877 0.00064195859 0
v 0.001056635 0.00086975544 0
v 0.0011242953 -0.00091845854 0
v 0.0012714439 -0.00068117677 0
v 0.0013730952 -0.00041894633 0
v 0.0014249852 -0.00014137456 0
v 0.0014249852 0.00014137456 0
v 0.0013730952 0.00041894633 0
v 0.0012714439 0.00068117677 0
v 0.0011242953 0.00091845854 0
v 0.00067424358 0.00078502209 0
v 0.00048495226 0.00079828732 0
v 0.00029217562 0.00080751401 0
v 9.758536e-05 0.00081223577 0
v -9.758536e-05 0.00081223577 0
v -0.00029217562 0.00080751401 0
v -0.00048495226 0.00079828732 0
v -0.00067424358 0.00078502209 0
v 0.00072327917 0.0008531443 0
v 0.00052423175 0.00089300205 0
v 0.00031753236 0.00092064181 0
v 0.00010634205 0.00093476956 0
v -0.00010634205 0.00093476956 0
v -0.00031753236 0.00092064181 0
v -0.00052423175 0.00089300205 0
v -0.00072327917 0.0008531443 0
v 0.00077218623 0.00092108795 0
v 0.00056348932 0.0009876639 0
v 0.00034288748 0.0010337624 0
v 0.00011509945 0.0010573133 0
v -0.00011509945 0.0010573133 0
v -0.00034288748 0.0010337624 0
v -0.00056348932 0.0009876639 0
v -0.00077218623 0.00092108795 0
v 0.00082100346 0.0009889068 0
v 0.00060273034 0.0010822859 0
v 0.00036824136 0.0011468775 0
v 0.0001238574 0.0011798647 0
v -0.0001238574 0.0011798647 0
v -0.00036824136 0.0011468775 0
v -0.00060273034 0.0010822859 0
v -0.00082100346 0.0009889068 0
v 0.00086975544 0.001056635 0
v 0.00064195859 0.001176877 0
v 0.00039359424 0.0012599881 0
v 0.0001326158 0.0013024224 0
v -0.0001326158 0.0013024224 0
v -0.00039359424 0.0012599881 0
v -0.00064195859 0.001176877 0
v -0.00086975544 0.001056635 0
v 0.00091845854 0.0011242953 0
v 0.00068117677 0.0012714439 0
v 0.00041894633 0.0013730952 0
v 0.00014137456 0.0014249852 0
v -0.00014137456 0.0014249852 0
v -0.00041894633 0.0013730952 0
v -0.00068117677 0.0012714439 0
v -0.00091845854 0.0011242953 0
v -0.00078502209 0.00067424358 0
v -0.00079828732 0.00048495226 0
v -0.00080751401 0.00029217562 0
v -0.00081223577 9.758536e-05 0
v -0.00081223577 -9.758536e-05 0
v -0.00080751401 -0.00029217562 0
v -0.00079828732 -0.00048495226 0
v -0.00078502209 -0.00067424358 0
v -0.0008531443 0.00072327917 0
v -0.00089300205 0.00052423175 0
v -0.00092064181 0.00031753236 0
v -0.00093476956 0.00010634205 0
v -0.00093476956 -0.00010634205 0
v -0.00092064181 -0.00031753236 0
v -0.00089300205 -0.00052423175 0
v -0.0008531443 -0.00072327917 0
v -0.00092108795 0.00077218623 0
v -0.0009876639 0.00056348932 0
v -0.0010337624 0.00034288748 0
v -0.0010573133 0.00011509945 0
v -0.0010573133 -0.00011509945 0
v -0.0010337624 -0.00034288748 0
v -0.0009876639 -0.00056348932 0
v -0.00092108795 -0.00077218623 0
v -0.0009889068 0.00082100346 0
v -0.0010822859 0.00060273034 0
v -0.0011468775 0.00036824136 0
v -0.0011798647 0.0001238574 0
v -0.0011798647 -0.0001238574 0
v -0.0011468775 -0.00036824136 0
v -0.0010822859 -0.00060273034 0
v -0.0009889068 -0.00082100346 0
v -0.001056635 0.00086975544 0
v -0.001176877 0.00064195859 0
v -0.0012599881 0.00039359424 0
v -0.0013024224 0.0001326158 0
v -0.0013024224 -0.0001326158 0
v -0.0012599881 -0.00039359424 0
v -0.001176877 -0.00064195859 0
v -0.001056635 -0.00086975544 0
v -0.0011242953 0.00091845854 0
v -0.0012714439 0.00068117677 0
v -0.0013730952 0.00041894633 0
v -0.0014249852 0.00014137456 0
v -0.0014249852 -0.00014137456 0
v -0.0013730952 -0.00041894633 0
v -0.0012714439 -0.00068117677 0
v -0.0011242953 -0.00091845854 0
v -0.00067424358 -0.00078502209 0
v -0.00048495226 -0.00079828732 0
v -0.00029217562 -0.00080751401 0
v -9.758536e-05 -0.00081223577 0
v 9.758536e-05 -0.00081223577 0
v 0.00029217562 -0.00080751401 0
v 0.00048495226 -0.00079828732 0
v 0.00067424358 -0.00078502209 0
v -0.00072327917 -0.0008531443 0
v -0.00052423175 -0.00089300205 0
v -0.00031753236 -0.00092064181 0
v -0.00010634205 -0.00093476956 0
v 0.00010634205 -0.00093476956 0
v 0.00031753236 -0.00092064181 0
v 0.00052423175 -0.00089300205 0
v 0.00072327917 -0.0008531443 0
v -0.00077218623 -0.00092108795 0
v -0.00056348932 -0.0009876639 0
v -0.00034288748 -0.0010337624 0
v -0.00011509945 -0.0010573133 0
v 0.00011509945 -0.0010573133 0
v 0.00034288748 -0.0010337624 0
v 0.00056348932 -0.0009876639 0
v 0.00077218623 -0.00092108795 0
v -0.00082100346 -0.0009889068 0
v -0.00060273034 -0.0010822859 0
v -0.00036824136 -0.0011468775 0
v -0.0001238574 -0.0011798647 0
v 0.0001238574 -0.0011798647 0
v 0.00036824136 -0.0011468775 0
v 0.00060273034 -0.0010822859 0
v 0.00082100346 -0.0009889068 0
v -0.00086975544 -0.001056635 0
v -0.00064195859 -0.001176877 0
v -0.00039359424 -0.0012599881 0
v -0.0001326158 -0.0013024224 0
v 0.0001326158 -0.0013024224 0
v 0.00039359424 -0.0012599881 0
v 0.00064195859 -0.001176877 0
v 0.00086975544 -0.001056635 0
v -0.00091845854 -0.0011242953 0
v -0.00068117677 -0.0012714439 0
v -0.00041894633 -0.0013730952 0
v -0.00014137456 -0.0014249852 0
v 0.00014137456 -0.0014249852 0
v 0.00041894633 -0.0013730952 0
v 0.00068117677 -0.0012714439 0
v 0.00091845854 -0.0011242953 0
