v 0.0012026539 -0.0009869926 0
v 0.0013720979 -0.00073340166 0
v 0.001488813 -0.00045162651 0
v 0.0015483138 -0.00015249561 0
v 0.0015483138 0.00015249561 0
v 0.001488813 0.00045162651 0
v 0.0013720979 0.00073340166 0
v 0.0012026539 0.0009869926 0
v 0.0012987677 -0.0010658712 0
v 0.0014817532 -0.00079201372 0
v 0.0016077958 -0.00048771961 0
v 0.0016720518 -0.00016468276 0
v 0.0016720518 0.00016468276 0
v 0.0016077958 0.00048771961 0
v 0.0014817532 0.00079201372 0
v 0.0012987677 0.0010658712 0
v 0.0013948881 -0.0011447553 0
v 0.001591416 -0.00085062978 0
v 0.0017267868 -0.00052381518 0
v 0.0017957982 -0.00017687073 0
v 0.0017957982 0.00017687073 0
v 0.0017267868 0.00052381518 0
v 0.001591416 0.00085062978 0
v 0.0013948881 0.0011447553 0
v 0.0014910138 -0.0012236436 0
v 0.0017010849 -0.00090924905 0
v 0.0018457843 -0.00055991272 0
v 0.0019195514 -0.00018905938 0
v 0.0019195514 0.00018905938 0
v 0.0018457843 0.00055991272 0
v 0.0017010849 0.00090924905 0
v 0.0014910138 0.0012236436 0
v 0.0015871439 -0.0013025356 0
v 0.0018107586 -0.00096787096 0
v 0.0019647871 -0.00059601189 0
v 0.0020433101 -0.00020124857 0
v 0.0020433101 0.00020124857 0
v 0.0019647871 0.00059601189 0
v 0.0018107586 0.00096787096 0
v 0.0015871439 0.0013025356 0
v 0.0016832775 -0.0013814304 0
v 0.0019204365 -0.0010264951 0
v 0.0020837944 -0.0006321124 0
v 0.0021670735 -0.00021343822 0
v 0.0021670735 0.00021343822 0
v 0.0020837944 0.0006321124 0
v 0.0019204365 0.0010264951 0
v 0.0016832775 0.0013814304 0
v 0.0017794141 -0.0014603277 0
v 0.0020301177 -0.001085121 0
v 0.0022028053 -0.00066821404 0
v 0.0022908407 -0.00022562824 0
v 0.0022908407 0.00022562824 0
v 0.0022028053 0.00066821404 0
v 0.0020301177 0.001085121 0
v 0.0017794141 0.0014603277 0
v 0.0018755532 -0.0015392271 0
v 0.0021398019 -0.0011437485 0
v 0.0023218195 -0.00070431664 0
v 0.0024146112 -0.00023781859 0
v 0.0024146112 0.00023781859 0
v 0.0023218195 0.00070431664 0
v 0.0021398019 0.0011437485 0
v 0.0018755532 0.0015392271 0
v 0.0009869926 0.0012026539 0
v 0.00073340166 0.0013720979 0
v 0.00045162651 0.001488813 0
v 0.00015249561 0.0015483138 0
v -0.00015249561 0.0015483138 0
v -0.00045162651 0.001488813 0
v -0.00073340166 0.0013720979 0
v -0.0009869926 0.0012026539 0
v 0.0010658712 0.0012987677 0
v 0.00079201372 0.0014817532 0
v 0.00048771961 0.0016077958 0
v 0.00016468276 0.0016720518 0
v -0.00016468276 0.0016720518 0
v -0.00048771961 0.0016077958 0
v -0.00079201372 0.0014817532 0
v -0.0010658712 0.0012987677 0
v 0.0011447553 0.0013948881 0
v 0.00085062978 0.001591416 0
v 0.00052381518 0.0017267868 0
v 0.00017687073 0.0017957982 0
v -0.00017687073 0.0017957982 0
v -0.00052381518 0.0017267868 0
v -0.00085062978 0.001591416 0
v -0.0011447553 0.0013948881 0
v 0.0012236436 0.0014910138 0
v 0.00090924905 0.0017010849 0
v 0.00055991272 0.0018457843 0
v 0.00018905938 0.0019195514 0
v -0.00018905938 0.0019195514 0
v -0.00055991272 0.0018457843 0
v -0.00090924905 0.0017010849 0
v -0.0012236436 0.0014910138 0
v 0.0013025356 0.0015871439 0
v 0.00096787096 0.0018107586 0
v 0.00059601189 0.0019647871 0
v 0.00020124857 0.0020433101 0
v -0.00020124857 0.0020433101 0
v -0.00059601189 0.0019647871 0
v -0.00096787096 0.0018107586 0
v -0.0013025356 0.0015871439 0
v 0.0013814304 0.0016832775 0
v 0.0010264951 0.0019204365 0
v 0.0006321124 0.0020837944 0
v 0.00021343822 0.0021670735 0
v -0.00021343822 0.0021670735 0
v -0.0006321124 0.0020837944 0
v -0.0010264951 0.0019204365 0
v -0.0013814304 0.0016832775 0
v 0.0014603277 0.0017794141 0
v 0.001085121 0.0020301177 0
v 0.00066821404 0.0022028053 0
v 0.00022562824 0.0022908407 0
v -0.00022562824 0.0022908407 0
v -0.00066821404 0.0022028053 0
v -0.001085121 0.0020301177 0
v -0.0014603277 0.0017794141 0
v 0.0015392271 0.0018755532 0
v 0.0011437485 0.0021398019 0
v 0.00070431664 0.0023218195 0
v 0.00023781859 0.0024146112 0
v -0.00023781859 0.0024146112 0
v -0.00070431664 0.0023218195 0
v -0.0011437485 0.0021398019 0
v -0.0015392271 0.0018755532 0
v -0.0012026539 0.0009869926 0
v -0.0013720979 0.00073340166 0
v -0.001488813 0.00045162651 0
v -0.0015483138 0.00015249561 0
v -0.0015483138 -0.00015249561 0
v -0.001488813 -0.00045162651 0
v -0.0013720979 -0.00073340166 0
v -0.0012026539 -0.0009869926 0
v -0.0012987677 0.0010658712 0
v -0.0014817532 0.00079201372 0
v -0.0016077958 0.00048771961 0
v -0.0016720518 0.00016468276 0
v -0.0016720518 -0.00016468276 0
v -0.0016077958 -0.00048771961 0
v -0.0014817532 -0.00079201372 0
v -0.0012987677 -0.0010658712 0
v -0.0013948881 0.0011447553 0
v -0.001591416 0.00085062978 0
v -0.0017267868 0.00052381518 0
v -0.0017957982 0.00017687073 0
v -0.0017957982 -0.00017687073 0
v -0.0017267868 -0.00052381518 0
v -0.001591416 -0.00085062978 0
v -0.0013948881 -0.0011447553 0
v -0.0014910138 0.0012236436 0
v -0.0017010849 0.00090924905 0
v -0.0018457843 0.00055991272 0
v -0.0019195514 0.00018905938 0
v -0.0019195514 -0.00018905938 0
v -0.0018457843 -0.00055991272 0
v -0.0017010849 -0.00090924905 0
v -0.0014910138 -0.0012236436 0
v -0.0015871439 0.0013025356 0
v -0.0018107586 0.00096787096 0
v -0.0019647871 0.00059601189 0
v -0.0020433101 0.00020124857 0
v -0.0020433101 -0.00020124857 0
v -0.0019647871 -0.00059601189 0
v -0.0018107586 -0.00096787096 0
v -0.0015871439 -0.0013025356 0
v -0.0016832775 0.0013814304 0
v -0.0019204365 0.0010264951 0
v -0.0020837944 0.0006321124 0
v -0.0021670735 0.00021343822 0
v -0.0021670735 -0.00021343822 0
v -0.0020837944 -0.0006321124 0
v -0.0019204365 -0.0010264951 0
v -0.0016832775 -0.0013814304 0
v -0.0017794141 0.0014603277 0
v -0.0020301177 0.001085121 0
v -0.0022028053 0.00066821404 0
v -0.0022908407 0.00022562824 0
v -0.0022908407 -0.00022562824 0
v -0.0022028053 -0.00066821404 0
v -0.0020301177 -0.001085121 0
v -0.0017794141 -0.0014603277 0
v -0.0018755532 0.0015392271 0
v -0.0021398019 0.0011437485 0
v -0.0023218195 0.00070431664 0
v -0.0024146112 0.00023781859 0
v -0.0024146112 -0.00023781859 0
v -0.0023218195 -0.00070431664 0
v -0.0021398019 -0.0011437485 0
v -0.0018755532 -0.0015392271 0
v -0.0009869926 -0.0012026539 0
v -0.00073340166 -0.0013720979 0
v -0.00045162651 -0.001488813 0
v -0.00015249561 -0.0015483138 0
v 0.00015249561 -0.0015483138 0
v 0.00045162651 -0.001488813 0
v 0.00073340166 -0.0013720979 0
v 0.0009869926 -0.0012026539 0
v -0.0010658712 -0.0012987677 0
v -0.00079201372 -0.0014817532 0
v -0.00048771961 -0.0016077958 0
v -0.00016468276 -0.0016720518 0
v 0.00016468276 -0.0016720518 0
v 0.00048771961 -0.0016077958 0
v 0.00079201372 -0.0014817532 0
v 0.0010658712 -0.0012987677 0
v -0.0011447553 -0.0013948881 0
v -0.00085062978 -0.001591416 0
v -0.00052381518 -0.0017267868 0
v -0.00017687073 -0.0017957982 0
v 0.00017687073 -0.0017957982 0
v 0.00052381518 -0.0017267868 0
v 0.00085062978 -0.001591416 0
v 0.0011447553 -0.0013948881 0
v -0.0012236436 -0.0014910138 0
v -0.00090924905 -0.0017010849 0
v -0.00055991272 -0.0018457843 0
v -0.00018905938 -0.0019195514 0
v 0.00018905938 -0.0019195514 0
v 0.00055991272 -0.0018457843 0
v 0.00090924905 -0.0017010849 0
v 0.0012236436 -0.0014910138 0
v -0.0013025356 -0.0015871439 0
v -0.00096787096 -0.0018107586 0
v -0.00059601189 -0.0019647871 0
v -0.00020124857 -0.0020433101 0
v 0.00020124857 -0.0020433101 0
v 0.00059601189 -0.0019647871 0
v 0.00096787096 -0.0018107586 0
v 0.0013025356 -0.0015871439 0
v -0.0013814304 -0.0016832775 0
v -0.0010264951 -0.0019204365 0
v -0.0006321124 -0.0020837944 0
v -0.00021343822 -0.0021670735 0
v 0.00021343822 -0.0021670735 0
v 0.0006321124 -0.0020837944 0
v 0.0010264951 -0.0019204365 0
v 0.0013814304 -0.0016832775 0
v -0.0014603277 -0.0017794141 0
v -0.001085121 -0.0020301177 0
v -0.00066821404 -0.0022028053 0
v -0.00022562824 -0.0022908407 0
v 0.00022562824 -0.0022908407 0
v 0.00066821404 -0.0022028053 0
v 0.001085121 -0.0020301177 0
v 0.0014603277 -0.0017794141 0
v -0.0015392271 -0.0018755532 0
v -0.0011437485 -0.0021398019 0
v -0.00070431664 -0.0023218195 0
v -0.00023781859 -0.0024146112 0
v 0.00023781859 -0.0024146112 0
v 0.00070431664 -0.0023218195 0
v 0.0011437485 -0.0021398019 0
v 0.0015392271 -0.0018755532 0
