v 0.0015783486 0.0019232229 0.0005
v 0.0011728183 0.0021941878 0.0005
v 0.00072221776 0.0023808316 0.0005
v 0.00024386306 0.0024759817 0.0005
v -0.00024386306 0.0024759817 0.0005
v -0.00072221776 0.0023808316 0.0005
v -0.0011728183 0.0021941878 0.0005
v -0.0015783486 0.0019232229 0.0005
v 0.0015783486 0.0019232229 0.0015
v 0.0011728183 0.0021941878 0.0015
v 0.00072221776 0.0023808316 0.0015
v 0.00024386306 0.0024759817 0.0015
v -0.00024386306 0.0024759817 0.0015
v -0.00072221776 0.0023808316 0.0015
v -0.0011728183 0.0021941878 0.0015
v -0.0015783486 0.0019232229 0.0015
v 0.0015783486 0.0019232229 0.0025
v 0.0011728183 0.0021941878 0.0025
v 0.00072221776 0.0023808316 0.0025
v 0.00024386306 0.0024759817 0.0025
v -0.00024386306 0.0024759817 0.0025
v -0.00072221776 0.0023808316 0.0025
v -0.0011728183 0.0021941878 0.0025
v -0.0015783486 0.0019232229 0.0025
v 0.0015783486 0.0019232229 0.0035
v 0.0011728183 0.0021941878 0.0035
v 0.00072221776 0.0023808316 0.0035
v 0.00024386306 0.0024759817 0.0035
v -0.00024386306 0.0024759817 0.0035
v -0.00072221776 0.0023808316 0.0035
v -0.0011728183 0.0021941878 0.0035
v -0.0015783486 0.0019232229 0.0035
v 0.0015783486 0.0019232229 0.0045
v 0.0011728183 0.0021941878 0.0045
v 0.00072221776 0.0023808316 0.0045
v 0.00024386306 0.0024759817 0.0045
v -0.00024386306 0.0024759817 0.0045
v -0.00072221776 0.0023808316 0.0045
v -0.0011728183 0.0021941878 0.0045
v -0.0015783486 0.0019232229 0.0045
v 0.0015783486 0.0019232229 0.0055
v 0.0011728183 0.0021941878 0.0055
v 0.00072221776 0.0023808316 0.0055
v 0.00024386306 0.0024759817 0.0055
v -0.00024386306 0.0024759817 0.0055
v -0.00072221776 0.0023808316 0.0055
v -0.0011728183 0.0021941878 0.0055
v -0.0015783486 0.0019232229 0.0055
v 0.0015783486 0.0019232229 0.0065
v 0.0011728183 0.0021941878 0.0065
v 0.00072221776 0.0023808316 0.0065
v 0.00024386306 0.0024759817 0.0065
v -0.00024386306 0.0024759817 0.0065
v -0.00072221776 0.0023808316 0.0065
v -0.0011728183 0.0021941878 0.0065
v -0.0015783486 0.0019232229 0.0065
v 0.0015783486 0.0019232229 0.0075
v 0.0011728183 0.0021941878 0.0075
v 0.00072221776 0.0023808316 0.0075
v 0.00024386306 0.0024759817 0.0075
v -0.00024386306 0.0024759817 0.0075
v -0.00072221776 0.0023808316 0.0075
v -0.0011728183 0.0021941878 0.0075
v -0.0015783486 0.0019232229 0.0075
v 0.0015783486 0.0019232229 0.0085
v 0.0011728183 0.0021941878 0.0085
v 0.00072221776 0.0023808316 0.0085
v 0.00024386306 0.0024759817 0.0085
v -0.00024386306 0.0024759817 0.0085
v -0.00072221776 0.0023808316 0.0085
v -0.0011728183 0.0021941878 0.0085
v -0.0015783486 0.0019232229 0.0085
v 0.0015783486 0.0019232229 0.0095
v 0.0011728183 0.0021941878 0.0095
v 0.00072221776 0.0023808316 0.0095
v 0.00024386306 0.0024759817 0.0095
v -0.00024386306 0.0024759817 0.0095
v -0.00072221776 0.0023808316 0.0095
v -0.0011728183 0.0021941878 0.0095
v -0.0015783486 0.0019232229 0.0095
v 0.0015783486 0.0019232229 0.0105
v 0.0011728183 0.0021941878 0.0105
v 0.00072221776 0.0023808316 0.0105
v 0.00024386306 0.0024759817 0.0105
v -0.00024386306 0.0024759817 0.0105
v -0.00072221776 0.0023808316 0.0105
v -0.0011728183 0.0021941878 0.0105
v -0.0015783486 0.0019232229 0.0105
v 0.0015783486 0.0019232229 0.0115
v 0.0011728183 0.0021941878 0.0115
v 0.00072221776 0.0023808316 0.0115
v 0.00024386306 0.0024759817 0.0115
v -0.00024386306 0.0024759817 0.0115
v -0.00072221776 0.0023808316 0.0115
v -0.0011728183 0.0021941878 0.0115
v -0.0015783486 0.0019232229 0.0115
v 0.0015783486 0.0019232229 0.0125
v 0.0011728183 0.0021941878 0.0125
v 0.00072221776 0.0023808316 0.0125
v 0.00024386306 0.0024759817 0.0125
v -0.00024386306 0.0024759817 0.0125
v -0.00072221776 0.0023808316 0.0125
v -0.0011728183 0.0021941878 0.0125
v -0.0015783486 0.0019232229 0.0125
v 0.0015783486 0.0019232229 0.0135
v 0.0011728183 0.0021941878 0.0135
v 0.00072221776 0.0023808316 0.0135
v 0.00024386306 0.0024759817 0.0135
v -0.00024386306 0.0024759817 0.0135
v -0.00072221776 0.0023808316 0.0135
v -0.0011728183 0.0021941878 0.0135
v -0.0015783486 0.0019232229 0.0135
v 0.0015783486 0.0019232229 0.0145
v 0.0011728183 0.0021941878 0.0145
v 0.00072221776 0.0023808316 0.0145
v 0.00024386306 0.0024759817 0.0145
v -0.00024386306 0.0024759817 0.0145
v -0.00072221776 0.0023808316 0.0145
v -0.0011728183 0.0021941878 0.0145
v -0.0015783486 0.0019232229 0.0145
v 0.0015783486 0.0019232229 0.0155
v 0.0011728183 0.0021941878 0.0155
v 0.00072221776 0.0023808316 0.0155
v 0.00024386306 0.0024759817 0.0155
v -0.00024386306 0.0024759817 0.0155
v -0.00072221776 0.0023808316 0.0155
v -0.0011728183 0.0021941878 0.0155
v -0.0015783486 0.0019232229 0.0155
v 0.0015783486 0.0019232229 0.0165
v 0.0011728183 0.0021941878 0.0165
v 0.00072221776 0.0023808316 0.0165
v 0.00024386306 0.0024759817 0.0165
v -0.00024386306 0.0024759817 0.0165
v -0.00072221776 0.0023808316 0.0165
v -0.0011728183 0.0021941878 0.0165
v -0.0015783486 0.0019232229 0.0165
v 0.0015783486 0.0019232229 0.0175
v 0.0011728183 0.0021941878 0.0175
v 0.00072221776 0.0023808316 0.0175
v 0.00024386306 0.0024759817 0.0175
v -0.00024386306 0.0024759817 0.0175
v -0.00072221776 0.0023808316 0.0175
v -0.0011728183 0.0021941878 0.0175
v -0.0015783486 0.0019232229 0.0175
v 0.0015783486 0.0019232229 0.0185
v 0.0011728183 0.0021941878 0.0185
v 0.00072221776 0.0023808316 0.0185
v -0.00072221776 0.0023808316 0.0185
v -0.0011728183 0.0021941878 0.0185
v -0.0015783486 0.0019232229 0.0185
v 0.0015783486 0.0019232229 0.0195
v 0.0011728183 0.0021941878 0.0195
v 0.00072221776 0.0023808316 0.0195
v 0.00024386306 0.0024759817 0.0195
v -0.00024386306 0.0024759817 0.0195
v -0.00072221776 0.0023808316 0.0195
v -0.0011728183 0.0021941878 0.0195
v -0.0015783486 0.0019232229 0.0195
v 0.0015783486 0.0019232229 0.0205
v 0.0011728183 0.0021941878 0.0205
v 0.00072221776 0.0023808316 0.0205
v 0.00024386306 0.0024759817 0.0205
v -0.00024386306 0.0024759817 0.0205
v -0.00072221776 0.0023808316 0.0205
v -0.0011728183 0.0021941878 0.0205
v -0.0015783486 0.0019232229 0.0205
v 0.0015783486 0.0019232229 0.0215
v 0.0011728183 0.0021941878 0.0215
v 0.00072221776 0.0023808316 0.0215
v 0.00024386306 0.0024759817 0.0215
v -0.00024386306 0.0024759817 0.0215
v -0.00072221776 0.0023808316 0.0215
v -0.0011728183 0.0021941878 0.0215
v -0.0015783486 0.0019232229 0.0215
v 0.0015783486 0.0019232229 0.0225
v 0.0011728183 0.0021941878 0.0225
v 0.00072221776 0.0023808316 0.0225
v 0.00024386306 0.0024759817 0.0225
v -0.00024386306 0.0024759817 0.0225
v -0.00072221776 0.0023808316 0.0225
v -0.0011728183 0.0021941878 0.0225
v -0.0015783486 0.0019232229 0.0225
v 0.0015783486 0.0019232229 0.0235
v 0.0011728183 0.0021941878 0.0235
v 0.00072221776 0.0023808316 0.0235
v 0.00024386306 0.0024759817 0.0235
v -0.00024386306 0.0024759817 0.0235
v -0.00072221776 0.0023808316 0.0235
v -0.0011728183 0.0021941878 0.0235
v -0.0015783486 0.0019232229 0.0235
v 0.0015783486 0.0019232229 0.0245
v 0.0011728183 0.0021941878 0.0245
v 0.00072221776 0.0023808316 0.0245
v 0.00024386306 0.0024759817 0.0245
v -0.00024386306 0.0024759817 0.0245
v -0.00072221776 0.0023808316 0.0245
v -0.0011728183 0.0021941878 0.0245
v -0.0015783486 0.0019232229 0.0245
v 0.0015783486 0.0019232229 0.0255
v 0.0011728183 0.0021941878 0.0255
v 0.00072221776 0.0023808316 0.0255
v 0.00024386306 0.0024759817 0.0255
v -0.00024386306 0.0024759817 0.0255
v -0.00072221776 0.0023808316 0.0255
v -0.0011728183 0.0021941878 0.0255
v -0.0015783486 0.0019232229 0.0255
v 0.0015783486 0.0019232229 0.0265
v 0.0011728183 0.0021941878 0.0265
v 0.00072221776 0.0023808316 0.0265
v 0.00024386306 0.0024759817 0.0265
v -0.00024386306 0.0024759817 0.0265
v -0.00072221776 0.0023808316 0.0265
v -0.0011728183 0.0021941878 0.0265
v -0.0015783486 0.0019232229 0.0265
v 0.0015783486 0.0019232229 0.0275
v 0.0011728183 0.0021941878 0.0275
v 0.00072221776 0.0023808316 0.0275
v 0.00024386306 0.0024759817 0.0275
v -0.00024386306 0.0024759817 0.0275
v -0.00072221776 0.0023808316 0.0275
v -0.0011728183 0.0021941878 0.0275
v -0.0015783486 0.0019232229 0.0275
v 0.0015783486 0.0019232229 0.0285
v 0.0011728183 0.0021941878 0.0285
v 0.00072221776 0.0023808316 0.0285
v 0.00024386306 0.0024759817 0.0285
v -0.00024386306 0.0024759817 0.0285
v -0.00072221776 0.0023808316 0.0285
v -0.0011728183 0.0021941878 0.0285
v -0.0015783486 0.0019232229 0.0285
v 0.0015783486 0.0019232229 0.0295
v 0.0011728183 0.0021941878 0.0295
v 0.00072221776 0.0023808316 0.0295
v 0.00024386306 0.0024759817 0.0295
v -0.00024386306 0.0024759817 0.0295
v -0.00072221776 0.0023808316 0.0295
v -0.0011728183 0.0021941878 0.0295
v -0.0015783486 0.0019232229 0.0295
v -0.0019232229 0.0015783486 0.0005
v -0.0021941878 0.0011728183 0.0005
v -0.0023808316 0.00072221776 0.0005
v -0.0024759817 0.00024386306 0.0005
v -0.0024759817 -0.00024386306 0.0005
v -0.0023808316 -0.00072221776 0.0005
v -0.0021941878 -0.0011728183 0.0005
v -0.0019232229 -0.0015783486 0.0005
v -0.0019232229 0.0015783486 0.0015
v -0.0021941878 0.0011728183 0.0015
v -0.0023808316 0.00072221776 0.0015
v -0.0024759817 0.00024386306 0.0015
v -0.0024759817 -0.00024386306 0.0015
v -0.0023808316 -0.00072221776 0.0015
v -0.0021941878 -0.0011728183 0.0015
v -0.0019232229 -0.0015783486 0.0015
v -0.0019232229 0.0015783486 0.0025
v -0.0021941878 0.0011728183 0.0025
v -0.0023808316 0.00072221776 0.0025
v -0.0024759817 0.00024386306 0.0025
v -0.0024759817 -0.00024386306 0.0025
v -0.0023808316 -0.00072221776 0.0025
v -0.0021941878 -0.0011728183 0.0025
v -0.0019232229 -0.0015783486 0.0025
v -0.0019232229 0.0015783486 0.0035
v -0.0021941878 0.0011728183 0.0035
v -0.0023808316 0.00072221776 0.0035
v -0.0024759817 0.00024386306 0.0035
v -0.0024759817 -0.00024386306 0.0035
v -0.0023808316 -0.00072221776 0.0035
v -0.0021941878 -0.0011728183 0.0035
v -0.0019232229 -0.0015783486 0.0035
v -0.0019232229 0.0015783486 0.0045
v -0.0021941878 0.0011728183 0.0045
v -0.0023808316 0.00072221776 0.0045
v -0.0024759817 0.00024386306 0.0045
v -0.0024759817 -0.00024386306 0.0045
v -0.0023808316 -0.00072221776 0.0045
v -0.0021941878 -0.0011728183 0.0045
v -0.0019232229 -0.0015783486 0.0045
v -0.0019232229 0.0015783486 0.0055
v -0.0021941878 0.0011728183 0.0055
v -0.0023808316 0.00072221776 0.0055
v -0.0024759817 0.00024386306 0.0055
v -0.0024759817 -0.00024386306 0.0055
v -0.0023808316 -0.00072221776 0.0055
v -0.0021941878 -0.0011728183 0.0055
v -0.0019232229 -0.0015783486 0.0055
v -0.0019232229 0.0015783486 0.0065
v -0.0021941878 0.0011728183 0.0065
v -0.0023808316 0.00072221776 0.0065
v -0.0024759817 0.00024386306 0.0065
v -0.0024759817 -0.00024386306 0.0065
v -0.0023808316 -0.00072221776 0.0065
v -0.0021941878 -0.0011728183 0.0065
v -0.0019232229 -0.0015783486 0.0065
v -0.0019232229 0.0015783486 0.0075
v -0.0021941878 0.0011728183 0.0075
v -0.0023808316 0.00072221776 0.0075
v -0.0024759817 0.00024386306 0.0075
v -0.0024759817 -0.00024386306 0.0075
v -0.0023808316 -0.00072221776 0.0075
v -0.0021941878 -0.0011728183 0.0075
v -0.0019232229 -0.0015783486 0.0075
v -0.0019232229 0.0015783486 0.0085
v -0.0021941878 0.0011728183 0.0085
v -0.0023808316 0.00072221776 0.0085
v -0.0024759817 0.00024386306 0.0085
v -0.0024759817 -0.00024386306 0.0085
v -0.0023808316 -0.00072221776 0.0085
v -0.0021941878 -0.0011728183 0.0085
v -0.0019232229 -0.0015783486 0.0085
v -0.0019232229 0.0015783486 0.0095
v -0.0021941878 0.0011728183 0.0095
v -0.0023808316 0.00072221776 0.0095
v -0.0024759817 0.00024386306 0.0095
v -0.0024759817 -0.00024386306 0.0095
v -0.0023808316 -0.00072221776 0.0095
v -0.0021941878 -0.0011728183 0.0095
v -0.0019232229 -0.0015783486 0.0095
v -0.0019232229 0.0015783486 0.0105
v -0.0021941878 0.0011728183 0.0105
v -0.0023808316 0.00072221776 0.0105
v -0.0024759817 0.00024386306 0.0105
v -0.0024759817 -0.00024386306 0.0105
v -0.0023808316 -0.00072221776 0.0105
v -0.0021941878 -0.0011728183 0.0105
v -0.0019232229 -0.0015783486 0.0105
v -0.0019232229 0.0015783486 0.0115
v -0.0021941878 0.0011728183 0.0115
v -0.0023808316 0.00072221776 0.0115
v -0.0024759817 0.00024386306 0.0115
v -0.0024759817 -0.00024386306 0.0115
v -0.0023808316 -0.00072221776 0.0115
v -0.0021941878 -0.0011728183 0.0115
v -0.0019232229 -0.0015783486 0.0115
v -0.0019232229 0.0015783486 0.0125
v -0.0021941878 0.0011728183 0.0125
v -0.0023808316 0.00072221776 0.0125
v -0.0024759817 0.00024386306 0.0125
v -0.0024759817 -0.00024386306 0.0125
v -0.0023808316 -0.00072221776 0.0125
v -0.0021941878 -0.0011728183 0.0125
v -0.0019232229 -0.0015783486 0.0125
v -0.0019232229 0.0015783486 0.0135
v -0.0021941878 0.0011728183 0.0135
v -0.0023808316 0.00072221776 0.0135
v -0.0024759817 0.00024386306 0.0135
v -0.0024759817 -0.00024386306 0.0135
v -0.0023808316 -0.00072221776 0.0135
v -0.0021941878 -0.0011728183 0.0135
v -0.0019232229 -0.0015783486 0.0135
v -0.0019232229 0.0015783486 0.0145
v -0.0021941878 0.0011728183 0.0145
v -0.0023808316 0.00072221776 0.0145
v -0.0024759817 0.00024386306 0.0145
v -0.0024759817 -0.00024386306 0.0145
v -0.0023808316 -0.00072221776 0.0145
v -0.0021941878 -0.0011728183 0.0145
v -0.0019232229 -0.0015783486 0.0145
v -0.0019232229 0.0015783486 0.0155
v -0.0021941878 0.0011728183 0.0155
v -0.0023808316 0.00072221776 0.0155
v -0.0024759817 0.00024386306 0.0155
v -0.0024759817 -0.00024386306 0.0155
v -0.0023808316 -0.00072221776 0.0155
v -0.0021941878 -0.0011728183 0.0155
v -0.0019232229 -0.0015783486 0.0155
v -0.0019232229 0.0015783486 0.0165
v -0.0021941878 0.0011728183 0.0165
v -0.0023808316 0.00072221776 0.0165
v -0.0024759817 0.00024386306 0.0165
v -0.0024759817 -0.00024386306 0.0165
v -0.0023808316 -0.00072221776 0.0165
v -0.0021941878 -0.0011728183 0.0165
v -0.0019232229 -0.0015783486 0.0165
v -0.0019232229 0.0015783486 0.0175
v -0.0021941878 0.0011728183 0.0175
v -0.0023808316 0.00072221776 0.0175
v -0.0024759817 0.00024386306 0.0175
v -0.0024759817 -0.00024386306 0.0175
v -0.0023808316 -0.00072221776 0.0175
v -0.0021941878 -0.0011728183 0.0175
v -0.0019232229 -0.0015783486 0.0175
v -0.0019232229 0.0015783486 0.0185
v -0.0021941878 0.0011728183 0.0185
v -0.0023808316 0.00072221776 0.0185
v -0.0024759817 0.00024386306 0.0185
v -0.0024759817 -0.00024386306 0.0185
v -0.0023808316 -0.00072221776 0.0185
v -0.0021941878 -0.0011728183 0.0185
v -0.0019232229 -0.0015783486 0.0185
v -0.0019232229 0.0015783486 0.0195
v -0.0021941878 0.0011728183 0.0195
v -0.0023808316 0.00072221776 0.0195
v -0.0024759817 0.00024386306 0.0195
v -0.0024759817 -0.00024386306 0.0195
v -0.0023808316 -0.00072221776 0.0195
v -0.0021941878 -0.0011728183 0.0195
v -0.0019232229 -0.0015783486 0.0195
v -0.0019232229 0.0015783486 0.0205
v -0.0021941878 0.0011728183 0.0205
v -0.0023808316 0.00072221776 0.0205
v -0.0024759817 0.00024386306 0.0205
v -0.0024759817 -0.00024386306 0.0205
v -0.0023808316 -0.00072221776 0.0205
v -0.0021941878 -0.0011728183 0.0205
v -0.0019232229 -0.0015783486 0.0205
v -0.0019232229 0.0015783486 0.0215
v -0.0021941878 0.0011728183 0.0215
v -0.0023808316 0.00072221776 0.0215
v -0.0024759817 0.00024386306 0.0215
v -0.0024759817 -0.00024386306 0.0215
v -0.0023808316 -0.00072221776 0.0215
v -0.0021941878 -0.0011728183 0.0215
v -0.0019232229 -0.0015783486 0.0215
v -0.0019232229 0.0015783486 0.0225
v -0.0021941878 0.0011728183 0.0225
v -0.0023808316 0.00072221776 0.0225
v -0.0024759817 0.00024386306 0.0225
v -0.0024759817 -0.00024386306 0.0225
v -0.0023808316 -0.00072221776 0.0225
v -0.0021941878 -0.0011728183 0.0225
v -0.0019232229 -0.0015783486 0.0225
v -0.0019232229 0.0015783486 0.0235
v -0.0021941878 0.0011728183 0.0235
v -0.0023808316 0.00072221776 0.0235
v -0.0024759817 0.00024386306 0.0235
v -0.0024759817 -0.00024386306 0.0235
v -0.0023808316 -0.00072221776 0.0235
v -0.0021941878 -0.0011728183 0.0235
v -0.0019232229 -0.0015783486 0.0235
v -0.0019232229 0.0015783486 0.0245
v -0.0021941878 0.0011728183 0.0245
v -0.0023808316 0.00072221776 0.0245
v -0.0024759817 0.00024386306 0.0245
v -0.0024759817 -0.00024386306 0.0245
v -0.0023808316 -0.00072221776 0.0245
v -0.0021941878 -0.0011728183 0.0245
v -0.0019232229 -0.0015783486 0.0245
v -0.0019232229 0.0015783486 0.0255
v -0.0021941878 0.0011728183 0.0255
v -0.0023808316 0.00072221776 0.0255
v -0.0024759817 0.00024386306 0.0255
v -0.0024759817 -0.00024386306 0.0255
v -0.0023808316 -0.00072221776 0.0255
v -0.0021941878 -0.0011728183 0.0255
v -0.0019232229 -0.0015783486 0.0255
v -0.0019232229 0.0015783486 0.0265
v -0.0021941878 0.0011728183 0.0265
v -0.0023808316 0.00072221776 0.0265
v -0.0024759817 0.00024386306 0.0265
v -0.0024759817 -0.00024386306 0.0265
v -0.0023808316 -0.00072221776 0.0265
v -0.0021941878 -0.0011728183 0.0265
v -0.0019232229 -0.0015783486 0.0265
v -0.0019232229 0.0015783486 0.0275
v -0.0021941878 0.0011728183 0.0275
v -0.0023808316 0.00072221776 0.0275
v -0.0024759817 0.00024386306 0.0275
v -0.0024759817 -0.00024386306 0.0275
v -0.0023808316 -0.00072221776 0.0275
v -0.0021941878 -0.0011728183 0.0275
v -0.0019232229 -0.0015783486 0.0275
v -0.0019232229 0.0015783486 0.0285
v -0.0021941878 0.0011728183 0.0285
v -0.0023808316 0.00072221776 0.0285
v -0.0024759817 0.00024386306 0.0285
v -0.0024759817 -0.00024386306 0.0285
v -0.0023808316 -0.00072221776 0.0285
v -0.0021941878 -0.0011728183 0.0285
v -0.0019232229 -0.0015783486 0.0285
v -0.0019232229 0.0015783486 0.0295
v -0.0021941878 0.0011728183 0.0295
v -0.0023808316 0.00072221776 0.0295
v -0.0024759817 0.00024386306 0.0295
v -0.0024759817 -0.00024386306 0.0295
v -0.0023808316 -0.00072221776 0.0295
v -0.0021941878 -0.0011728183 0.0295
v -0.0019232229 -0.0015783486 0.0295
v -0.0015783486 -0.0019232229 0.0005
v -0.0011728183 -0.0021941878 0.0005
v -0.00072221776 -0.0023808316 0.0005
v -0.00024386306 -0.0024759817 0.0005
v 0.00024386306 -0.0024759817 0.0005
v 0.00072221776 -0.0023808316 0.0005
v 0.0011728183 -0.0021941878 0.0005
v 0.0015783486 -0.0019232229 0.0005
v -0.0015783486 -0.0019232229 0.0015
v -0.0011728183 -0.0021941878 0.0015
v -0.00072221776 -0.0023808316 0.0015
v -0.00024386306 -0.0024759817 0.0015
v 0.00024386306 -0.0024759817 0.0015
v 0.00072221776 -0.0023808316 0.0015
v 0.0011728183 -0.0021941878 0.0015
v 0.0015783486 -0.0019232229 0.0015
v -0.0015783486 -0.0019232229 0.0025
v -0.0011728183 -0.0021941878 0.0025
v -0.00072221776 -0.0023808316 0.0025
v -0.00024386306 -0.0024759817 0.0025
v 0.00024386306 -0.0024759817 0.0025
v 0.00072221776 -0.0023808316 0.0025
v 0.0011728183 -0.0021941878 0.0025
v 0.0015783486 -0.0019232229 0.0025
v -0.0015783486 -0.0019232229 0.0035
v -0.0011728183 -0.0021941878 0.0035
v -0.00072221776 -0.0023808316 0.0035
v -0.00024386306 -0.0024759817 0.0035
v 0.00024386306 -0.0024759817 0.0035
v 0.00072221776 -0.0023808316 0.0035
v 0.0011728183 -0.0021941878 0.0035
v 0.0015783486 -0.0019232229 0.0035
v -0.0015783486 -0.0019232229 0.0045
v -0.0011728183 -0.0021941878 0.0045
v -0.00072221776 -0.0023808316 0.0045
v -0.00024386306 -0.0024759817 0.0045
v 0.00024386306 -0.0024759817 0.0045
v 0.00072221776 -0.0023808316 0.0045
v 0.0011728183 -0.0021941878 0.0045
v 0.0015783486 -0.0019232229 0.0045
v -0.0015783486 -0.0019232229 0.0055
v -0.0011728183 -0.0021941878 0.0055
v -0.00072221776 -0.0023808316 0.0055
v -0.00024386306 -0.0024759817 0.0055
v 0.00024386306 -0.0024759817 0.0055
v 0.00072221776 -0.0023808316 0.0055
v 0.0011728183 -0.0021941878 0.0055
v 0.0015783486 -0.0019232229 0.0055
v -0.0015783486 -0.0019232229 0.0065
v -0.0011728183 -0.0021941878 0.0065
v -0.00072221776 -0.0023808316 0.0065
v -0.00024386306 -0.0024759817 0.0065
v 0.00024386306 -0.0024759817 0.0065
v 0.00072221776 -0.0023808316 0.0065
v 0.0011728183 -0.0021941878 0.0065
v 0.0015783486 -0.0019232229 0.0065
v -0.0015783486 -0.0019232229 0.0075
v -0.0011728183 -0.0021941878 0.0075
v -0.00072221776 -0.0023808316 0.0075
v -0.00024386306 -0.0024759817 0.0075
v 0.00024386306 -0.0024759817 0.0075
v 0.00072221776 -0.0023808316 0.0075
v 0.0011728183 -0.0021941878 0.0075
v 0.0015783486 -0.0019232229 0.0075
v -0.0015783486 -0.0019232229 0.0085
v -0.0011728183 -0.0021941878 0.0085
v -0.00072221776 -0.0023808316 0.0085
v -0.00024386306 -0.0024759817 0.0085
v 0.00024386306 -0.0024759817 0.0085
v 0.00072221776 -0.0023808316 0.0085
v 0.0011728183 -0.0021941878 0.0085
v 0.0015783486 -0.0019232229 0.0085
v -0.0015783486 -0.0019232229 0.0095
v -0.0011728183 -0.0021941878 0.0095
v -0.00072221776 -0.0023808316 0.0095
v -0.00024386306 -0.0024759817 0.0095
v 0.00024386306 -0.0024759817 0.0095
v 0.00072221776 -0.0023808316 0.0095
v 0.0011728183 -0.0021941878 0.0095
v 0.0015783486 -0.0019232229 0.0095
v -0.0015783486 -0.0019232229 0.0105
v -0.0011728183 -0.0021941878 0.0105
v -0.00072221776 -0.0023808316 0.0105
v -0.00024386306 -0.0024759817 0.0105
v 0.00024386306 -0.0024759817 0.0105
v 0.00072221776 -0.0023808316 0.0105
v 0.0011728183 -0.0021941878 0.0105
v 0.0015783486 -0.0019232229 0.0105
v -0.0015783486 -0.0019232229 0.0115
v -0.0011728183 -0.0021941878 0.0115
v -0.00072221776 -0.0023808316 0.0115
v -0.00024386306 -0.0024759817 0.0115
v 0.00024386306 -0.0024759817 0.0115
v 0.00072221776 -0.0023808316 0.0115
v 0.0011728183 -0.0021941878 0.0115
v 0.0015783486 -0.0019232229 0.0115
v -0.0015783486 -0.0019232229 0.0125
v -0.0011728183 -0.0021941878 0.0125
v -0.00072221776 -0.0023808316 0.0125
v -0.00024386306 -0.0024759817 0.0125
v 0.00024386306 -0.0024759817 0.0125
v 0.00072221776 -0.0023808316 0.0125
v 0.0011728183 -0.0021941878 0.0125
v 0.0015783486 -0.0019232229 0.0125
v -0.0015783486 -0.0019232229 0.0135
v -0.0011728183 -0.0021941878 0.0135
v -0.00072221776 -0.0023808316 0.0135
v -0.00024386306 -0.0024759817 0.0135
v 0.00024386306 -0.0024759817 0.0135
v 0.00072221776 -0.0023808316 0.0135
v 0.0011728183 -0.0021941878 0.0135
v 0.0015783486 -0.0019232229 0.0135
v -0.0015783486 -0.0019232229 0.0145
v -0.0011728183 -0.0021941878 0.0145
v -0.00072221776 -0.0023808316 0.0145
v -0.00024386306 -0.0024759817 0.0145
v 0.00024386306 -0.0024759817 0.0145
v 0.00072221776 -0.0023808316 0.0145
v 0.0011728183 -0.0021941878 0.0145
v 0.0015783486 -0.0019232229 0.0145
v -0.0015783486 -0.0019232229 0.0155
v -0.0011728183 -0.0021941878 0.0155
v -0.00072221776 -0.0023808316 0.0155
v -0.00024386306 -0.0024759817 0.0155
v 0.00024386306 -0.0024759817 0.0155
v 0.00072221776 -0.0023808316 0.0155
v 0.0011728183 -0.0021941878 0.0155
v 0.0015783486 -0.0019232229 0.0155
v -0.0015783486 -0.0019232229 0.0165
v -0.0011728183 -0.0021941878 0.0165
v -0.00072221776 -0.0023808316 0.0165
v -0.00024386306 -0.0024759817 0.0165
v 0.00024386306 -0.0024759817 0.0165
v 0.00072221776 -0.0023808316 0.0165
v 0.0011728183 -0.0021941878 0.0165
v 0.0015783486 -0.0019232229 0.0165
v -0.0015783486 -0.0019232229 0.0175
v -0.0011728183 -0.0021941878 0.0175
v -0.00072221776 -0.0023808316 0.0175
v -0.00024386306 -0.0024759817 0.0175
v 0.00024386306 -0.0024759817 0.0175
v 0.00072221776 -0.0023808316 0.0175
v 0.0011728183 -0.0021941878 0.0175
v 0.0015783486 -0.0019232229 0.0175
v -0.0015783486 -0.0019232229 0.0185
v -0.0011728183 -0.0021941878 0.0185
v -0.00072221776 -0.0023808316 0.0185
v -0.00024386306 -0.0024759817 0.0185
v 0.00024386306 -0.0024759817 0.0185
v 0.00072221776 -0.0023808316 0.0185
v 0.0011728183 -0.0021941878 0.0185
v 0.0015783486 -0.0019232229 0.0185
v -0.0015783486 -0.0019232229 0.0195
v -0.0011728183 -0.0021941878 0.0195
v -0.00072221776 -0.0023808316 0.0195
v -0.00024386306 -0.0024759817 0.0195
v 0.00024386306 -0.0024759817 0.0195
v 0.00072221776 -0.0023808316 0.0195
v 0.0011728183 -0.0021941878 0.0195
v 0.0015783486 -0.0019232229 0.0195
v -0.0015783486 -0.0019232229 0.0205
v -0.0011728183 -0.0021941878 0.0205
v -0.00072221776 -0.0023808316 0.0205
v -0.00024386306 -0.0024759817 0.0205
v 0.00024386306 -0.0024759817 0.0205
v 0.00072221776 -0.0023808316 0.0205
v 0.0011728183 -0.0021941878 0.0205
v 0.0015783486 -0.0019232229 0.0205
v -0.0015783486 -0.0019232229 0.0215
v -0.0011728183 -0.0021941878 0.0215
v -0.00072221776 -0.0023808316 0.0215
v -0.00024386306 -0.0024759817 0.0215
v 0.00024386306 -0.0024759817 0.0215
v 0.00072221776 -0.0023808316 0.0215
v 0.0011728183 -0.0021941878 0.0215
v 0.0015783486 -0.0019232229 0.0215
v -0.0015783486 -0.0019232229 0.0225
v -0.0011728183 -0.0021941878 0.0225
v -0.00072221776 -0.0023808316 0.0225
v -0.00024386306 -0.0024759817 0.0225
v 0.00024386306 -0.0024759817 0.0225
v 0.00072221776 -0.0023808316 0.0225
v 0.0011728183 -0.0021941878 0.0225
v 0.0015783486 -0.0019232229 0.0225
v -0.0015783486 -0.0019232229 0.0235
v -0.0011728183 -0.0021941878 0.0235
v -0.00072221776 -0.0023808316 0.0235
v -0.00024386306 -0.0024759817 0.0235
v 0.00024386306 -0.0024759817 0.0235
v 0.00072221776 -0.0023808316 0.0235
v 0.0011728183 -0.0021941878 0.0235
v 0.0015783486 -0.0019232229 0.0235
v -0.0015783486 -0.0019232229 0.0245
v -0.0011728183 -0.0021941878 0.0245
v -0.00072221776 -0.0023808316 0.0245
v -0.00024386306 -0.0024759817 0.0245
v 0.00024386306 -0.0024759817 0.0245
v 0.00072221776 -0.0023808316 0.0245
v 0.0011728183 -0.0021941878 0.0245
v 0.0015783486 -0.0019232229 0.0245
v -0.0015783486 -0.0019232229 0.0255
v -0.0011728183 -0.0021941878 0.0255
v -0.00072221776 -0.0023808316 0.0255
v -0.00024386306 -0.0024759817 0.0255
v 0.00024386306 -0.0024759817 0.0255
v 0.00072221776 -0.0023808316 0.0255
v 0.0011728183 -0.0021941878 0.0255
v 0.0015783486 -0.0019232229 0.0255
v -0.0015783486 -0.0019232229 0.0265
v -0.0011728183 -0.0021941878 0.0265
v -0.00072221776 -0.0023808316 0.0265
v -0.00024386306 -0.0024759817 0.0265
v 0.00024386306 -0.0024759817 0.0265
v 0.00072221776 -0.0023808316 0.0265
v 0.0011728183 -0.0021941878 0.0265
v 0.0015783486 -0.0019232229 0.0265
v -0.0015783486 -0.0019232229 0.0275
v -0.0011728183 -0.0021941878 0.0275
v -0.00072221776 -0.0023808316 0.0275
v -0.00024386306 -0.0024759817 0.0275
v 0.00024386306 -0.0024759817 0.0275
v 0.00072221776 -0.0023808316 0.0275
v 0.0011728183 -0.0021941878 0.0275
v 0.0015783486 -0.0019232229 0.0275
v -0.0015783486 -0.0019232229 0.0285
v -0.0011728183 -0.0021941878 0.0285
v -0.00072221776 -0.0023808316 0.0285
v -0.00024386306 -0.0024759817 0.0285
v 0.00024386306 -0.0024759817 0.0285
v 0.00072221776 -0.0023808316 0.0285
v 0.0011728183 -0.0021941878 0.0285
v 0.0015783486 -0.0019232229 0.0285
v -0.0015783486 -0.0019232229 0.0295
v -0.0011728183 -0.0021941878 0.0295
v -0.00072221776 -0.0023808316 0.0295
v -0.00024386306 -0.0024759817 0.0295
v 0.00024386306 -0.0024759817 0.0295
v 0.00072221776 -0.0023808316 0.0295
v 0.0011728183 -0.0021941878 0.0295
v 0.0015783486 -0.0019232229 0.0295
