v 0.0019232229 -0.0015783486 0.03025
v 0.0021941878 -0.0011728183 0.03025
v 0.0023808316 -0.00072221776 0.03025
v 0.0024759817 -0.00024386306 0.03025
v 0.0024759817 0.00024386306 0.03025
v 0.0023808316 0.00072221776 0.03025
v 0.0021941878 0.0011728183 0.03025
v 0.0019232229 0.0015783486 0.03025
v 0.0015783486 0.0019232229 0.03025
v 0.0011728183 0.0021941878 0.03025
v 0.00072221776 0.0023808316 0.03025
v 0.00024386306 0.0024759817 0.03025
v -0.00024386306 0.0024759817 0.03025
v -0.00072221776 0.0023808316 0.03025
v -0.0011728183 0.0021941878 0.03025
v -0.0015783486 0.0019232229 0.03025
v -0.0019232229 0.0015783486 0.03025
v -0.0021941878 0.0011728183 0.03025
v -0.0023808316 0.00072221776 0.03025
v -0.0024759817 0.00024386306 0.03025
v -0.0024759817 -0.00024386306 0.03025
v -0.0023808316 -0.00072221776 0.03025
v -0.0021941878 -0.0011728183 0.03025
v -0.0019232229 -0.0015783486 0.03025
v -0.0015783486 -0.0019232229 0.03025
v -0.0011728183 -0.0021941878 0.03025
v -0.00072221776 -0.0023808316 0.03025
v -0.00024386306 -0.0024759817 0.03025
v 0.00024386306 -0.0024759817 0.03025
v 0.00072221776 -0.0023808316 0.03025
v 0.0011728183 -0.0021941878 0.03025
v 0.0015783486 -0.0019232229 0.03025
