<?xml version="1.0"?>
<VTKFile type="PolyData" version="0.1" byte_order="LittleEndian">
  <PolyData>
    <Piece NumberOfPoints="92" NumberOfVerts="0" NumberOfLines="0"
           NumberOfStrips="0" NumberOfPolys="180">
      <Points>
        <DataArray type="Float32" NumberOfComponents="3" format="ascii">
-1.060660e-03 -1.060660e-03 3.000000e-02
-1.149067e-03 -9.641814e-04 3.000000e-02
-1.149067e-03 -9.641814e-04 0.000000e+00
-1.485402e-03 -2.087597e-04 0.000000e+00
1.496346e-03 -1.046347e-04 0.000000e+00
1.467221e-03 -3.118675e-04 0.000000e+00
-1.441893e-03 -4.134560e-04 0.000000e+00
1.409539e-03 -5.130302e-04 0.000000e+00
-1.370318e-03 -6.101050e-04 0.000000e+00
1.324421e-03 -7.042074e-04 0.000000e+00
-1.272072e-03 -7.948789e-04 0.000000e+00
1.213526e-03 -8.816779e-04 0.000000e+00
-1.500000e-03 -1.836970e-19 0.000000e+00
1.079010e-03 -1.041988e-03 0.000000e+00
-1.060660e-03 -1.060660e-03 0.000000e+00
9.234922e-04 -1.182016e-03 0.000000e+00
-1.003696e-03 -1.114717e-03 0.000000e+00
-8.387893e-04 -1.243556e-03 0.000000e+00
7.500000e-04 -1.299038e-03 0.000000e+00
-6.575567e-04 -1.348191e-03 0.000000e+00
5.619099e-04 -1.390776e-03 0.000000e+00
-4.635255e-04 -1.426585e-03 0.000000e+00
3.628829e-04 -1.455444e-03 0.000000e+00
1.496346e-03 1.046347e-04 0.000000e+00
-1.485402e-03 2.087597e-04 0.000000e+00
1.467221e-03 3.118675e-04 0.000000e+00
-5.234924e-05 1.499086e-03 0.000000e+00
1.567927e-04 1.491783e-03 0.000000e+00
-2.604723e-04 1.477212e-03 0.000000e+00
3.628829e-04 1.455444e-03 0.000000e+00
-4.635255e-04 1.426585e-03 0.000000e+00
5.619099e-04 1.390776e-03 0.000000e+00
-6.575567e-04 1.348191e-03 0.000000e+00
7.500000e-04 1.299038e-03 0.000000e+00
-8.387893e-04 1.243556e-03 0.000000e+00
9.234922e-04 1.182016e-03 0.000000e+00
-1.003696e-03 1.114717e-03 0.000000e+00
1.079010e-03 1.041988e-03 0.000000e+00
-1.149067e-03 9.641814e-04 0.000000e+00
1.213526e-03 8.816779e-04 0.000000e+00
-1.272072e-03 7.948789e-04 0.000000e+00
1.324421e-03 7.042074e-04 0.000000e+00
-1.370318e-03 6.101050e-04 0.000000e+00
1.409539e-03 5.130302e-04 0.000000e+00
-1.441893e-03 4.134560e-04 0.000000e+00
-2.604723e-04 -1.477212e-03 0.000000e+00
1.567927e-04 -1.491783e-03 0.000000e+00
-5.234924e-05 -1.499086e-03 0.000000e+00
-1.003696e-03 -1.114717e-03 3.000000e-02
9.234922e-04 -1.182016e-03 3.000000e-02
-1.003696e-03 1.114717e-03 3.000000e-02
1.079010e-03 1.041988e-03 3.000000e-02
9.234922e-04 1.182016e-03 3.000000e-02
-8.387893e-04 1.243556e-03 3.000000e-02
7.500000e-04 1.299038e-03 3.000000e-02
-6.575567e-04 1.348191e-03 3.000000e-02
5.619099e-04 1.390776e-03 3.000000e-02
-4.635255e-04 1.426585e-03 3.000000e-02
3.628829e-04 1.455444e-03 3.000000e-02
-2.604723e-04 1.477212e-03 3.000000e-02
1.567927e-04 1.491783e-03 3.000000e-02
-5.234924e-05 1.499086e-03 3.000000e-02
-8.387893e-04 -1.243556e-03 3.000000e-02
7.500000e-04 -1.299038e-03 3.000000e-02
-6.575567e-04 -1.348191e-03 3.000000e-02
5.619099e-04 -1.390776e-03 3.000000e-02
-4.635255e-04 -1.426585e-03 3.000000e-02
3.628829e-04 -1.455444e-03 3.000000e-02
-2.604723e-04 -1.477212e-03 3.000000e-02
1.567927e-04 -1.491783e-03 3.000000e-02
-5.234924e-05 -1.499086e-03 3.000000e-02
-1.149067e-03 9.641814e-04 3.000000e-02
1.213526e-03 8.816779e-04 3.000000e-02
-1.370318e-03 6.101050e-04 3.000000e-02
1.324421e-03 7.042074e-04 3.000000e-02
-1.272072e-03 7.948789e-04 3.000000e-02
1.079010e-03 -1.041988e-03 3.000000e-02
1.213526e-03 -8.816779e-04 3.000000e-02
-1.272072e-03 -7.948789e-04 3.000000e-02
1.324421e-03 -7.042074e-04 3.000000e-02
-1.370318e-03 -6.101050e-04 3.000000e-02
1.409539e-03 -5.130302e-04 3.000000e-02
-1.441893e-03 -4.134560e-04 3.000000e-02
1.467221e-03 -3.118675e-04 3.000000e-02
-1.485402e-03 -2.087597e-04 3.000000e-02
1.496346e-03 -1.046347e-04 3.000000e-02
-1.500000e-03 -1.836970e-19 3.000000e-02
1.496346e-03 1.046347e-04 3.000000e-02
-1.485402e-03 2.087597e-04 3.000000e-02
1.467221e-03 3.118675e-04 3.000000e-02
-1.441893e-03 4.134560e-04 3.000000e-02
1.409539e-03 5.130302e-04 3.000000e-02
        </DataArray>
      </Points>
      <Polys>
        <DataArray type="Int32" Name="connectivity" format="ascii">
0 1 2
3 4 5
3 5 6
6 5 7
6 7 8
8 7 9
8 9 10
10 9 11
10 11 2
12 4 3
2 11 13
14 13 15
14 15 16
16 15 17
15 18 17
17 18 19
18 20 19
19 20 21
20 22 21
2 13 14
12 23 4
24 23 12
24 25 23
26 27 28
28 27 29
28 29 30
30 29 31
30 31 32
32 31 33
32 33 34
34 33 35
34 35 36
36 35 37
36 37 38
38 37 39
38 39 40
40 39 41
40 41 42
42 41 43
42 43 44
44 43 25
44 25 24
21 22 45
22 46 45
45 46 47
48 49 0
50 51 52
50 52 53
53 52 54
53 54 55
55 54 56
55 56 57
57 56 58
57 58 59
59 58 60
59 60 61
48 62 49
49 62 63
62 64 63
63 64 65
64 66 65
65 66 67
66 68 67
67 68 69
68 70 69
71 51 50
0 14 48
71 72 51
73 74 75
0 49 76
0 76 1
1 76 77
1 77 78
78 77 79
78 79 80
80 79 81
80 81 82
82 81 83
82 83 84
84 83 85
84 85 86
86 85 87
86 87 88
88 87 89
88 89 90
90 89 91
90 91 73
73 91 74
75 74 72
2 14 0
75 72 71
17 48 16
36 53 34
34 53 55
34 55 32
32 55 57
32 57 30
30 57 59
30 59 28
28 59 61
36 50 53
28 61 26
26 60 27
27 60 58
27 58 29
29 58 56
29 56 31
31 56 54
31 54 33
33 54 52
26 61 60
38 50 36
38 71 50
40 71 38
16 48 14
2 1 78
2 78 10
10 78 80
10 80 8
8 80 82
8 82 6
6 82 84
6 84 3
3 84 86
3 86 12
12 88 24
24 88 90
24 90 44
44 90 73
44 73 42
42 73 75
42 75 40
40 75 71
33 52 35
35 52 51
12 86 88
37 51 72
15 49 63
15 63 18
18 63 65
18 65 20
20 65 67
20 67 22
22 67 69
22 69 46
46 69 70
46 70 47
47 70 68
47 68 45
45 66 21
21 66 64
21 64 19
19 64 62
19 62 17
35 51 37
17 62 48
13 49 15
13 76 49
45 68 66
11 76 13
39 72 74
37 72 39
39 74 41
41 74 91
41 91 43
43 89 25
25 89 87
25 87 23
23 87 85
23 85 4
43 91 89
4 85 83
4 83 5
5 83 81
5 81 7
11 77 76
7 81 79
7 79 9
9 79 77
9 77 11
        </DataArray>
        <DataArray type="Int32" Name="offsets" format="ascii">
3
6
9
12
15
18
21
24
27
30
33
36
39
42
45
48
51
54
57
60
63
66
69
72
75
78
81
84
87
90
93
96
99
102
105
108
111
114
117
120
123
126
129
132
135
138
141
144
147
150
153
156
159
162
165
168
171
174
177
180
183
186
189
192
195
198
201
204
207
210
213
216
219
222
225
228
231
234
237
240
243
246
249
252
255
258
261
264
267
270
273
276
279
282
285
288
291
294
297
300
303
306
309
312
315
318
321
324
327
330
333
336
339
342
345
348
351
354
357
360
363
366
369
372
375
378
381
384
387
390
393
396
399
402
405
408
411
414
417
420
423
426
429
432
435
438
441
444
447
450
453
456
459
462
465
468
471
474
477
480
483
486
489
492
495
498
501
504
507
510
513
516
519
522
525
528
531
534
537
540
        </DataArray>
      </Polys>
    </Piece>
  </PolyData>
</VTKFile>
