v -0.0057517812 -0.0040602468 0.00045166656
v -0.0057491323 -0.0040270994 0.0004537262
v -0.0057239303 -0.003981581 0.00047018362
v -0.0056806745 -0.0039964162 0.00046368614
v -0.0056645934 -0.0040415211 0.00047073447
v -0.0057169843 -0.0040593658 0.00045302131
v -0.0057515001 -0.0040289166 0.00048063095
v -0.005746182 -0.0039896393 0.00047833435
v -0.0057506625 -0.0040622325 0.0004982314
v -0.0057543902 -0.004037148 0.00049429057
v -0.0057527971 -0.004061039 0.00048070183
v -0.0057191689 -0.004060975 0.00047896235
v -0.0057224619 -0.004068115 0.00049172424
v -0.0056746674 -0.00405066 0.0004752791
v -0.0056891222 -0.0040641998 0.00048188433
v -0.0057091189 -0.0040257219 0.00047972241
v -0.0057431692 -0.0040170109 0.00048595346
v -0.0057215118 -0.0040233408 0.00048235379
l 1 2
l 2 3
l 3 4
l 4 5
l 5 6
l 6 1
l 3 2
l 2 7
l 7 8
l 8 3
l 9 10
l 10 7
l 7 11
l 11 9
l 1 11
l 11 7
l 7 2
l 2 1
l 9 11
l 11 12
l 12 13
l 13 9
l 1 6
l 6 12
l 12 11
l 11 1
l 5 14
l 14 12
l 12 6
l 6 5
l 15 13
l 13 12
l 12 14
l 14 15
l 4 16
l 16 15
l 15 14
l 14 5
l 5 4
l 17 18
l 18 16
l 16 4
l 4 3
l 3 8
l 8 17
l 17 10
l 10 9
l 9 13
l 13 15
l 15 16
l 16 18
l 18 17
l 17 10
l 10 7
l 7 8
l 8 17
