solid nerve
  facet normal -7.372769e-01 -6.755907e-01 -0.000000e+00
    outer loop
      vertex -1.060660e-03 -1.060660e-03 0.000000e+00
      vertex -1.149067e-03 -9.641814e-04 0.000000e+00
      vertex -1.149067e-03 -9.641814e-04 -3.000000e-02
    endloop
  endfacet
  facet normal 0.000000e+00 -0.000000e+00 -1.000000e+00
    outer loop
      vertex -1.485402e-03 -2.087597e-04 -3.000000e-02
      vertex 1.496346e-03 -1.046347e-04 -3.000000e-02
      vertex 1.467221e-03 -3.118675e-04 -3.000000e-02
    endloop
  endfacet
  facet normal 0.000000e+00 -0.000000e+00 -1.000000e+00
    outer loop
      vertex -1.485402e-03 -2.087597e-04 -3.000000e-02
      vertex 1.467221e-03 -3.118675e-04 -3.000000e-02
      vertex -1.441893e-03 -4.134560e-04 -3.000000e-02
    endloop
  endfacet
  facet normal 0.000000e+00 -0.000000e+00 -1.000000e+00
    outer loop
      vertex -1.441893e-03 -4.134560e-04 -3.000000e-02
      vertex 1.467221e-03 -3.118675e-04 -3.000000e-02
      vertex 1.409539e-03 -5.130302e-04 -3.000000e-02
    endloop
  endfacet
  facet normal 0.000000e+00 -0.000000e+00 -1.000000e+00
    outer loop
      vertex -1.441893e-03 -4.134560e-04 -3.000000e-02
      vertex 1.409539e-03 -5.130302e-04 -3.000000e-02
      vertex -1.370318e-03 -6.101050e-04 -3.000000e-02
    endloop
  endfacet
  facet normal 0.000000e+00 -0.000000e+00 -1.000000e+00
    outer loop
      vertex -1.370318e-03 -6.101050e-04 -3.000000e-02
      vertex 1.409539e-03 -5.130302e-04 -3.000000e-02
      vertex 1.324421e-03 -7.042074e-04 -3.000000e-02
    endloop
  endfacet
  facet normal 0.000000e+00 -0.000000e+00 -1.000000e+00
    outer loop
      vertex -1.370318e-03 -6.101050e-04 -3.000000e-02
      vertex 1.324421e-03 -7.042074e-04 -3.000000e-02
      vertex -1.272072e-03 -7.948789e-04 -3.000000e-02
    endloop
  endfacet
  facet normal 0.000000e+00 -0.000000e+00 -1.000000e+00
    outer loop
      vertex -1.272072e-03 -7.948789e-04 -3.000000e-02
      vertex 1.324421e-03 -7.042074e-04 -3.000000e-02
      vertex 1.213526e-03 -8.816779e-04 -3.000000e-02
    endloop
  endfacet
  facet normal 0.000000e+00 -0.000000e+00 -1.000000e+00
    outer loop
      vertex -1.272072e-03 -7.948789e-04 -3.000000e-02
      vertex 1.213526e-03 -8.816779e-04 -3.000000e-02
      vertex -1.149067e-03 -9.641814e-04 -3.000000e-02
    endloop
  endfacet
  facet normal 0.000000e+00 -0.000000e+00 -1.000000e+00
    outer loop
      vertex -1.500000e-03 -1.836970e-19 -3.000000e-02
      vertex 1.496346e-03 -1.046347e-04 -3.000000e-02
      vertex -1.485402e-03 -2.087597e-04 -3.000000e-02
    endloop
  endfacet
  facet normal 0.000000e+00 -0.000000e+00 -1.000000e+00
    outer loop
      vertex -1.149067e-03 -9.641814e-04 -3.000000e-02
      vertex 1.213526e-03 -8.816779e-04 -3.000000e-02
      vertex 1.079010e-03 -1.041988e-03 -3.000000e-02
    endloop
  endfacet
  facet normal 0.000000e+00 -0.000000e+00 -1.000000e+00
    outer loop
      vertex -1.060660e-03 -1.060660e-03 -3.000000e-02
      vertex 1.079010e-03 -1.041988e-03 -3.000000e-02
      vertex 9.234922e-04 -1.182016e-03 -3.000000e-02
    endloop
  endfacet
  facet normal -0.000000e+00 -0.000000e+00 -1.000000e+00
    outer loop
      vertex -1.060660e-03 -1.060660e-03 -3.000000e-02
      vertex 9.234922e-04 -1.182016e-03 -3.000000e-02
      vertex -1.003696e-03 -1.114717e-03 -3.000000e-02
    endloop
  endfacet
  facet normal 0.000000e+00 -0.000000e+00 -1.000000e+00
    outer loop
      vertex -1.003696e-03 -1.114717e-03 -3.000000e-02
      vertex 9.234922e-04 -1.182016e-03 -3.000000e-02
      vertex -8.387893e-04 -1.243556e-03 -3.000000e-02
    endloop
  endfacet
  facet normal -0.000000e+00 0.000000e+00 -1.000000e+00
    outer loop
      vertex 9.234922e-04 -1.182016e-03 -3.000000e-02
      vertex 7.500000e-04 -1.299038e-03 -3.000000e-02
      vertex -8.387893e-04 -1.243556e-03 -3.000000e-02
    endloop
  endfacet
  facet normal 0.000000e+00 -0.000000e+00 -1.000000e+00
    outer loop
      vertex -8.387893e-04 -1.243556e-03 -3.000000e-02
      vertex 7.500000e-04 -1.299038e-03 -3.000000e-02
      vertex -6.575567e-04 -1.348191e-03 -3.000000e-02
    endloop
  endfacet
  facet normal -0.000000e+00 0.000000e+00 -1.000000e+00
    outer loop
      vertex 7.500000e-04 -1.299038e-03 -3.000000e-02
      vertex 5.619099e-04 -1.390776e-03 -3.000000e-02
      vertex -6.575567e-04 -1.348191e-03 -3.000000e-02
    endloop
  endfacet
  facet normal 0.000000e+00 -0.000000e+00 -1.000000e+00
    outer loop
      vertex -6.575567e-04 -1.348191e-03 -3.000000e-02
      vertex 5.619099e-04 -1.390776e-03 -3.000000e-02
      vertex -4.635255e-04 -1.426585e-03 -3.000000e-02
    endloop
  endfacet
  facet normal -0.000000e+00 0.000000e+00 -1.000000e+00
    outer loop
      vertex 5.619099e-04 -1.390776e-03 -3.000000e-02
      vertex 3.628829e-04 -1.455444e-03 -3.000000e-02
      vertex -4.635255e-04 -1.426585e-03 -3.000000e-02
    endloop
  endfacet
  facet normal 0.000000e+00 -0.000000e+00 -1.000000e+00
    outer loop
      vertex -1.149067e-03 -9.641814e-04 -3.000000e-02
      vertex 1.079010e-03 -1.041988e-03 -3.000000e-02
      vertex -1.060660e-03 -1.060660e-03 -3.000000e-02
    endloop
  endfacet
  facet normal 0.000000e+00 0.000000e+00 -1.000000e+00
    outer loop
      vertex -1.500000e-03 -1.836970e-19 -3.000000e-02
      vertex 1.496346e-03 1.046347e-04 -3.000000e-02
      vertex 1.496346e-03 -1.046347e-04 -3.000000e-02
    endloop
  endfacet
  facet normal 0.000000e+00 -0.000000e+00 -1.000000e+00
    outer loop
      vertex -1.485402e-03 2.087597e-04 -3.000000e-02
      vertex 1.496346e-03 1.046347e-04 -3.000000e-02
      vertex -1.500000e-03 -1.836970e-19 -3.000000e-02
    endloop
  endfacet
  facet normal 0.000000e+00 0.000000e+00 -1.000000e+00
    outer loop
      vertex -1.485402e-03 2.087597e-04 -3.000000e-02
      vertex 1.467221e-03 3.118675e-04 -3.000000e-02
      vertex 1.496346e-03 1.046347e-04 -3.000000e-02
    endloop
  endfacet
  facet normal 0.000000e+00 -0.000000e+00 -1.000000e+00
    outer loop
      vertex -5.234924e-05 1.499086e-03 -3.000000e-02
      vertex 1.567927e-04 1.491783e-03 -3.000000e-02
      vertex -2.604723e-04 1.477212e-03 -3.000000e-02
    endloop
  endfacet
  facet normal 0.000000e+00 0.000000e+00 -1.000000e+00
    outer loop
      vertex -2.604723e-04 1.477212e-03 -3.000000e-02
      vertex 1.567927e-04 1.491783e-03 -3.000000e-02
      vertex 3.628829e-04 1.455444e-03 -3.000000e-02
    endloop
  endfacet
  facet normal 0.000000e+00 -0.000000e+00 -1.000000e+00
    outer loop
      vertex -2.604723e-04 1.477212e-03 -3.000000e-02
      vertex 3.628829e-04 1.455444e-03 -3.000000e-02
      vertex -4.635255e-04 1.426585e-03 -3.000000e-02
    endloop
  endfacet
  facet normal 0.000000e+00 0.000000e+00 -1.000000e+00
    outer loop
      vertex -4.635255e-04 1.426585e-03 -3.000000e-02
      vertex 3.628829e-04 1.455444e-03 -3.000000e-02
      vertex 5.619099e-04 1.390776e-03 -3.000000e-02
    endloop
  endfacet
  facet normal 0.000000e+00 -0.000000e+00 -1.000000e+00
    outer loop
      vertex -4.635255e-04 1.426585e-03 -3.000000e-02
      vertex 5.619099e-04 1.390776e-03 -3.000000e-02
      vertex -6.575567e-04 1.348191e-03 -3.000000e-02
    endloop
  endfacet
  facet normal 0.000000e+00 0.000000e+00 -1.000000e+00
    outer loop
      vertex -6.575567e-04 1.348191e-03 -3.000000e-02
      vertex 5.619099e-04 1.390776e-03 -3.000000e-02
      vertex 7.500000e-04 1.299038e-03 -3.000000e-02
    endloop
  endfacet
  facet normal 0.000000e+00 -0.000000e+00 -1.000000e+00
    outer loop
      vertex -6.575567e-04 1.348191e-03 -3.000000e-02
      vertex 7.500000e-04 1.299038e-03 -3.000000e-02
      vertex -8.387893e-04 1.243556e-03 -3.000000e-02
    endloop
  endfacet
  facet normal 0.000000e+00 0.000000e+00 -1.000000e+00
    outer loop
      vertex -8.387893e-04 1.243556e-03 -3.000000e-02
      vertex 7.500000e-04 1.299038e-03 -3.000000e-02
      vertex 9.234922e-04 1.182016e-03 -3.000000e-02
    endloop
  endfacet
  facet normal 0.000000e+00 -0.000000e+00 -1.000000e+00
    outer loop
      vertex -8.387893e-04 1.243556e-03 -3.000000e-02
      vertex 9.234922e-04 1.182016e-03 -3.000000e-02
      vertex -1.003696e-03 1.114717e-03 -3.000000e-02
    endloop
  endfacet
  facet normal 0.000000e+00 0.000000e+00 -1.000000e+00
    outer loop
      vertex -1.003696e-03 1.114717e-03 -3.000000e-02
      vertex 9.234922e-04 1.182016e-03 -3.000000e-02
      vertex 1.079010e-03 1.041988e-03 -3.000000e-02
    endloop
  endfacet
  facet normal 0.000000e+00 -0.000000e+00 -1.000000e+00
    outer loop
      vertex -1.003696e-03 1.114717e-03 -3.000000e-02
      vertex 1.079010e-03 1.041988e-03 -3.000000e-02
      vertex -1.149067e-03 9.641814e-04 -3.000000e-02
    endloop
  endfacet
  facet normal 0.000000e+00 0.000000e+00 -1.000000e+00
    outer loop
      vertex -1.149067e-03 9.641814e-04 -3.000000e-02
      vertex 1.079010e-03 1.041988e-03 -3.000000e-02
      vertex 1.213526e-03 8.816779e-04 -3.000000e-02
    endloop
  endfacet
  facet normal 0.000000e+00 -0.000000e+00 -1.000000e+00
    outer loop
      vertex -1.149067e-03 9.641814e-04 -3.000000e-02
      vertex 1.213526e-03 8.816779e-04 -3.000000e-02
      vertex -1.272072e-03 7.948789e-04 -3.000000e-02
    endloop
  endfacet
  facet normal 0.000000e+00 0.000000e+00 -1.000000e+00
    outer loop
      vertex -1.272072e-03 7.948789e-04 -3.000000e-02
      vertex 1.213526e-03 8.816779e-04 -3.000000e-02
      vertex 1.324421e-03 7.042074e-04 -3.000000e-02
    endloop
  endfacet
  facet normal 0.000000e+00 -0.000000e+00 -1.000000e+00
    outer loop
      vertex -1.272072e-03 7.948789e-04 -3.000000e-02
      vertex 1.324421e-03 7.042074e-04 -3.000000e-02
      vertex -1.370318e-03 6.101050e-04 -3.000000e-02
    endloop
  endfacet
  facet normal 0.000000e+00 0.000000e+00 -1.000000e+00
    outer loop
      vertex -1.370318e-03 6.101050e-04 -3.000000e-02
      vertex 1.324421e-03 7.042074e-04 -3.000000e-02
      vertex 1.409539e-03 5.130302e-04 -3.000000e-02
    endloop
  endfacet
  facet normal 0.000000e+00 -0.000000e+00 -1.000000e+00
    outer loop
      vertex -1.370318e-03 6.101050e-04 -3.000000e-02
      vertex 1.409539e-03 5.130302e-04 -3.000000e-02
      vertex -1.441893e-03 4.134560e-04 -3.000000e-02
    endloop
  endfacet
  facet normal 0.000000e+00 0.000000e+00 -1.000000e+00
    outer loop
      vertex -1.441893e-03 4.134560e-04 -3.000000e-02
      vertex 1.409539e-03 5.130302e-04 -3.000000e-02
      vertex 1.467221e-03 3.118675e-04 -3.000000e-02
    endloop
  endfacet
  facet normal 0.000000e+00 -0.000000e+00 -1.000000e+00
    outer loop
      vertex -1.441893e-03 4.134560e-04 -3.000000e-02
      vertex 1.467221e-03 3.118675e-04 -3.000000e-02
      vertex -1.485402e-03 2.087597e-04 -3.000000e-02
    endloop
  endfacet
  facet normal 0.000000e+00 -0.000000e+00 -1.000000e+00
    outer loop
      vertex -4.635255e-04 -1.426585e-03 -3.000000e-02
      vertex 3.628829e-04 -1.455444e-03 -3.000000e-02
      vertex -2.604723e-04 -1.477212e-03 -3.000000e-02
    endloop
  endfacet
  facet normal -0.000000e+00 0.000000e+00 -1.000000e+00
    outer loop
      vertex 3.628829e-04 -1.455444e-03 -3.000000e-02
      vertex 1.567927e-04 -1.491783e-03 -3.000000e-02
      vertex -2.604723e-04 -1.477212e-03 -3.000000e-02
    endloop
  endfacet
  facet normal 0.000000e+00 -0.000000e+00 -1.000000e+00
    outer loop
      vertex -2.604723e-04 -1.477212e-03 -3.000000e-02
      vertex 1.567927e-04 -1.491783e-03 -3.000000e-02
      vertex -5.234924e-05 -1.499086e-03 -3.000000e-02
    endloop
  endfacet
  facet normal -0.000000e+00 -0.000000e+00 1.000000e+00
    outer loop
      vertex -1.003696e-03 -1.114717e-03 0.000000e+00
      vertex 9.234922e-04 -1.182016e-03 0.000000e+00
      vertex -1.060660e-03 -1.060660e-03 0.000000e+00
    endloop
  endfacet
  facet normal -0.000000e+00 -0.000000e+00 1.000000e+00
    outer loop
      vertex -1.003696e-03 1.114717e-03 0.000000e+00
      vertex 1.079010e-03 1.041988e-03 0.000000e+00
      vertex 9.234922e-04 1.182016e-03 0.000000e+00
    endloop
  endfacet
  facet normal 0.000000e+00 -0.000000e+00 1.000000e+00
    outer loop
      vertex -1.003696e-03 1.114717e-03 0.000000e+00
      vertex 9.234922e-04 1.182016e-03 0.000000e+00
      vertex -8.387893e-04 1.243556e-03 0.000000e+00
    endloop
  endfacet
  facet normal -0.000000e+00 -0.000000e+00 1.000000e+00
    outer loop
      vertex -8.387893e-04 1.243556e-03 0.000000e+00
      vertex 9.234922e-04 1.182016e-03 0.000000e+00
      vertex 7.500000e-04 1.299038e-03 0.000000e+00
    endloop
  endfacet
  facet normal 0.000000e+00 -0.000000e+00 1.000000e+00
    outer loop
      vertex -8.387893e-04 1.243556e-03 0.000000e+00
      vertex 7.500000e-04 1.299038e-03 0.000000e+00
      vertex -6.575567e-04 1.348191e-03 0.000000e+00
    endloop
  endfacet
  facet normal -0.000000e+00 -0.000000e+00 1.000000e+00
    outer loop
      vertex -6.575567e-04 1.348191e-03 0.000000e+00
      vertex 7.500000e-04 1.299038e-03 0.000000e+00
      vertex 5.619099e-04 1.390776e-03 0.000000e+00
    endloop
  endfacet
  facet normal 0.000000e+00 -0.000000e+00 1.000000e+00
    outer loop
      vertex -6.575567e-04 1.348191e-03 0.000000e+00
      vertex 5.619099e-04 1.390776e-03 0.000000e+00
      vertex -4.635255e-04 1.426585e-03 0.000000e+00
    endloop
  endfacet
  facet normal -0.000000e+00 -0.000000e+00 1.000000e+00
    outer loop
      vertex -4.635255e-04 1.426585e-03 0.000000e+00
      vertex 5.619099e-04 1.390776e-03 0.000000e+00
      vertex 3.628829e-04 1.455444e-03 0.000000e+00
    endloop
  endfacet
  facet normal 0.000000e+00 -0.000000e+00 1.000000e+00
    outer loop
      vertex -4.635255e-04 1.426585e-03 0.000000e+00
      vertex 3.628829e-04 1.455444e-03 0.000000e+00
      vertex -2.604723e-04 1.477212e-03 0.000000e+00
    endloop
  endfacet
  facet normal -0.000000e+00 -0.000000e+00 1.000000e+00
    outer loop
      vertex -2.604723e-04 1.477212e-03 0.000000e+00
      vertex 3.628829e-04 1.455444e-03 0.000000e+00
      vertex 1.567927e-04 1.491783e-03 0.000000e+00
    endloop
  endfacet
  facet normal 0.000000e+00 -0.000000e+00 1.000000e+00
    outer loop
      vertex -2.604723e-04 1.477212e-03 0.000000e+00
      vertex 1.567927e-04 1.491783e-03 0.000000e+00
      vertex -5.234924e-05 1.499086e-03 0.000000e+00
    endloop
  endfacet
  facet normal -0.000000e+00 0.000000e+00 1.000000e+00
    outer loop
      vertex -1.003696e-03 -1.114717e-03 0.000000e+00
      vertex -8.387893e-04 -1.243556e-03 0.000000e+00
      vertex 9.234922e-04 -1.182016e-03 0.000000e+00
    endloop
  endfacet
  facet normal 0.000000e+00 0.000000e+00 1.000000e+00
    outer loop
      vertex 9.234922e-04 -1.182016e-03 0.000000e+00
      vertex -8.387893e-04 -1.243556e-03 0.000000e+00
      vertex 7.500000e-04 -1.299038e-03 0.000000e+00
    endloop
  endfacet
  facet normal -0.000000e+00 0.000000e+00 1.000000e+00
    outer loop
      vertex -8.387893e-04 -1.243556e-03 0.000000e+00
      vertex -6.575567e-04 -1.348191e-03 0.000000e+00
      vertex 7.500000e-04 -1.299038e-03 0.000000e+00
    endloop
  endfacet
  facet normal 0.000000e+00 0.000000e+00 1.000000e+00
    outer loop
      vertex 7.500000e-04 -1.299038e-03 0.000000e+00
      vertex -6.575567e-04 -1.348191e-03 0.000000e+00
      vertex 5.619099e-04 -1.390776e-03 0.000000e+00
    endloop
  endfacet
  facet normal -0.000000e+00 0.000000e+00 1.000000e+00
    outer loop
      vertex -6.575567e-04 -1.348191e-03 0.000000e+00
      vertex -4.635255e-04 -1.426585e-03 0.000000e+00
      vertex 5.619099e-04 -1.390776e-03 0.000000e+00
    endloop
  endfacet
  facet normal 0.000000e+00 0.000000e+00 1.000000e+00
    outer loop
      vertex 5.619099e-04 -1.390776e-03 0.000000e+00
      vertex -4.635255e-04 -1.426585e-03 0.000000e+00
      vertex 3.628829e-04 -1.455444e-03 0.000000e+00
    endloop
  endfacet
  facet normal -0.000000e+00 0.000000e+00 1.000000e+00
    outer loop
      vertex -4.635255e-04 -1.426585e-03 0.000000e+00
      vertex -2.604723e-04 -1.477212e-03 0.000000e+00
      vertex 3.628829e-04 -1.455444e-03 0.000000e+00
    endloop
  endfacet
  facet normal 0.000000e+00 0.000000e+00 1.000000e+00
    outer loop
      vertex 3.628829e-04 -1.455444e-03 0.000000e+00
      vertex -2.604723e-04 -1.477212e-03 0.000000e+00
      vertex 1.567927e-04 -1.491783e-03 0.000000e+00
    endloop
  endfacet
  facet normal -0.000000e+00 0.000000e+00 1.000000e+00
    outer loop
      vertex -2.604723e-04 -1.477212e-03 0.000000e+00
      vertex -5.234924e-05 -1.499086e-03 0.000000e+00
      vertex 1.567927e-04 -1.491783e-03 0.000000e+00
    endloop
  endfacet
  facet normal 0.000000e+00 -0.000000e+00 1.000000e+00
    outer loop
      vertex -1.149067e-03 9.641814e-04 0.000000e+00
      vertex 1.079010e-03 1.041988e-03 0.000000e+00
      vertex -1.003696e-03 1.114717e-03 0.000000e+00
    endloop
  endfacet
  facet normal -6.883556e-01 -7.253734e-01 -0.000000e+00
    outer loop
      vertex -1.060660e-03 -1.060660e-03 0.000000e+00
      vertex -1.060660e-03 -1.060660e-03 -3.000000e-02
      vertex -1.003696e-03 -1.114717e-03 0.000000e+00
    endloop
  endfacet
  facet normal -0.000000e+00 -0.000000e+00 1.000000e+00
    outer loop
      vertex -1.149067e-03 9.641814e-04 0.000000e+00
      vertex 1.213526e-03 8.816779e-04 0.000000e+00
      vertex 1.079010e-03 1.041988e-03 0.000000e+00
    endloop
  endfacet
  facet normal 0.000000e+00 -0.000000e+00 1.000000e+00
    outer loop
      vertex -1.370318e-03 6.101050e-04 0.000000e+00
      vertex 1.324421e-03 7.042074e-04 0.000000e+00
      vertex -1.272072e-03 7.948789e-04 0.000000e+00
    endloop
  endfacet
  facet normal -0.000000e+00 0.000000e+00 1.000000e+00
    outer loop
      vertex -1.060660e-03 -1.060660e-03 0.000000e+00
      vertex 9.234922e-04 -1.182016e-03 0.000000e+00
      vertex 1.079010e-03 -1.041988e-03 0.000000e+00
    endloop
  endfacet
  facet normal 0.000000e+00 -0.000000e+00 1.000000e+00
    outer loop
      vertex -1.060660e-03 -1.060660e-03 0.000000e+00
      vertex 1.079010e-03 -1.041988e-03 0.000000e+00
      vertex -1.149067e-03 -9.641814e-04 0.000000e+00
    endloop
  endfacet
  facet normal -0.000000e+00 0.000000e+00 1.000000e+00
    outer loop
      vertex -1.149067e-03 -9.641814e-04 0.000000e+00
      vertex 1.079010e-03 -1.041988e-03 0.000000e+00
      vertex 1.213526e-03 -8.816779e-04 0.000000e+00
    endloop
  endfacet
  facet normal 0.000000e+00 -0.000000e+00 1.000000e+00
    outer loop
      vertex -1.149067e-03 -9.641814e-04 0.000000e+00
      vertex 1.213526e-03 -8.816779e-04 0.000000e+00
      vertex -1.272072e-03 -7.948789e-04 0.000000e+00
    endloop
  endfacet
  facet normal -0.000000e+00 0.000000e+00 1.000000e+00
    outer loop
      vertex -1.272072e-03 -7.948789e-04 0.000000e+00
      vertex 1.213526e-03 -8.816779e-04 0.000000e+00
      vertex 1.324421e-03 -7.042074e-04 0.000000e+00
    endloop
  endfacet
  facet normal 0.000000e+00 -0.000000e+00 1.000000e+00
    outer loop
      vertex -1.272072e-03 -7.948789e-04 0.000000e+00
      vertex 1.324421e-03 -7.042074e-04 0.000000e+00
      vertex -1.370318e-03 -6.101050e-04 0.000000e+00
    endloop
  endfacet
  facet normal -0.000000e+00 0.000000e+00 1.000000e+00
    outer loop
      vertex -1.370318e-03 -6.101050e-04 0.000000e+00
      vertex 1.324421e-03 -7.042074e-04 0.000000e+00
      vertex 1.409539e-03 -5.130302e-04 0.000000e+00
    endloop
  endfacet
  facet normal 0.000000e+00 -0.000000e+00 1.000000e+00
    outer loop
      vertex -1.370318e-03 -6.101050e-04 0.000000e+00
      vertex 1.409539e-03 -5.130302e-04 0.000000e+00
      vertex -1.441893e-03 -4.134560e-04 0.000000e+00
    endloop
  endfacet
  facet normal -0.000000e+00 0.000000e+00 1.000000e+00
    outer loop
      vertex -1.441893e-03 -4.134560e-04 0.000000e+00
      vertex 1.409539e-03 -5.130302e-04 0.000000e+00
      vertex 1.467221e-03 -3.118675e-04 0.000000e+00
    endloop
  endfacet
  facet normal 0.000000e+00 -0.000000e+00 1.000000e+00
    outer loop
      vertex -1.441893e-03 -4.134560e-04 0.000000e+00
      vertex 1.467221e-03 -3.118675e-04 0.000000e+00
      vertex -1.485402e-03 -2.087597e-04 0.000000e+00
    endloop
  endfacet
  facet normal -0.000000e+00 0.000000e+00 1.000000e+00
    outer loop
      vertex -1.485402e-03 -2.087597e-04 0.000000e+00
      vertex 1.467221e-03 -3.118675e-04 0.000000e+00
      vertex 1.496346e-03 -1.046347e-04 0.000000e+00
    endloop
  endfacet
  facet normal 0.000000e+00 -0.000000e+00 1.000000e+00
    outer loop
      vertex -1.485402e-03 -2.087597e-04 0.000000e+00
      vertex 1.496346e-03 -1.046347e-04 0.000000e+00
      vertex -1.500000e-03 -1.836970e-19 0.000000e+00
    endloop
  endfacet
  facet normal -0.000000e+00 0.000000e+00 1.000000e+00
    outer loop
      vertex -1.500000e-03 -1.836970e-19 0.000000e+00
      vertex 1.496346e-03 -1.046347e-04 0.000000e+00
      vertex 1.496346e-03 1.046347e-04 0.000000e+00
    endloop
  endfacet
  facet normal 0.000000e+00 -0.000000e+00 1.000000e+00
    outer loop
      vertex -1.500000e-03 -1.836970e-19 0.000000e+00
      vertex 1.496346e-03 1.046347e-04 0.000000e+00
      vertex -1.485402e-03 2.087597e-04 0.000000e+00
    endloop
  endfacet
  facet normal -0.000000e+00 -0.000000e+00 1.000000e+00
    outer loop
      vertex -1.485402e-03 2.087597e-04 0.000000e+00
      vertex 1.496346e-03 1.046347e-04 0.000000e+00
      vertex 1.467221e-03 3.118675e-04 0.000000e+00
    endloop
  endfacet
  facet normal 0.000000e+00 -0.000000e+00 1.000000e+00
    outer loop
      vertex -1.485402e-03 2.087597e-04 0.000000e+00
      vertex 1.467221e-03 3.118675e-04 0.000000e+00
      vertex -1.441893e-03 4.134560e-04 0.000000e+00
    endloop
  endfacet
  facet normal -0.000000e+00 -0.000000e+00 1.000000e+00
    outer loop
      vertex -1.441893e-03 4.134560e-04 0.000000e+00
      vertex 1.467221e-03 3.118675e-04 0.000000e+00
      vertex 1.409539e-03 5.130302e-04 0.000000e+00
    endloop
  endfacet
  facet normal 0.000000e+00 -0.000000e+00 1.000000e+00
    outer loop
      vertex -1.441893e-03 4.134560e-04 0.000000e+00
      vertex 1.409539e-03 5.130302e-04 0.000000e+00
      vertex -1.370318e-03 6.101050e-04 0.000000e+00
    endloop
  endfacet
  facet normal -0.000000e+00 -0.000000e+00 1.000000e+00
    outer loop
      vertex -1.370318e-03 6.101050e-04 0.000000e+00
      vertex 1.409539e-03 5.130302e-04 0.000000e+00
      vertex 1.324421e-03 7.042074e-04 0.000000e+00
    endloop
  endfacet
  facet normal -0.000000e+00 -0.000000e+00 1.000000e+00
    outer loop
      vertex -1.272072e-03 7.948789e-04 0.000000e+00
      vertex 1.324421e-03 7.042074e-04 0.000000e+00
      vertex 1.213526e-03 8.816779e-04 0.000000e+00
    endloop
  endfacet
  facet normal -7.372769e-01 -6.755907e-01 0.000000e+00
    outer loop
      vertex -1.149067e-03 -9.641814e-04 -3.000000e-02
      vertex -1.060660e-03 -1.060660e-03 -3.000000e-02
      vertex -1.060660e-03 -1.060660e-03 0.000000e+00
    endloop
  endfacet
  facet normal 0.000000e+00 -0.000000e+00 1.000000e+00
    outer loop
      vertex -1.272072e-03 7.948789e-04 0.000000e+00
      vertex 1.213526e-03 8.816779e-04 0.000000e+00
      vertex -1.149067e-03 9.641814e-04 0.000000e+00
    endloop
  endfacet
  facet normal -6.156614e-01 -7.880108e-01 -0.000000e+00
    outer loop
      vertex -8.387893e-04 -1.243556e-03 -3.000000e-02
      vertex -1.003696e-03 -1.114717e-03 0.000000e+00
      vertex -1.003696e-03 -1.114717e-03 -3.000000e-02
    endloop
  endfacet
  facet normal -6.156614e-01 7.880108e-01 0.000000e+00
    outer loop
      vertex -1.003696e-03 1.114717e-03 -3.000000e-02
      vertex -8.387893e-04 1.243556e-03 0.000000e+00
      vertex -8.387893e-04 1.243556e-03 -3.000000e-02
    endloop
  endfacet
  facet normal -4.999998e-01 8.660255e-01 0.000000e+00
    outer loop
      vertex -8.387893e-04 1.243556e-03 -3.000000e-02
      vertex -8.387893e-04 1.243556e-03 0.000000e+00
      vertex -6.575567e-04 1.348191e-03 0.000000e+00
    endloop
  endfacet
  facet normal -4.999998e-01 8.660255e-01 0.000000e+00
    outer loop
      vertex -8.387893e-04 1.243556e-03 -3.000000e-02
      vertex -6.575567e-04 1.348191e-03 0.000000e+00
      vertex -6.575567e-04 1.348191e-03 -3.000000e-02
    endloop
  endfacet
  facet normal -3.746066e-01 9.271839e-01 0.000000e+00
    outer loop
      vertex -6.575567e-04 1.348191e-03 -3.000000e-02
      vertex -6.575567e-04 1.348191e-03 0.000000e+00
      vertex -4.635255e-04 1.426585e-03 0.000000e+00
    endloop
  endfacet
  facet normal -3.746066e-01 9.271839e-01 0.000000e+00
    outer loop
      vertex -6.575567e-04 1.348191e-03 -3.000000e-02
      vertex -4.635255e-04 1.426585e-03 0.000000e+00
      vertex -4.635255e-04 1.426585e-03 -3.000000e-02
    endloop
  endfacet
  facet normal -2.419220e-01 9.702957e-01 0.000000e+00
    outer loop
      vertex -4.635255e-04 1.426585e-03 -3.000000e-02
      vertex -4.635255e-04 1.426585e-03 0.000000e+00
      vertex -2.604723e-04 1.477212e-03 0.000000e+00
    endloop
  endfacet
  facet normal -2.419220e-01 9.702957e-01 0.000000e+00
    outer loop
      vertex -4.635255e-04 1.426585e-03 -3.000000e-02
      vertex -2.604723e-04 1.477212e-03 0.000000e+00
      vertex -2.604723e-04 1.477212e-03 -3.000000e-02
    endloop
  endfacet
  facet normal -1.045287e-01 9.945219e-01 0.000000e+00
    outer loop
      vertex -2.604723e-04 1.477212e-03 -3.000000e-02
      vertex -2.604723e-04 1.477212e-03 0.000000e+00
      vertex -5.234924e-05 1.499086e-03 0.000000e+00
    endloop
  endfacet
  facet normal -6.156614e-01 7.880108e-01 0.000000e+00
    outer loop
      vertex -1.003696e-03 1.114717e-03 -3.000000e-02
      vertex -1.003696e-03 1.114717e-03 0.000000e+00
      vertex -8.387893e-04 1.243556e-03 0.000000e+00
    endloop
  endfacet
  facet normal -1.045287e-01 9.945219e-01 0.000000e+00
    outer loop
      vertex -2.604723e-04 1.477212e-03 -3.000000e-02
      vertex -5.234924e-05 1.499086e-03 0.000000e+00
      vertex -5.234924e-05 1.499086e-03 -3.000000e-02
    endloop
  endfacet
  facet normal 3.489987e-02 9.993908e-01 0.000000e+00
    outer loop
      vertex -5.234924e-05 1.499086e-03 -3.000000e-02
      vertex 1.567927e-04 1.491783e-03 0.000000e+00
      vertex 1.567927e-04 1.491783e-03 -3.000000e-02
    endloop
  endfacet
  facet normal 1.736478e-01 9.848078e-01 -0.000000e+00
    outer loop
      vertex 1.567927e-04 1.491783e-03 -3.000000e-02
      vertex 1.567927e-04 1.491783e-03 0.000000e+00
      vertex 3.628829e-04 1.455444e-03 0.000000e+00
    endloop
  endfacet
  facet normal 1.736478e-01 9.848078e-01 0.000000e+00
    outer loop
      vertex 1.567927e-04 1.491783e-03 -3.000000e-02
      vertex 3.628829e-04 1.455444e-03 0.000000e+00
      vertex 3.628829e-04 1.455444e-03 -3.000000e-02
    endloop
  endfacet
  facet normal 3.090170e-01 9.510565e-01 -0.000000e+00
    outer loop
      vertex 3.628829e-04 1.455444e-03 -3.000000e-02
      vertex 3.628829e-04 1.455444e-03 0.000000e+00
      vertex 5.619099e-04 1.390776e-03 0.000000e+00
    endloop
  endfacet
  facet normal 3.090170e-01 9.510565e-01 0.000000e+00
    outer loop
      vertex 3.628829e-04 1.455444e-03 -3.000000e-02
      vertex 5.619099e-04 1.390776e-03 0.000000e+00
      vertex 5.619099e-04 1.390776e-03 -3.000000e-02
    endloop
  endfacet
  facet normal 4.383715e-01 8.987939e-01 -0.000000e+00
    outer loop
      vertex 5.619099e-04 1.390776e-03 -3.000000e-02
      vertex 5.619099e-04 1.390776e-03 0.000000e+00
      vertex 7.500000e-04 1.299038e-03 0.000000e+00
    endloop
  endfacet
  facet normal 4.383715e-01 8.987939e-01 0.000000e+00
    outer loop
      vertex 5.619099e-04 1.390776e-03 -3.000000e-02
      vertex 7.500000e-04 1.299038e-03 0.000000e+00
      vertex 7.500000e-04 1.299038e-03 -3.000000e-02
    endloop
  endfacet
  facet normal 5.591928e-01 8.290377e-01 -0.000000e+00
    outer loop
      vertex 7.500000e-04 1.299038e-03 -3.000000e-02
      vertex 7.500000e-04 1.299038e-03 0.000000e+00
      vertex 9.234922e-04 1.182016e-03 0.000000e+00
    endloop
  endfacet
  facet normal 3.489987e-02 9.993908e-01 -0.000000e+00
    outer loop
      vertex -5.234924e-05 1.499086e-03 -3.000000e-02
      vertex -5.234924e-05 1.499086e-03 0.000000e+00
      vertex 1.567927e-04 1.491783e-03 0.000000e+00
    endloop
  endfacet
  facet normal -7.193399e-01 6.946583e-01 0.000000e+00
    outer loop
      vertex -1.149067e-03 9.641814e-04 -3.000000e-02
      vertex -1.003696e-03 1.114717e-03 0.000000e+00
      vertex -1.003696e-03 1.114717e-03 -3.000000e-02
    endloop
  endfacet
  facet normal -7.193399e-01 6.946583e-01 0.000000e+00
    outer loop
      vertex -1.149067e-03 9.641814e-04 -3.000000e-02
      vertex -1.149067e-03 9.641814e-04 0.000000e+00
      vertex -1.003696e-03 1.114717e-03 0.000000e+00
    endloop
  endfacet
  facet normal -8.090169e-01 5.877853e-01 0.000000e+00
    outer loop
      vertex -1.272072e-03 7.948789e-04 -3.000000e-02
      vertex -1.149067e-03 9.641814e-04 0.000000e+00
      vertex -1.149067e-03 9.641814e-04 -3.000000e-02
    endloop
  endfacet
  facet normal -6.883556e-01 -7.253734e-01 0.000000e+00
    outer loop
      vertex -1.003696e-03 -1.114717e-03 -3.000000e-02
      vertex -1.003696e-03 -1.114717e-03 0.000000e+00
      vertex -1.060660e-03 -1.060660e-03 -3.000000e-02
    endloop
  endfacet
  facet normal -8.090169e-01 -5.877853e-01 0.000000e+00
    outer loop
      vertex -1.149067e-03 -9.641814e-04 -3.000000e-02
      vertex -1.149067e-03 -9.641814e-04 0.000000e+00
      vertex -1.272072e-03 -7.948789e-04 0.000000e+00
    endloop
  endfacet
  facet normal -8.090169e-01 -5.877853e-01 -0.000000e+00
    outer loop
      vertex -1.149067e-03 -9.641814e-04 -3.000000e-02
      vertex -1.272072e-03 -7.948789e-04 0.000000e+00
      vertex -1.272072e-03 -7.948789e-04 -3.000000e-02
    endloop
  endfacet
  facet normal -8.829477e-01 -4.694713e-01 0.000000e+00
    outer loop
      vertex -1.272072e-03 -7.948789e-04 -3.000000e-02
      vertex -1.272072e-03 -7.948789e-04 0.000000e+00
      vertex -1.370318e-03 -6.101050e-04 0.000000e+00
    endloop
  endfacet
  facet normal -8.829477e-01 -4.694713e-01 -0.000000e+00
    outer loop
      vertex -1.272072e-03 -7.948789e-04 -3.000000e-02
      vertex -1.370318e-03 -6.101050e-04 0.000000e+00
      vertex -1.370318e-03 -6.101050e-04 -3.000000e-02
    endloop
  endfacet
  facet normal -9.396927e-01 -3.420200e-01 0.000000e+00
    outer loop
      vertex -1.370318e-03 -6.101050e-04 -3.000000e-02
      vertex -1.370318e-03 -6.101050e-04 0.000000e+00
      vertex -1.441893e-03 -4.134560e-04 0.000000e+00
    endloop
  endfacet
  facet normal -9.396927e-01 -3.420200e-01 -0.000000e+00
    outer loop
      vertex -1.370318e-03 -6.101050e-04 -3.000000e-02
      vertex -1.441893e-03 -4.134560e-04 0.000000e+00
      vertex -1.441893e-03 -4.134560e-04 -3.000000e-02
    endloop
  endfacet
  facet normal -9.781476e-01 -2.079119e-01 0.000000e+00
    outer loop
      vertex -1.441893e-03 -4.134560e-04 -3.000000e-02
      vertex -1.441893e-03 -4.134560e-04 0.000000e+00
      vertex -1.485402e-03 -2.087597e-04 0.000000e+00
    endloop
  endfacet
  facet normal -9.781476e-01 -2.079119e-01 -0.000000e+00
    outer loop
      vertex -1.441893e-03 -4.134560e-04 -3.000000e-02
      vertex -1.485402e-03 -2.087597e-04 0.000000e+00
      vertex -1.485402e-03 -2.087597e-04 -3.000000e-02
    endloop
  endfacet
  facet normal -9.975641e-01 -6.975645e-02 0.000000e+00
    outer loop
      vertex -1.485402e-03 -2.087597e-04 -3.000000e-02
      vertex -1.485402e-03 -2.087597e-04 0.000000e+00
      vertex -1.500000e-03 -1.836970e-19 0.000000e+00
    endloop
  endfacet
  facet normal -9.975641e-01 -6.975645e-02 -0.000000e+00
    outer loop
      vertex -1.485402e-03 -2.087597e-04 -3.000000e-02
      vertex -1.500000e-03 -1.836970e-19 0.000000e+00
      vertex -1.500000e-03 -1.836970e-19 -3.000000e-02
    endloop
  endfacet
  facet normal -9.975641e-01 6.975645e-02 0.000000e+00
    outer loop
      vertex -1.500000e-03 -1.836970e-19 -3.000000e-02
      vertex -1.485402e-03 2.087597e-04 0.000000e+00
      vertex -1.485402e-03 2.087597e-04 -3.000000e-02
    endloop
  endfacet
  facet normal -9.781476e-01 2.079119e-01 0.000000e+00
    outer loop
      vertex -1.485402e-03 2.087597e-04 -3.000000e-02
      vertex -1.485402e-03 2.087597e-04 0.000000e+00
      vertex -1.441893e-03 4.134560e-04 0.000000e+00
    endloop
  endfacet
  facet normal -9.781476e-01 2.079119e-01 0.000000e+00
    outer loop
      vertex -1.485402e-03 2.087597e-04 -3.000000e-02
      vertex -1.441893e-03 4.134560e-04 0.000000e+00
      vertex -1.441893e-03 4.134560e-04 -3.000000e-02
    endloop
  endfacet
  facet normal -9.396927e-01 3.420200e-01 0.000000e+00
    outer loop
      vertex -1.441893e-03 4.134560e-04 -3.000000e-02
      vertex -1.441893e-03 4.134560e-04 0.000000e+00
      vertex -1.370318e-03 6.101050e-04 0.000000e+00
    endloop
  endfacet
  facet normal -9.396927e-01 3.420200e-01 0.000000e+00
    outer loop
      vertex -1.441893e-03 4.134560e-04 -3.000000e-02
      vertex -1.370318e-03 6.101050e-04 0.000000e+00
      vertex -1.370318e-03 6.101050e-04 -3.000000e-02
    endloop
  endfacet
  facet normal -8.829477e-01 4.694713e-01 0.000000e+00
    outer loop
      vertex -1.370318e-03 6.101050e-04 -3.000000e-02
      vertex -1.370318e-03 6.101050e-04 0.000000e+00
      vertex -1.272072e-03 7.948789e-04 0.000000e+00
    endloop
  endfacet
  facet normal -8.829477e-01 4.694713e-01 0.000000e+00
    outer loop
      vertex -1.370318e-03 6.101050e-04 -3.000000e-02
      vertex -1.272072e-03 7.948789e-04 0.000000e+00
      vertex -1.272072e-03 7.948789e-04 -3.000000e-02
    endloop
  endfacet
  facet normal -8.090169e-01 5.877853e-01 0.000000e+00
    outer loop
      vertex -1.272072e-03 7.948789e-04 -3.000000e-02
      vertex -1.272072e-03 7.948789e-04 0.000000e+00
      vertex -1.149067e-03 9.641814e-04 0.000000e+00
    endloop
  endfacet
  facet normal 5.591928e-01 8.290377e-01 0.000000e+00
    outer loop
      vertex 7.500000e-04 1.299038e-03 -3.000000e-02
      vertex 9.234922e-04 1.182016e-03 0.000000e+00
      vertex 9.234922e-04 1.182016e-03 -3.000000e-02
    endloop
  endfacet
  facet normal 6.691307e-01 7.431447e-01 -0.000000e+00
    outer loop
      vertex 9.234922e-04 1.182016e-03 -3.000000e-02
      vertex 9.234922e-04 1.182016e-03 0.000000e+00
      vertex 1.079010e-03 1.041988e-03 0.000000e+00
    endloop
  endfacet
  facet normal -9.975641e-01 6.975645e-02 0.000000e+00
    outer loop
      vertex -1.500000e-03 -1.836970e-19 -3.000000e-02
      vertex -1.500000e-03 -1.836970e-19 0.000000e+00
      vertex -1.485402e-03 2.087597e-04 0.000000e+00
    endloop
  endfacet
  facet normal 7.660442e-01 6.427879e-01 -0.000000e+00
    outer loop
      vertex 1.079010e-03 1.041988e-03 -3.000000e-02
      vertex 1.079010e-03 1.041988e-03 0.000000e+00
      vertex 1.213526e-03 8.816779e-04 0.000000e+00
    endloop
  endfacet
  facet normal 5.591928e-01 -8.290377e-01 0.000000e+00
    outer loop
      vertex 9.234922e-04 -1.182016e-03 -3.000000e-02
      vertex 9.234922e-04 -1.182016e-03 0.000000e+00
      vertex 7.500000e-04 -1.299038e-03 0.000000e+00
    endloop
  endfacet
  facet normal 5.591928e-01 -8.290377e-01 0.000000e+00
    outer loop
      vertex 9.234922e-04 -1.182016e-03 -3.000000e-02
      vertex 7.500000e-04 -1.299038e-03 0.000000e+00
      vertex 7.500000e-04 -1.299038e-03 -3.000000e-02
    endloop
  endfacet
  facet normal 4.383715e-01 -8.987939e-01 0.000000e+00
    outer loop
      vertex 7.500000e-04 -1.299038e-03 -3.000000e-02
      vertex 7.500000e-04 -1.299038e-03 0.000000e+00
      vertex 5.619099e-04 -1.390776e-03 0.000000e+00
    endloop
  endfacet
  facet normal 4.383715e-01 -8.987939e-01 0.000000e+00
    outer loop
      vertex 7.500000e-04 -1.299038e-03 -3.000000e-02
      vertex 5.619099e-04 -1.390776e-03 0.000000e+00
      vertex 5.619099e-04 -1.390776e-03 -3.000000e-02
    endloop
  endfacet
  facet normal 3.090170e-01 -9.510565e-01 0.000000e+00
    outer loop
      vertex 5.619099e-04 -1.390776e-03 -3.000000e-02
      vertex 5.619099e-04 -1.390776e-03 0.000000e+00
      vertex 3.628829e-04 -1.455444e-03 0.000000e+00
    endloop
  endfacet
  facet normal 3.090170e-01 -9.510565e-01 0.000000e+00
    outer loop
      vertex 5.619099e-04 -1.390776e-03 -3.000000e-02
      vertex 3.628829e-04 -1.455444e-03 0.000000e+00
      vertex 3.628829e-04 -1.455444e-03 -3.000000e-02
    endloop
  endfacet
  facet normal 1.736478e-01 -9.848078e-01 0.000000e+00
    outer loop
      vertex 3.628829e-04 -1.455444e-03 -3.000000e-02
      vertex 3.628829e-04 -1.455444e-03 0.000000e+00
      vertex 1.567927e-04 -1.491783e-03 0.000000e+00
    endloop
  endfacet
  facet normal 1.736478e-01 -9.848078e-01 0.000000e+00
    outer loop
      vertex 3.628829e-04 -1.455444e-03 -3.000000e-02
      vertex 1.567927e-04 -1.491783e-03 0.000000e+00
      vertex 1.567927e-04 -1.491783e-03 -3.000000e-02
    endloop
  endfacet
  facet normal 3.489987e-02 -9.993908e-01 0.000000e+00
    outer loop
      vertex 1.567927e-04 -1.491783e-03 -3.000000e-02
      vertex 1.567927e-04 -1.491783e-03 0.000000e+00
      vertex -5.234924e-05 -1.499086e-03 0.000000e+00
    endloop
  endfacet
  facet normal 3.489987e-02 -9.993908e-01 0.000000e+00
    outer loop
      vertex 1.567927e-04 -1.491783e-03 -3.000000e-02
      vertex -5.234924e-05 -1.499086e-03 0.000000e+00
      vertex -5.234924e-05 -1.499086e-03 -3.000000e-02
    endloop
  endfacet
  facet normal -1.045287e-01 -9.945219e-01 0.000000e+00
    outer loop
      vertex -5.234924e-05 -1.499086e-03 -3.000000e-02
      vertex -5.234924e-05 -1.499086e-03 0.000000e+00
      vertex -2.604723e-04 -1.477212e-03 0.000000e+00
    endloop
  endfacet
  facet normal -1.045287e-01 -9.945219e-01 -0.000000e+00
    outer loop
      vertex -5.234924e-05 -1.499086e-03 -3.000000e-02
      vertex -2.604723e-04 -1.477212e-03 0.000000e+00
      vertex -2.604723e-04 -1.477212e-03 -3.000000e-02
    endloop
  endfacet
  facet normal -2.419220e-01 -9.702957e-01 -0.000000e+00
    outer loop
      vertex -2.604723e-04 -1.477212e-03 -3.000000e-02
      vertex -4.635255e-04 -1.426585e-03 0.000000e+00
      vertex -4.635255e-04 -1.426585e-03 -3.000000e-02
    endloop
  endfacet
  facet normal -3.746066e-01 -9.271839e-01 0.000000e+00
    outer loop
      vertex -4.635255e-04 -1.426585e-03 -3.000000e-02
      vertex -4.635255e-04 -1.426585e-03 0.000000e+00
      vertex -6.575567e-04 -1.348191e-03 0.000000e+00
    endloop
  endfacet
  facet normal -3.746066e-01 -9.271839e-01 -0.000000e+00
    outer loop
      vertex -4.635255e-04 -1.426585e-03 -3.000000e-02
      vertex -6.575567e-04 -1.348191e-03 0.000000e+00
      vertex -6.575567e-04 -1.348191e-03 -3.000000e-02
    endloop
  endfacet
  facet normal -4.999998e-01 -8.660255e-01 0.000000e+00
    outer loop
      vertex -6.575567e-04 -1.348191e-03 -3.000000e-02
      vertex -6.575567e-04 -1.348191e-03 0.000000e+00
      vertex -8.387893e-04 -1.243556e-03 0.000000e+00
    endloop
  endfacet
  facet normal -4.999998e-01 -8.660255e-01 -0.000000e+00
    outer loop
      vertex -6.575567e-04 -1.348191e-03 -3.000000e-02
      vertex -8.387893e-04 -1.243556e-03 0.000000e+00
      vertex -8.387893e-04 -1.243556e-03 -3.000000e-02
    endloop
  endfacet
  facet normal 6.691307e-01 7.431447e-01 0.000000e+00
    outer loop
      vertex 9.234922e-04 1.182016e-03 -3.000000e-02
      vertex 1.079010e-03 1.041988e-03 0.000000e+00
      vertex 1.079010e-03 1.041988e-03 -3.000000e-02
    endloop
  endfacet
  facet normal -6.156614e-01 -7.880108e-01 0.000000e+00
    outer loop
      vertex -8.387893e-04 -1.243556e-03 -3.000000e-02
      vertex -8.387893e-04 -1.243556e-03 0.000000e+00
      vertex -1.003696e-03 -1.114717e-03 0.000000e+00
    endloop
  endfacet
  facet normal 6.691307e-01 -7.431447e-01 0.000000e+00
    outer loop
      vertex 1.079010e-03 -1.041988e-03 -3.000000e-02
      vertex 9.234922e-04 -1.182016e-03 0.000000e+00
      vertex 9.234922e-04 -1.182016e-03 -3.000000e-02
    endloop
  endfacet
  facet normal 6.691307e-01 -7.431447e-01 0.000000e+00
    outer loop
      vertex 1.079010e-03 -1.041988e-03 -3.000000e-02
      vertex 1.079010e-03 -1.041988e-03 0.000000e+00
      vertex 9.234922e-04 -1.182016e-03 0.000000e+00
    endloop
  endfacet
  facet normal -2.419220e-01 -9.702957e-01 0.000000e+00
    outer loop
      vertex -2.604723e-04 -1.477212e-03 -3.000000e-02
      vertex -2.604723e-04 -1.477212e-03 0.000000e+00
      vertex -4.635255e-04 -1.426585e-03 0.000000e+00
    endloop
  endfacet
  facet normal 7.660442e-01 -6.427879e-01 0.000000e+00
    outer loop
      vertex 1.213526e-03 -8.816779e-04 -3.000000e-02
      vertex 1.079010e-03 -1.041988e-03 0.000000e+00
      vertex 1.079010e-03 -1.041988e-03 -3.000000e-02
    endloop
  endfacet
  facet normal 8.480481e-01 5.299192e-01 -0.000000e+00
    outer loop
      vertex 1.213526e-03 8.816779e-04 -3.000000e-02
      vertex 1.213526e-03 8.816779e-04 0.000000e+00
      vertex 1.324421e-03 7.042074e-04 0.000000e+00
    endloop
  endfacet
  facet normal 7.660442e-01 6.427879e-01 0.000000e+00
    outer loop
      vertex 1.079010e-03 1.041988e-03 -3.000000e-02
      vertex 1.213526e-03 8.816779e-04 0.000000e+00
      vertex 1.213526e-03 8.816779e-04 -3.000000e-02
    endloop
  endfacet
  facet normal 8.480481e-01 5.299192e-01 0.000000e+00
    outer loop
      vertex 1.213526e-03 8.816779e-04 -3.000000e-02
      vertex 1.324421e-03 7.042074e-04 0.000000e+00
      vertex 1.324421e-03 7.042074e-04 -3.000000e-02
    endloop
  endfacet
  facet normal 9.135454e-01 4.067368e-01 -0.000000e+00
    outer loop
      vertex 1.324421e-03 7.042074e-04 -3.000000e-02
      vertex 1.324421e-03 7.042074e-04 0.000000e+00
      vertex 1.409539e-03 5.130302e-04 0.000000e+00
    endloop
  endfacet
  facet normal 9.135454e-01 4.067368e-01 0.000000e+00
    outer loop
      vertex 1.324421e-03 7.042074e-04 -3.000000e-02
      vertex 1.409539e-03 5.130302e-04 0.000000e+00
      vertex 1.409539e-03 5.130302e-04 -3.000000e-02
    endloop
  endfacet
  facet normal 9.612618e-01 2.756370e-01 0.000000e+00
    outer loop
      vertex 1.409539e-03 5.130302e-04 -3.000000e-02
      vertex 1.467221e-03 3.118675e-04 0.000000e+00
      vertex 1.467221e-03 3.118675e-04 -3.000000e-02
    endloop
  endfacet
  facet normal 9.902680e-01 1.391734e-01 -0.000000e+00
    outer loop
      vertex 1.467221e-03 3.118675e-04 -3.000000e-02
      vertex 1.467221e-03 3.118675e-04 0.000000e+00
      vertex 1.496346e-03 1.046347e-04 0.000000e+00
    endloop
  endfacet
  facet normal 9.902680e-01 1.391734e-01 0.000000e+00
    outer loop
      vertex 1.467221e-03 3.118675e-04 -3.000000e-02
      vertex 1.496346e-03 1.046347e-04 0.000000e+00
      vertex 1.496346e-03 1.046347e-04 -3.000000e-02
    endloop
  endfacet
  facet normal 1.000000e+00 0.000000e+00 -0.000000e+00
    outer loop
      vertex 1.496346e-03 1.046347e-04 -3.000000e-02
      vertex 1.496346e-03 1.046347e-04 0.000000e+00
      vertex 1.496346e-03 -1.046347e-04 0.000000e+00
    endloop
  endfacet
  facet normal 1.000000e+00 0.000000e+00 0.000000e+00
    outer loop
      vertex 1.496346e-03 1.046347e-04 -3.000000e-02
      vertex 1.496346e-03 -1.046347e-04 0.000000e+00
      vertex 1.496346e-03 -1.046347e-04 -3.000000e-02
    endloop
  endfacet
  facet normal 9.612618e-01 2.756370e-01 -0.000000e+00
    outer loop
      vertex 1.409539e-03 5.130302e-04 -3.000000e-02
      vertex 1.409539e-03 5.130302e-04 0.000000e+00
      vertex 1.467221e-03 3.118675e-04 0.000000e+00
    endloop
  endfacet
  facet normal 9.902680e-01 -1.391734e-01 0.000000e+00
    outer loop
      vertex 1.496346e-03 -1.046347e-04 -3.000000e-02
      vertex 1.496346e-03 -1.046347e-04 0.000000e+00
      vertex 1.467221e-03 -3.118675e-04 0.000000e+00
    endloop
  endfacet
  facet normal 9.902680e-01 -1.391734e-01 0.000000e+00
    outer loop
      vertex 1.496346e-03 -1.046347e-04 -3.000000e-02
      vertex 1.467221e-03 -3.118675e-04 0.000000e+00
      vertex 1.467221e-03 -3.118675e-04 -3.000000e-02
    endloop
  endfacet
  facet normal 9.612618e-01 -2.756370e-01 0.000000e+00
    outer loop
      vertex 1.467221e-03 -3.118675e-04 -3.000000e-02
      vertex 1.467221e-03 -3.118675e-04 0.000000e+00
      vertex 1.409539e-03 -5.130302e-04 0.000000e+00
    endloop
  endfacet
  facet normal 9.612618e-01 -2.756370e-01 0.000000e+00
    outer loop
      vertex 1.467221e-03 -3.118675e-04 -3.000000e-02
      vertex 1.409539e-03 -5.130302e-04 0.000000e+00
      vertex 1.409539e-03 -5.130302e-04 -3.000000e-02
    endloop
  endfacet
  facet normal 7.660442e-01 -6.427879e-01 0.000000e+00
    outer loop
      vertex 1.213526e-03 -8.816779e-04 -3.000000e-02
      vertex 1.213526e-03 -8.816779e-04 0.000000e+00
      vertex 1.079010e-03 -1.041988e-03 0.000000e+00
    endloop
  endfacet
  facet normal 9.135454e-01 -4.067368e-01 0.000000e+00
    outer loop
      vertex 1.409539e-03 -5.130302e-04 -3.000000e-02
      vertex 1.409539e-03 -5.130302e-04 0.000000e+00
      vertex 1.324421e-03 -7.042074e-04 0.000000e+00
    endloop
  endfacet
  facet normal 9.135454e-01 -4.067368e-01 0.000000e+00
    outer loop
      vertex 1.409539e-03 -5.130302e-04 -3.000000e-02
      vertex 1.324421e-03 -7.042074e-04 0.000000e+00
      vertex 1.324421e-03 -7.042074e-04 -3.000000e-02
    endloop
  endfacet
  facet normal 8.480481e-01 -5.299192e-01 0.000000e+00
    outer loop
      vertex 1.324421e-03 -7.042074e-04 -3.000000e-02
      vertex 1.324421e-03 -7.042074e-04 0.000000e+00
      vertex 1.213526e-03 -8.816779e-04 0.000000e+00
    endloop
  endfacet
  facet normal 8.480481e-01 -5.299192e-01 0.000000e+00
    outer loop
      vertex 1.324421e-03 -7.042074e-04 -3.000000e-02
      vertex 1.213526e-03 -8.816779e-04 0.000000e+00
      vertex 1.213526e-03 -8.816779e-04 -3.000000e-02
    endloop
  endfacet
endsolid nerve
