<?xml version='1.0'?>
<!-- patch='artoph_end_front' time='0' index='0' -->
<VTKFile type='PolyData' version='0.1' byte_order='LittleEndian' header_type='UInt64'>
  <PolyData>
    <FieldData>
      <DataArray type='Float32' Name='TimeValue' NumberOfTuples='1' format='ascii'>
0
      </DataArray>
    </FieldData>
    <Piece NumberOfPoints='853' NumberOfPolys='732'>
      <Points>
        <DataArray type='Float32' Name='Points' NumberOfComponents='3' format='ascii'>
-0.00580395 -0.00456188 0.000374099 -0.00574975 -0.00456866 0.000381027 -0.00574983 -0.0045523 0.000427118
-0.0057993 -0.00454963 0.000424251 -0.00586667 -0.00393814 0.000436774 -0.00581226 -0.00393133 0.00044359
-0.00581208 -0.00387532 0.000435111 -0.00586504 -0.00387539 0.000427636 -0.0058618 -0.00395037 0.00048675
-0.00581233 -0.0039477 0.000489618 -0.00605265 -0.00350976 -6.23947e-05 -0.00606143 -0.00350109 -0.000125865
-0.00606866 -0.00356268 -0.000118686 -0.00606039 -0.00356279 -6.23344e-05 -0.00472514 -0.00412497 0.000148919
-0.00472771 -0.00400193 0.00014761 -0.00488199 -0.00400224 0.000232402 -0.00488127 -0.0041249 0.000233968
-0.00462022 -0.00412474 0.000119064 -0.00462131 -0.00399968 0.000120209 -0.00561444 -0.00488141 -0.000253911
-0.00561858 -0.00488135 -0.000187678 -0.005635 -0.00492735 -0.000187848 -0.00563477 -0.00492757 -0.000250083
-0.00556185 -0.00487325 -0.000249519 -0.00556213 -0.00487319 -0.000187529 -0.00587323 -0.00436649 0.000125387
-0.00588231 -0.00437616 6.24237e-05 -0.0058814 -0.00443753 6.88821e-05 -0.00587321 -0.00443729 0.000125197
-0.00487679 -0.00449574 9.51283e-05 -0.00487442 -0.0043969 0.000145307 -0.00496899 -0.00440666 0.000154024
-0.00500202 -0.00449603 0.00013859 -0.00599521 -0.00400034 -3.37983e-07 -0.00598957 -0.0040001 0.000105748
-0.00599007 -0.00393697 0.000124548 -0.00599738 -0.00387903 0.000120315 -0.00599798 -0.00387455 6.23564e-05
-0.00600466 -0.00388172 -4.60856e-07 -0.00594452 -0.00400021 0.000132986 -0.00594678 -0.00394683 0.000136676
-0.00434977 -0.00399999 2.45278e-05 -0.00435265 -0.0038771 2.27642e-05 -0.0045074 -0.00387739 0.000107045
-0.00450725 -0.00399993 0.000108071 -0.0059996 -0.00350223 4.86271e-08 -0.00599934 -0.00349511 -6.29037e-05
-0.00605224 -0.00351017 -1.16862e-08 -0.00605997 -0.00356291 -5.96151e-09 -0.00599218 -0.00412456 -1.47444e-06
-0.00598904 -0.00412476 0.000105262 -0.00598719 -0.0040625 0.000111999 -0.0055331 -0.00403355 0.000465621
-0.00550007 -0.00400032 0.000385339 -0.00556226 -0.00398816 0.000386779 -0.00560794 -0.00398672 0.000386762
-0.00562539 -0.00400041 0.00043651 -0.00560159 -0.00401951 0.000479893 -0.00556455 -0.00402501 0.000474109
-0.00562533 -0.00406356 0.000489474 -0.00561714 -0.00412556 0.00049606 -0.00552562 -0.00412646 0.000473594
-0.00548644 -0.00412613 0.000388299 -0.00548833 -0.00406304 0.000386515 -0.00563629 -0.00405296 0.000446703
-0.00605209 -0.00351041 6.19859e-05 -0.00599955 -0.00350274 6.20574e-05 -0.0060596 -0.00356281 6.19885e-05
-0.0055001 -0.00350888 -1.24939e-06 -0.00562477 -0.00350544 -3.10095e-07 -0.00562041 -0.00351547 0.000105165
-0.00549998 -0.00353554 9.0021e-05 -0.00549974 -0.00360658 0.000143286 -0.00562542 -0.00356338 0.000132318
-0.00560654 -0.00361235 0.000136587 -0.00593741 -0.0035018 3.7511e-08 -0.00593748 -0.00349368 -5.63355e-05
-0.00550011 -0.00347829 -0.000102345 -0.00562494 -0.00348176 -0.000106439 -0.00606204 -0.00349504 -0.000312118
-0.00606856 -0.00349394 -0.000249927 -0.00605245 -0.00344764 -0.000249702 -0.00604972 -0.00345038 -0.000299941
-0.00599953 -0.00344011 -0.000249859 -0.00599916 -0.003446 -0.000311768 -0.00606841 -0.0034941 -0.00018772
-0.00605244 -0.00344771 -0.000187781 -0.00599953 -0.00344011 -0.000187641 -0.0058104 -0.00468721 0.000250063
-0.00580243 -0.00473987 0.000249656 -0.0057993 -0.00473675 0.000299627 -0.00580383 -0.00468648 0.000311476
-0.00574981 -0.00473955 0.000302294 -0.00574982 -0.00469319 0.000318191 -0.0058176 -0.00449957 0.000312174
-0.00582076 -0.00450828 0.000258346 -0.00581899 -0.00456257 0.00025649 -0.00581066 -0.00456256 0.000312636
-0.00581739 -0.00424958 0.00043685 -0.00581054 -0.0043126 0.000437327 -0.00580233 -0.00431249 0.000489739
-0.00580251 -0.00425001 0.000489805 -0.00600826 -0.00375828 8.34576e-06 -0.00600515 -0.00374958 6.21788e-05
-0.00604962 -0.00373744 4.97191e-05 -0.00605414 -0.0037495 -7.00527e-07 -0.00605245 -0.00368725 5.267e-05
-0.00605991 -0.00368732 -3.73441e-07 -0.00600649 -0.00368757 6.89906e-05 -0.00574514 -0.00350265 -4.38749e-06
-0.00581218 -0.00350175 8.48769e-07 -0.00581239 -0.00350247 6.19852e-05 -0.00575042 -0.00350268 6.16568e-05
-0.00598986 -0.0037497 0.000239949 -0.00594379 -0.0037499 0.000256344 -0.00594352 -0.00368792 0.000256203
-0.00598982 -0.00368786 0.000239941 -0.00575073 -0.00400084 0.000491496 -0.00574185 -0.00399184 0.000445667
-0.00575041 -0.00393788 0.000442584 -0.00576256 -0.00395028 0.000487116 -0.00580426 -0.00367946 0.000258261
-0.00581329 -0.0036884 0.000311598 -0.00574988 -0.00369682 0.000303183 -0.00574985 -0.0036812 0.000256369
-0.00580426 -0.00374174 0.000320543 -0.00574985 -0.00374363 0.000318796 -0.00537512 -0.00351116 -2.26051e-06
-0.00537506 -0.00347717 -0.000100889 -0.0050029 -0.00353203 -3.44166e-06 -0.0050004 -0.00348033 -0.000101988
-0.00512506 -0.00347783 -0.000100322 -0.00512746 -0.00351451 -3.70918e-06 -0.00509754 -0.00464937 2.63114e-05
-0.00500173 -0.00463915 -3.29527e-06 -0.00509715 -0.00452637 0.000149433 -0.00512966 -0.0046166 0.000116649
-0.00537523 -0.00360729 0.000143016 -0.0050015 -0.00362891 9.59044e-05 -0.00496949 -0.0035978 2.77035e-05
-0.00512886 -0.00363138 0.000137628 -0.00606023 -0.00374996 -6.26075e-05 -0.00606054 -0.00368751 -6.24517e-05
-0.00560759 -0.00476249 0.000137363 -0.00562548 -0.00481138 0.000124289 -0.00560105 -0.00485521 0.000105464
-0.00556327 -0.0048514 0.000101512 -0.00552866 -0.00484475 9.51109e-05 -0.00550008 -0.0047601 0.00012429
-0.00556231 -0.00476147 0.000136401 -0.00548164 -0.00476603 1.62916e-05 -0.00548765 -0.00476193 6.27914e-05
-0.00549761 -0.00485861 2.04114e-06 -0.00548844 -0.00481166 1.15718e-05 -0.0056363 -0.0048217 7.20404e-05
-0.00562506 -0.00486466 6.14662e-05 -0.00581142 -0.00474896 0.000186681 -0.00581879 -0.0046875 0.00019396
-0.00570004 -0.00473694 0.000299735 -0.00568828 -0.00468655 0.000311592 -0.00568792 -0.0047419 0.000249419
-0.00567921 -0.00469556 0.000258219 -0.00548154 -0.00451133 0.000262621 -0.00549077 -0.00451008 0.000312438
-0.00550796 -0.00456189 0.000311819 -0.00549171 -0.00456305 0.000259302 -0.0055296 -0.00424792 0.000469957
-0.00561733 -0.00424947 0.000496203 -0.00562631 -0.0043116 0.000496667 -0.00561703 -0.00436024 0.00048474
-0.00556703 -0.00434658 0.000470655 -0.00554039 -0.00433525 0.000459551 -0.00550173 -0.00437216 0.000388438
-0.00548202 -0.00424915 0.000392798 -0.0057496 -0.00425 0.000497532 -0.00574959 -0.00431249 0.000497471
-0.00568737 -0.00431235 0.000497601 -0.00568732 -0.00425 0.000497852 -0.00580283 -0.00418758 0.000490047
-0.0058187 -0.00418757 0.000443625 -0.00605413 -0.0036245 6.17988e-05 -0.00606016 -0.00362497 -1.01641e-07
-0.00605196 -0.00356271 0.000114672 -0.0060492 -0.0035133 0.000111825 -0.0059995 -0.00351036 0.000114848
-0.00599905 -0.00356333 0.00012947 -0.00600483 -0.00362469 0.000124523 -0.00604951 -0.00361242 0.000112198
-0.00600825 -0.00363328 7.08438e-05 -0.00550085 -0.00373341 0.000267387 -0.00560652 -0.00373837 0.000261633
-0.0056258 -0.00374343 0.000311698 -0.00561593 -0.00376465 0.000360321 -0.00550275 -0.0037836 0.000341077
-0.00593758 -0.00343945 -0.000250025 -0.00593769 -0.00343943 -0.000187513 -0.00584953 -0.00339486 -0.000143997
-0.00586159 -0.00338878 -0.00018788 -0.00588354 -0.00343088 -0.000187502 -0.00587513 -0.00343882 -0.000125889
-0.00574516 -0.00338502 -0.000246238 -0.00576035 -0.00342791 -0.000260381 -0.00581263 -0.00343037 -0.00025897
-0.00581169 -0.00338834 -0.000238014 -0.00581175 -0.00481174 0.000129728 -0.00575 -0.00481839 0.000130895
-0.0057497 -0.00480265 0.000177653 -0.00579997 -0.00479977 0.00017497 -0.00582033 -0.00475811 0.000133155
-0.0058617 -0.0048617 0.000111826 -0.00586473 -0.00481205 0.000115067 -0.00587229 -0.00481211 6.21188e-05
-0.00586465 -0.00486489 6.20069e-05 -0.00587337 -0.0047501 2.36951e-07 -0.00587289 -0.00481241 1.84445e-08
-0.00587273 -0.00474996 6.23923e-05 -0.00586645 -0.0048741 -6.24886e-07 -0.00586652 -0.00474951 0.0001243
-0.00592425 -0.0049243 -0.000137871 -0.00592705 -0.00492711 -0.000187907 -0.00587452 -0.00493488 -0.00018764
-0.0058741 -0.00492888 -0.000125619 -0.00593478 -0.00487451 -0.000187845 -0.00592738 -0.00487458 -0.000134802
-0.0058124 -0.00493509 -0.000125041 -0.00581229 -0.00493463 -6.3049e-05 -0.00586491 -0.00492711 -6.28865e-05
-0.00575041 -0.00488008 -3.81322e-07 -0.00576256 -0.00492462 -1.27828e-05 -0.00575073 -0.004929 -6.33441e-05
-0.00574185 -0.00488317 -5.43423e-05 -0.00604973 -0.00345056 -0.000137544 -0.0059992 -0.00344607 -0.000125819
-0.00581013 -0.00462484 0.00031217 -0.0058176 -0.00462457 0.000249674 -0.00574971 -0.00462461 0.000372454
-0.00580217 -0.00462461 0.000364849 -0.0057993 -0.00467463 0.00036175 -0.00574981 -0.00467729 0.000364552
-0.00580217 -0.00449961 0.000427349 -0.00581013 -0.00449984 0.00037467 -0.00581066 -0.00443756 0.000375136
-0.00580395 -0.00443688 0.000436598 -0.00581012 -0.00437487 0.000437072 -0.0057993 -0.00442463 0.000486749
-0.00580211 -0.00437459 0.000489551 -0.00593739 -0.00355654 0.000131045 -0.00593714 -0.00357231 0.000177728
-0.005875 -0.00357208 0.000177919 -0.005875 -0.00355637 0.000131135 -0.00593708 -0.00361897 0.000193701
-0.005875 -0.00361868 0.000194004 -0.00496902 -0.00465414 -9.34231e-05 -0.00487445 -0.0046452 -0.000102944
-0.00487675 -0.00459528 -4.08986e-06 -0.00450181 -0.00437039 1.38328e-05 -0.00459671 -0.00440184 2.50898e-05
-0.00462978 -0.00449152 -7.56791e-06 -0.00459413 -0.00452658 -9.45696e-05 -0.00450141 -0.0045159 -0.000107176
-0.00413297 -0.00411856 -3.73009e-05 -0.00409653 -0.00415319 -9.6344e-05 -0.00400171 -0.00412244 -0.000108135
-0.00397821 -0.00399811 -0.000103232 -0.00413225 -0.00399779 -1.81044e-05 -0.00487551 -0.00348235 -0.000105601
-0.00487128 -0.00360368 2.18697e-05 -0.00450436 -0.0034886 -0.000132155 -0.00462726 -0.00348452 -0.000110667
-0.00462717 -0.00361035 1.6142e-05 -0.00450414 -0.00363317 1.16082e-05 -0.00397811 -0.00387685 -0.000103147
-0.00413219 -0.00387725 -1.80105e-05 -0.00437709 -0.0036313 -3.09721e-05 -0.00434474 -0.00359819 -9.75484e-05
-0.0043767 -0.00352951 -0.000127623 -0.00593732 -0.00343991 -0.000312325 -0.00575897 -0.00343037 -0.000312629
-0.00581283 -0.00343899 -0.000312833 -0.00484515 -0.00452651 2.6551e-05 -0.00587279 -0.00437077 0.000245665
-0.00587295 -0.0043125 0.000250482 -0.00587335 -0.00425431 0.000245858 -0.00588203 -0.00424915 0.000186801
-0.00588477 -0.00426437 0.000120632 -0.00587303 -0.00437545 0.000187373 -0.00450741 -0.00412262 0.000106803
-0.00435303 -0.00412283 2.12898e-05 -0.00600647 -0.00381272 6.46651e-06 -0.00599837 -0.00381269 6.26865e-05
-0.00599739 -0.00374986 0.000187028 -0.00599164 -0.00381205 0.00018675 -0.00598712 -0.00379994 0.000237218
-0.00594576 -0.00382078 0.000195846 -0.00594265 -0.00381208 0.000249678 -0.00525092 -0.00375397 0.000239117
-0.00537734 -0.00375522 0.000264341 -0.00534554 -0.00384483 0.000279181 -0.0052492 -0.00385191 0.000272476
-0.00462423 -0.00387537 0.000116852 -0.0059871 -0.00473115 -0.000268908 -0.00594271 -0.00474994 -0.000249987
-0.00594463 -0.00468763 -0.000241032 -0.00598724 -0.00468695 -0.000262724 -0.0061154 -0.00387932 -0.000254682
-0.00607233 -0.00386493 -0.000239367 -0.00607202 -0.00382146 -0.000238065 -0.00611517 -0.00381201 -0.000250158
-0.00608973 -0.00396739 -0.000159529 -0.00609852 -0.00393647 -0.000151006 -0.00610469 -0.0038991 -0.000144917
-0.00611128 -0.00388724 -0.000188778 -0.00609942 -0.00399723 -0.000253957 -0.00601698 -0.00401709 -0.000235021
-0.00601215 -0.00401217 -0.000187384 -0.00601085 -0.00400016 -0.000125032 -0.00606126 -0.00387468 -0.000125691
-0.00606962 -0.0038662 -0.000187319 -0.0060524 -0.00381223 -9.7905e-06 -0.00605988 -0.00381212 -6.28807e-05
-0.0060607 -0.00362502 -6.23005e-05 -0.00562019 -0.00474047 0.000236003 -0.00556212 -0.00473727 0.000237261
-0.00556283 -0.00468662 0.000256801 -0.00562533 -0.00469375 0.0002568 -0.00549348 -0.0046247 0.000253963
-0.00555393 -0.00463283 0.000258978 -0.00550027 -0.0046863 0.000247564 -0.00597676 -0.00424894 -1.50251e-06
-0.00598054 -0.00423133 0.000100042 -0.00598656 -0.00418674 0.000111659 -0.00593648 -0.00424019 0.000124578
-0.00594403 -0.00418695 0.000133542 -0.00568794 -0.00400016 0.000442751 -0.00569999 -0.00401249 0.000487239
-0.00568803 -0.00406297 0.000491702 -0.00567953 -0.00405395 0.000445876 -0.00587063 -0.00350165 -3.87072e-06
-0.00593744 -0.00350246 6.204e-05 -0.00587491 -0.00350246 6.20132e-05 -0.00593752 -0.00351004 0.00011511
-0.005875 -0.00350996 0.000115125 -0.00574543 -0.00351006 0.000110449 -0.00568728 -0.00351297 0.000112052
-0.00575038 -0.00355625 0.000131658 -0.00568754 -0.00355602 0.000133486 -0.00549953 -0.00365663 0.000219046
-0.00561584 -0.00363918 0.00023581 -0.0056258 -0.0036883 0.000256555 -0.00568753 -0.00368154 0.000256052
-0.00568782 -0.00369724 0.000302756 -0.00568753 -0.00374396 0.00031846 -0.00574879 -0.00348639 -0.000111274
-0.00573717 -0.00338791 -0.000311866 -0.0056244 -0.00338365 -0.000251441 -0.00562497 -0.00340829 -0.000157371
-0.00550006 -0.0033863 -0.000253588 -0.00581249 -0.0049353 -0.000187505 -0.00588131 -0.00487482 -0.000118531
-0.0058729 -0.00487464 -6.24097e-05 -0.0058801 -0.00481207 -6.28251e-05 -0.00588326 -0.00482077 -0.000116654
-0.00588149 -0.00475007 -5.60093e-05 -0.00611526 -0.00350983 -0.000250002 -0.00612415 -0.00350841 -0.000313128
-0.00581899 -0.00431257 0.00038149 -0.00582076 -0.00425828 0.000383345 -0.00574995 -0.0036345 0.000240639
-0.00575004 -0.00361884 0.000193731 -0.00581253 -0.00361875 0.00019392 -0.005813 -0.00363312 0.000249544
-0.005875 -0.00362742 0.000249728 -0.00599804 -0.00375001 0.000125048 -0.00599831 -0.0036876 0.000125231
-0.00599745 -0.00368763 0.00018702 -0.00598683 -0.00363779 0.000237164 -0.00599145 -0.00362593 0.000186573
-0.00574992 -0.00375944 0.000365488 -0.00581302 -0.00375052 0.000366871 -0.00581242 -0.00380625 0.000381161
-0.00575014 -0.00380643 0.000381068 -0.0058747 -0.00375046 0.000372352 -0.00587414 -0.00381304 0.000379703
-0.0059273 -0.00381249 0.000365005 -0.00593527 -0.00381251 0.000312152 -0.00593511 -0.00387499 0.000312091
-0.00592746 -0.00387498 0.00036511 -0.00525065 -0.00486162 -0.000376372 -0.00512956 -0.00486056 -0.000378168
-0.00512412 -0.00477242 -0.000226655 -0.00521948 -0.00477993 -0.000218626 -0.00525314 -0.00484087 -0.000254367
-0.00534842 -0.00477679 -9.83113e-05 -0.00537573 -0.00476537 -1.25779e-06 -0.00541327 -0.00483529 -3.79456e-05
-0.00537966 -0.00484433 -0.000129808 -0.00537661 -0.00486246 -0.000252356 -0.00525021 -0.00476874 -0.000124068
-0.0052502 -0.00351207 -2.72082e-06 -0.00525006 -0.00347679 -0.000100347 -0.00537662 -0.00462204 0.000222981
-0.00537571 -0.00451915 0.000268493 -0.00525164 -0.00473801 -4.39843e-06 -0.00513122 -0.00471348 -7.60511e-06
-0.00525149 -0.00464128 0.000141491 -0.00525451 -0.00449358 0.000261826 -0.00513145 -0.00449168 0.000214733
-0.00512887 -0.00437028 0.000262994 -0.00522201 -0.00440286 0.000276764 -0.00499756 -0.00424852 0.000240615
-0.00510317 -0.004248 0.000270721 -0.00500299 -0.00436992 0.000216858 -0.00499716 -0.0040001 0.000243218
-0.00510326 -0.00400174 0.000271901 -0.00510057 -0.00412499 0.00027327 -0.0049956 -0.0041249 0.00024443
-0.00537356 -0.00424991 0.000367438 -0.00537661 -0.00437041 0.000362769 -0.00525694 -0.00436823 0.000339111
-0.00525623 -0.00424802 0.00035865 -0.0053784 -0.0044642 0.000338836 -0.00525545 -0.00412506 0.000360465
-0.00537366 -0.00412491 0.000368325 -0.00512877 -0.00387963 0.000264204 -0.00512779 -0.00375538 0.000217578
-0.00500202 -0.00388024 0.000236657 -0.00499896 -0.00372719 0.000146512 -0.0050942 -0.00371841 0.000154501
-0.00525195 -0.00360961 0.00014172 -0.00550059 -0.00387766 0.000366241 -0.00537758 -0.00387978 0.000343402
-0.00568771 -0.00488025 -6.2709e-05 -0.00568732 -0.00487307 1.72467e-07 -0.00562538 -0.00488014 -0.000125408
-0.00562482 -0.00487327 -6.2324e-05 -0.00567934 -0.00488317 -0.000116853 -0.00562097 -0.00487229 3.58181e-06
-0.00612288 -0.00356288 -0.000249879 -0.00612227 -0.00356294 -0.000187943 -0.00611477 -0.00351002 -0.000187888
-0.00612304 -0.00362501 -0.000249953 -0.00612239 -0.00362486 -0.000187972 -0.00611181 -0.00351284 -0.000137843
-0.00611477 -0.00356289 -0.000135021 -0.00611486 -0.0036247 -0.000135051 -0.00606765 -0.00368708 -0.000125321
-0.00606087 -0.0037501 -0.000124763 -0.006069 -0.00375007 -0.000181011 -0.00607076 -0.00369578 -0.000179154
-0.00611664 -0.00368705 -0.00018825 -0.00611493 -0.00374985 -0.000197429 -0.00612239 -0.00375414 -0.000254587
-0.00612274 -0.00368755 -0.000250196 -0.00611212 -0.00367494 -0.000137782 -0.00582076 -0.00463327 0.000195846
-0.00586194 -0.00473746 0.000174736 -0.00586488 -0.00468727 0.000177665 -0.00587241 -0.00468732 0.000124627
-0.00587273 -0.00462496 0.000124892 -0.00586664 -0.0046245 0.000186799 -0.00587304 -0.00456251 0.000125048
-0.00588015 -0.00456208 6.21786e-05 -0.00587337 -0.0046251 6.27371e-05 -0.0058732 -0.00450002 0.0001252
-0.00588136 -0.00449989 6.88478e-05 -0.00588149 -0.00462507 6.49077e-06 -0.00588327 -0.00457077 8.3457e-06
-0.00587304 -0.00468751 6.25485e-05 -0.00588015 -0.00468708 -3.21095e-07 -0.00586664 -0.0044995 0.000249299
-0.00587266 -0.00449997 0.000187398 -0.00587241 -0.00456232 0.000187127 -0.00586495 -0.00456225 0.00024017
-0.00586212 -0.00461244 0.000237219 -0.00568822 -0.00462421 0.000366652 -0.00568801 -0.00456195 0.000379853
-0.0056375 -0.0046125 0.000362354 -0.00567938 -0.00463306 0.000320447 -0.00562541 -0.0046245 0.000317405
-0.00561672 -0.00457083 0.000320713 -0.00562539 -0.0045619 0.000367001 -0.00562186 -0.00449622 0.000380093
-0.00567926 -0.00450805 0.000383094 -0.00587273 -0.00425005 0.000312307 -0.00587304 -0.00418757 0.000312491
-0.00588015 -0.00418716 0.000249549 -0.00586664 -0.0042495 0.000374299 -0.00587241 -0.00418732 0.000374626
-0.00587273 -0.00412496 0.000374892 -0.00587337 -0.0041251 0.000312737 -0.00588149 -0.00412507 0.000256491
-0.00586461 -0.00400041 0.00048955 -0.00587262 -0.00400015 0.000437071 -0.00587246 -0.00406235 0.000437014
-0.00586457 -0.0040622 0.000489572 -0.00588009 -0.00399959 0.000374619 -0.00587321 -0.00406259 0.000375087
-0.00586188 -0.00411243 0.000486878 -0.00586661 -0.0041245 0.000436746 -0.00582054 -0.00413326 0.000445544
-0.00581175 -0.0041245 0.000491605 -0.00588317 -0.00400815 0.000320658 -0.00588027 -0.00406223 0.000312301
-0.00588327 -0.00407078 0.000258345 -0.00586212 -0.00423744 0.000424718 -0.00586494 -0.00418725 0.000427669
-0.0038799 -0.00436637 -0.000257987 -0.00384428 -0.00440143 -0.000344845 -0.00375144 -0.00439097 -0.000357228
-0.00375375 -0.00424274 -0.000238117 -0.00384708 -0.00427635 -0.000225916 -0.00437553 -0.00335733 -0.000355652
-0.0045004 -0.00335558 -0.000352241 -0.00450278 -0.00340653 -0.000252495 -0.0044689 -0.00347065 -0.000217739
-0.00437171 -0.0034767 -0.000223262 -0.0042501 -0.00348083 -0.000229062 -0.00424998 -0.0033579 -0.00035783
-0.00475608 -0.00436636 0.00013536 -0.00472857 -0.00424775 0.000145401 -0.00487992 -0.00424646 0.00023489
-0.00475106 -0.00451646 1.658e-05 -0.0048825 -0.00388249 0.000212932 -0.00484637 -0.00384668 0.000154049
-0.00487726 -0.00375537 0.000139852 -0.0047512 -0.0038775 0.000143468 -0.00447144 -0.00372173 2.78934e-05
-0.00450662 -0.00375679 8.97356e-05 -0.00437675 -0.00375367 1.57341e-05 -0.00449888 -0.00464784 -0.000351054
-0.00450147 -0.0046138 -0.000252487 -0.00462522 -0.00464245 -0.000249944 -0.00459387 -0.0046553 -0.000343077
-0.00475449 -0.00463685 -0.000131488 -0.00487736 -0.00473473 -0.000256169 -0.00475671 -0.00471134 -0.000258557
-0.00472123 -0.00465267 -0.000221165 -0.00462723 -0.00459199 -0.000130564 -0.0042516 -0.00437024 -0.000111157
-0.00422094 -0.00427884 -9.67816e-05 -0.00425655 -0.00424266 -3.48013e-05 -0.00437876 -0.00424532 1.36142e-05
-0.00438109 -0.00436696 -3.45321e-05 -0.00434673 -0.0044017 -0.000100017 -0.00412676 -0.00436909 -0.000155853
-0.00412489 -0.00424903 -0.00010773 -0.00424517 -0.00399975 -6.03045e-06 -0.00424942 -0.00412217 -1.12948e-05
-0.00363153 -0.00424098 -0.000286935 -0.00362428 -0.00412345 -0.000259245 -0.00372641 -0.00412579 -0.000227479
-0.00350723 -0.00399758 -0.000265371 -0.00362595 -0.00399773 -0.000233113 -0.00350858 -0.0041181 -0.000287273
-0.00371851 -0.00403054 -0.000219919 -0.00388 -0.00412222 -0.000139485 -0.00388343 -0.00424172 -0.000164047
-0.00375566 -0.00399729 -0.000159652 -0.00387369 -0.00399956 -0.000134445 -0.00475013 -0.00348316 -0.00010799
-0.00474977 -0.00360715 1.81701e-05 -0.00424671 -0.00387517 -6.67926e-06 -0.00400153 -0.00375269 -0.000108027
-0.0040964 -0.00372186 -9.62461e-05 -0.00413243 -0.00375762 -3.71069e-05 -0.00425216 -0.0037561 -1.4533e-05
-0.00400225 -0.00348547 -0.000234168 -0.0041251 -0.00348251 -0.000232051 -0.00412728 -0.0036326 -0.000111533
-0.00400113 -0.00363153 -0.000137692 -0.00350543 -0.00387498 -0.000262113 -0.00360612 -0.00387497 -0.000229978
-0.00350681 -0.00375229 -0.000264739 -0.00362685 -0.0037522 -0.000233116 -0.00375202 -0.00350596 -0.000280808
-0.0038792 -0.00350822 -0.000238787 -0.0038465 -0.00359669 -0.000222897 -0.00375006 -0.00362606 -0.00023292
-0.00372126 -0.00372143 -0.000221006 -0.00362657 -0.00362934 -0.000261546 -0.00350783 -0.00363283 -0.000286705
-0.00362369 -0.00348211 -0.000355506 -0.00372 -0.00347335 -0.000347882 -0.00387713 -0.00375298 -0.000138279
-0.00387223 -0.00387489 -0.000133168 -0.00375698 -0.00387508 -0.000143095 -0.00375707 -0.00375552 -0.000160464
-0.00388166 -0.00363358 -0.000162178 -0.00487524 -0.00338787 -0.000254864 -0.00500007 -0.00338963 -0.000257661
-0.0046272 -0.00338846 -0.000253398 -0.00400201 -0.00335853 -0.000359671 -0.00412514 -0.00335803 -0.000358025
-0.00463163 -0.0043659 8.81638e-05 -0.00462463 -0.00424704 0.000113313 -0.00447176 -0.00427797 2.73191e-05
-0.00450813 -0.00424342 8.74207e-05 -0.00462727 -0.00375775 0.000108088 -0.00592763 -0.00449973 5.2541e-05
-0.00592473 -0.00454994 4.97145e-05 -0.00592935 -0.00456207 -6.74417e-07 -0.00587578 -0.00349288 -6.28049e-05
-0.00593757 -0.00344001 -0.000125505 -0.00598744 -0.00345038 -7.52829e-05 -0.00593751 -0.00344772 -7.27282e-05
-0.00592913 -0.004812 -0.000125701 -0.00593523 -0.00481247 -0.000187602 -0.00586212 -0.00436244 0.000362219
-0.00586664 -0.00437443 0.000311728 -0.00582076 -0.00438327 0.00032084 -0.0058176 -0.00437457 0.000374674
-0.00586495 -0.00431225 0.00036517 -0.00587241 -0.00431232 0.000312082 -0.00581899 -0.00443757 0.00031899
-0.00586495 -0.00443719 0.00030261 -0.00586212 -0.00448744 0.000299719 -0.00587241 -0.00443724 0.000249539
-0.00581242 -0.00350995 0.000115043 -0.00581246 -0.00355635 0.000131102 -0.00581251 -0.00357208 0.000177927
-0.00592736 -0.0039372 0.000364949 -0.00593489 -0.00393736 0.000312028 -0.00592462 -0.00398744 0.000362218
-0.005929 -0.00399927 0.000311656 -0.00586214 -0.00382536 0.000424496 -0.0058121 -0.00382252 0.000427339
-0.00587492 -0.00363543 0.000302259 -0.00582504 -0.00363806 0.000299735 -0.00582504 -0.00370027 0.000361938
-0.00587481 -0.00369771 0.000364552 -0.00568834 -0.004929 -0.000125732 -0.00569999 -0.00492474 -7.49861e-05
-0.00556226 -0.00487309 -0.000124988 -0.00556235 -0.00487279 -6.24762e-05 -0.0055626 -0.00487198 -1.30636e-06
-0.00550103 -0.00487176 -6.30637e-05 -0.00549162 -0.00487143 -0.000125493 -0.00568797 -0.00493489 -0.000187641
-0.00563778 -0.00492462 -0.000137559 -0.00549505 -0.00487161 -0.000254752 -0.00550035 -0.00487245 -0.000187649
-0.00568813 -0.00481742 0.000124362 -0.0056878 -0.00480272 0.000177507 -0.00570006 -0.00486212 0.000112218
-0.00568806 -0.00486675 6.19964e-05 -0.00567954 -0.00482087 7.10478e-05 -0.00570004 -0.00467473 0.000361938
-0.00551261 -0.00454949 0.000361767 -0.00556273 -0.00455255 0.000364938 -0.00556273 -0.00456885 0.000318674
-0.00549678 -0.00449161 0.000362758 -0.00556229 -0.00450013 0.000372744 -0.00556314 -0.00462438 0.000304442
-0.00551244 -0.0046125 0.000300026 -0.00570006 -0.00454972 0.000424616 -0.00568827 -0.0044992 0.000429176
-0.00570006 -0.00442472 0.000487115 -0.00568823 -0.00443705 0.000442278 -0.00567921 -0.00438328 0.000445482
-0.00568784 -0.00437424 0.000491512 -0.00574969 -0.00437449 0.000497112 -0.00574983 -0.0044273 0.000489618
-0.00563457 -0.00443752 0.00042799 -0.00562587 -0.00438184 0.000436827 -0.00592474 -0.00405001 0.000300014
-0.00592915 -0.00406197 0.000249381 -0.00568779 -0.00381322 0.000379845 -0.0056873 -0.00375989 0.000365143
-0.00561808 -0.00387597 0.000379204 -0.00562525 -0.0038133 0.000372535 -0.00567893 -0.00386611 0.000383905
-0.00568824 -0.0038758 0.000429037 -0.00568778 -0.00393758 0.000435395 -0.0056346 -0.00393771 0.000427823
-0.00563751 -0.00388753 0.00042464 -0.00587479 -0.00343245 -0.000249791 -0.00587503 -0.00343945 -0.000312582
-0.0058728 -0.00443739 0.000187438 -0.00599774 -0.00381255 0.000124803 -0.00598993 -0.00387485 0.000177571
-0.00588326 -0.00469577 -5.41542e-05 -0.00606065 -0.00381234 -0.00012494 -0.00605271 -0.00386542 -6.28106e-05
-0.0060495 -0.00386239 -1.28312e-05 -0.0061121 -0.00379999 -0.000200255 -0.00606785 -0.00381185 -0.00018769
-0.00588322 -0.00419568 0.00019561 -0.00568728 -0.00363474 0.000240265 -0.00568753 -0.00361895 0.000193462
-0.0056258 -0.00361842 0.000186718 -0.00592776 -0.00443785 5.27509e-05 -0.00593516 -0.00462485 -6.27863e-05
-0.00593581 -0.0045628 -6.22676e-05 -0.00594463 -0.00456263 -0.000116034 -0.0059425 -0.00462479 -0.000125215
-0.00570006 -0.00382527 0.000424632 -0.00593541 -0.00468755 -0.000125071 -0.0059292 -0.004687 -6.32016e-05
-0.00594463 -0.00463397 -0.000187372 -0.00593601 -0.00468783 -0.000187168 -0.00593528 -0.00412482 0.00018748
-0.00593553 -0.00406247 0.000187754 -0.00594455 -0.0040625 0.00013392 -0.00594428 -0.004125 0.000132782
-0.00592932 -0.0041867 0.000186919 -0.00563741 -0.00357492 0.000175131 -0.00568783 -0.00357223 0.00017783
-0.00563743 -0.00369994 0.000300061 -0.00594388 -0.00443741 8.29377e-06 -0.00594216 -0.00449967 -5.96662e-07
-0.00594456 -0.00450896 -6.2376e-05 -0.00600923 -0.00388319 -6.22246e-05 -0.00601279 -0.00389258 -0.000112223
-0.00601181 -0.00393773 -0.000113171 -0.0056066 -0.00438668 0.000386818 -0.00561685 -0.00443768 0.000384169
-0.00563767 -0.00448734 0.000424769 -0.00561569 -0.00393722 0.000385373 -0.00575 -0.00493536 -0.000312499
-0.00575 -0.00493536 -0.00025 -0.0058125 -0.00493536 -0.00025 -0.0058125 -0.00493536 -0.0003125
-0.00599003 -0.00474974 -0.000313358 -0.00594674 -0.00476163 -0.000303157 -0.00594401 -0.00481266 -0.000305979
-0.00593588 -0.00481264 -0.000249732 -0.00581219 -0.00400051 0.000497111 -0.00581233 -0.00492712 -1.02001e-05
-0.00575001 -0.0049353 -0.000187505 -0.00593555 -0.00475003 -0.000187418 -0.0057498 -0.00474747 0.000249654
-0.00574971 -0.00449961 0.000434955 -0.00593554 -0.00393751 0.000250048 -0.00593509 -0.00399982 0.000249821
-0.00593521 -0.00375016 0.000312218 -0.00592907 -0.00368849 0.000311646 -0.00581203 -0.00406237 0.000497321
-0.00575017 -0.00406267 0.000497448 -0.00574969 -0.00418746 0.000497556 -0.00598676 -0.00448092 -1.92813e-05
-0.00598673 -0.00443674 -1.32103e-05 -0.0059847 -0.00437029 -1.92483e-05 -0.00599243 -0.00437416 -0.000126249
-0.00599059 -0.00449529 -0.000129825 -0.00598702 -0.00448724 -6.32676e-05 -0.00599432 -0.00412552 -0.000124589
-0.00537481 -0.00338862 -0.00025511 -0.00512483 -0.00339205 -0.000258337 -0.00537496 -0.004001 0.000365806
-0.0058618 -0.00492425 -1.2872e-05 -0.0056879 -0.00493504 -0.000250005 -0.00600806 -0.00349208 -0.000116886
-0.00574982 -0.0047561 0.000193819 -0.00568761 -0.00475621 0.000193725 -0.00549623 -0.00473412 0.000229476
-0.00562579 -0.00475676 0.000186751 -0.00563745 -0.00480009 0.000174743 -0.00574975 -0.00444366 0.000443526
-0.00588098 -0.00387514 0.000381136 -0.00588115 -0.00393742 0.000381256 -0.00562595 -0.00418749 0.00049719
-0.00568733 -0.0041875 0.00049785 -0.00592733 -0.00492724 -0.000250011 -0.00592772 -0.00492739 -0.000312435
-0.0058747 -0.00493505 -0.000312537 -0.00587459 -0.00493503 -0.000250001 -0.00593527 -0.0048746 -0.00024995
-0.00594239 -0.00487428 -0.00031288 -0.00574891 -0.00340162 -0.000150504 -0.00581068 -0.00339922 -0.000147878
-0.00585728 -0.00348714 -0.000112158 -0.00581184 -0.00348795 -0.000112771 -0.00588743 -0.00345003 -7.52478e-05
-0.00585568 -0.0033886 -0.000231691 -0.005812 -0.00486464 0.000114848 -0.00575032 -0.00486478 0.000114933
-0.00581207 -0.0048726 6.21793e-05 -0.00575013 -0.00487263 6.20822e-05 -0.00581225 -0.00488109 6.16883e-06
-0.00575017 -0.00493501 -0.000125174 -0.00613108 -0.00356274 -0.000306329 -0.00613015 -0.00362458 -0.000312822
-0.0059872 -0.00357535 0.000174794 -0.00593653 -0.00363346 0.000249231 -0.00575013 -0.00387542 0.000435129
-0.00592471 -0.00363817 0.000299663 -0.0059243 -0.00370037 0.00036175 -0.0059271 -0.00375042 0.000364631
-0.00587483 -0.00368181 0.000318195 -0.0057499 -0.00412497 0.000497596 -0.00437962 -0.0044913 -0.000133412
-0.00438209 -0.00458799 -0.000258269 -0.00434671 -0.00452498 -0.000222949 -0.00537665 -0.00472273 0.000120945
-0.00534742 -0.00465025 0.000150111 -0.00589845 -0.00427384 2.40092e-05 -0.00588841 -0.00435725 1.24142e-05
-0.00593682 -0.00437565 7.64141e-06 -0.00592509 -0.00438741 5.01345e-05 -0.00592511 -0.00423737 0.000174942
-0.00593585 -0.00400009 0.000187897 -0.00594266 -0.0039371 0.000187262 -0.00599331 -0.00449899 -0.000250742
-0.00599074 -0.00462024 -0.000254634 -0.00598709 -0.00461217 -0.000188139 -0.00598683 -0.00460585 -0.000144151
-0.00598709 -0.00456186 -0.000137829 -0.00563471 -0.0049276 -0.00031255 -0.00561686 -0.00488383 -0.000312575
-0.0056879 -0.00493504 -0.000312499 -0.00606885 -0.00362489 -0.00011865 -0.0059871 -0.00392499 0.000174744
-0.00593587 -0.0038751 0.000250236 -0.0051261 -0.00474113 -0.000124142 -0.00500337 -0.00471714 -0.000129365
-0.00500404 -0.00476369 -0.000254893 -0.00599626 -0.0042512 -0.000247066 -0.00601731 -0.00412419 -0.000250042
-0.0060285 -0.00415388 -0.000345434 -0.00602303 -0.00425088 -0.000351846 -0.00599364 -0.00437494 -0.000249588
-0.00599107 -0.00424964 -0.00012564 -0.00524975 -0.00339167 -0.000256862 -0.00525452 -0.00400319 0.000360956
-0.00474854 -0.00375615 0.000114861 -0.00412652 -0.0044707 -0.000253749 -0.00412416 -0.00452082 -0.000352471
-0.00400445 -0.00451196 -0.000381477 -0.00400104 -0.00439142 -0.000233777 -0.00409493 -0.00440158 -0.000223243
-0.00425169 -0.00451438 -0.000253329 -0.00421849 -0.00453002 -0.000342726 -0.00400185 -0.00424487 -0.00013789
-0.00424875 -0.00360739 -0.000105755 -0.00475015 -0.00338731 -0.00025314 -0.00592745 -0.00462475 -9.82947e-06
-0.00592462 -0.00479994 -7.52809e-05 -0.00592745 -0.00474975 -7.23299e-05 -0.00593491 -0.00474982 -0.000125373
-0.00612337 -0.00368764 -0.000312267 -0.006123 -0.00374963 -0.000312446 -0.00575002 -0.00357207 0.000177961
-0.0057503 -0.00382255 0.000427359 -0.00592462 -0.00467494 -1.27808e-05 -0.00562518 -0.00467777 0.000302923
-0.00592745 -0.00412475 0.000240171 -0.00592462 -0.00417494 0.000237219 -0.00568731 -0.00412501 0.000497651
-0.005944 -0.00387507 0.000193989 -0.00594712 -0.00451035 -0.000114654 -0.00557508 -0.0046747 0.000299813
-0.00594713 -0.00463534 -0.000239651
        </DataArray>
      </Points>
      <Polys>
        <DataArray type='Int32' Name='connectivity' format='ascii'>
0 1 2 3 4 5 6 7 4
8 9 5 10 11 12 13 14 15
16 17 14 18 19 15 20 21 22
23 20 24 25 21 26 27 28 29
30 31 32 33 34 35 36 37 38
39 35 40 41 36 42 43 44 45
46 47 10 48 10 13 49 48 34
50 51 52 35 53 54 55 56 57
58 59 53 59 58 60 61 62 53
62 63 64 54 58 57 65 60 46
48 66 67 66 48 49 68 69 70
71 72 73 72 71 74 75 46 76
77 47 69 78 79 70 80 81 82
83 82 84 85 83 82 81 86 87
88 84 82 87 89 90 91 92 91
93 94 92 95 96 97 98 99 100
101 102 103 104 105 106 105 107 108
106 109 107 105 104 110 111 112 113
114 115 116 117 118 119 120 121 9
121 120 5 122 123 124 125 124 123
126 127 69 128 129 78 130 131 132
133 134 135 33 136 137 72 73 138
128 69 139 140 130 133 141 142 106
108 143 144 145 146 147 148 149 150
151 152 149 148 153 154 146 145 155
156 157 90 89 158 94 93 159 160
159 161 162 160 163 164 165 166 167
168 169 170 171 172 167 172 173 174
175 176 177 178 99 102 179 180 181
68 49 182 183 184 66 68 185 67
66 184 185 184 183 186 187 186 183
188 187 188 181 189 190 191 192 193
194 195 84 88 196 197 198 199 200
201 202 203 204 205 206 207 208 205
208 157 209 210 211 212 213 214 215
212 216 217 213 212 215 218 216 212
211 219 220 221 222 223 220 219 224
225 226 227 222 228 229 230 231 232
233 88 87 86 11 232 87 234 235
89 92 236 237 238 239 240 241 0
3 242 241 240 243 244 243 245 246
247 248 249 250 249 248 251 252 253
254 255 135 256 257 258 259 260 261
262 263 264 265 266 131 130 140 267
268 269 270 271 264 272 273 265 271
274 275 276 268 85 84 195 277 203
202 278 279 135 255 280 30 33 281
282 283 284 285 26 286 287 45 19
18 288 42 45 287 103 289 290 104
114 291 292 293 292 294 295 293 296
297 298 299 19 45 44 300 301 302
303 304 305 306 307 308 309 310 311
312 305 313 314 315 316 309 313 311
317 318 312 103 106 319 289 142 320
319 106 321 182 49 13 322 323 324
325 326 327 324 328 329 330 331 51
50 330 332 333 331 167 174 63 62
334 335 336 337 338 76 339 340 185
341 339 67 342 340 339 341 110 113
343 344 71 70 343 345 346 344 190
347 348 349 191 350 125 124 351 124
127 352 351 110 70 79 353 201 354
278 202 355 356 79 78 357 225 222
221 358 359 360 361 362 214 363 361
215 217 215 361 360 364 81 80 365
97 235 234 98 0 241 95 98 366
100 99 367 244 246 101 100 368 369
370 371 368 371 122 125 372 371 370
252 373 374 109 104 187 189 109 374
373 291 375 374 376 377 375 117 187
374 375 377 378 379 380 381 378 127
126 379 382 383 380 379 384 385 386
387 388 389 390 391 392 393 394 395
396 396 397 392 391 398 393 399 400
129 128 399 133 132 400 163 166 326
401 402 403 404 134 137 405 406 407
408 409 410 411 408 412 413 414 415
416 410 416 415 411 417 418 419 420
406 409 419 418 421 402 419 409 408
411 420 422 423 417 420 415 422 420
411 296 299 424 425 413 426 424 414
427 428 425 424 426 429 138 297 296
399 128 138 429 428 141 429 296 425
139 141 428 427 429 141 133 399 190
194 430 431 298 297 228 231 432 433
434 435 432 436 437 433 432 435 364
438 439 440 441 442 439 438 443 440
439 444 445 444 439 442 321 143 108
182 446 447 142 143 448 449 450 451
452 451 450 453 441 453 450 442 450
449 446 454 445 442 450 454 448 447
446 449 89 235 455 158 218 456 457
458 459 458 457 460 459 461 462 463
464 465 462 461 466 463 462 467 214
216 468 469 218 458 468 216 459 463
468 458 466 469 468 463 470 471 472
473 474 473 472 460 459 460 472 461
464 461 472 471 236 475 476 1 477
475 478 479 477 479 480 481 477 481
476 475 482 483 476 481 283 484 485
486 487 488 485 484 489 490 485 488
491 486 485 490 492 493 494 495 496
497 494 493 498 499 500 501 498 495
494 499 489 499 494 497 496 502 503
497 489 497 503 490 491 490 503 504
179 501 500 180 487 505 506 488 489
488 506 499 507 508 509 510 511 512
513 514 515 516 517 518 512 516 31
519 520 521 519 31 30 280 522 413
16 523 426 523 524 525 427 426 15
526 524 523 16 527 528 44 43 529
530 531 532 533 534 254 535 536 537
255 254 534 522 280 534 538 259 258
522 539 540 541 542 543 544 539 545
546 540 547 42 288 548 541 548 288
542 547 548 261 265 510 549 550 551
552 553 550 554 555 551 550 553 510
551 556 557 511 555 558 559 556 551
560 266 267 561 269 560 561 270 547
265 273 562 563 564 565 273 272 566
562 273 565 515 268 276 516 527 529
274 271 567 568 569 570 552 571 572
553 573 574 572 571 575 576 577 578
579 574 580 578 573 581 580 574 575
578 580 582 583 584 585 586 587 579
587 586 572 574 577 588 584 587 579
578 589 590 131 266 591 269 268 515
514 592 593 568 567 522 258 257 594
519 595 594 257 256 596 597 413 416
17 16 410 521 17 416 520 14 17
521 287 18 595 597 542 288 287 597
596 526 15 19 300 598 300 44 528
462 465 599 600 462 600 601 467 338
602 77 76 603 233 604 605 223 224
606 607 608 609 610 611 608 612 613
609 283 282 613 484 281 609 613 282
487 484 613 612 95 614 615 616 470
616 615 617 95 241 242 614 281 617
615 609 181 182 108 107 109 189 181
107 338 340 112 111 343 618 619 345
343 113 112 618 342 250 619 618 342
618 112 340 249 620 619 250 249 252
370 620 621 387 386 622 496 623 624
502 625 7 6 626 380 383 625 626
372 627 628 371 382 379 629 630 631
436 432 632 434 633 634 435 153 635
634 636 637 636 634 633 437 435 634
635 631 638 22 639 434 639 22 21
434 21 25 633 640 641 25 24 637
633 25 641 207 206 642 643 642 644
645 646 478 475 647 160 236 239 647
475 165 648 649 650 651 652 649 648
165 650 653 654 326 654 653 327 482
481 649 652 2 1 476 655 476 483
656 655 657 658 659 660 661 662 657
660 659 658 663 664 661 660 177 176
168 178 177 169 170 169 177 660 503
502 624 665 666 504 503 665 378 381
667 668 378 668 352 127 669 670 667
671 193 668 667 670 193 192 352 668
672 673 674 675 669 671 672 675 88
233 603 196 195 196 199 676 677 277
195 676 464 29 28 465 470 617 678
471 281 286 678 617 464 471 678 29
26 29 678 286 373 104 290 679 39
38 290 289 37 679 290 38 373 679
292 291 37 680 292 679 214 469 681
363 142 447 682 320 319 320 683 684
39 289 319 684 685 686 448 451 307
686 685 308 452 308 685 451 448 686
682 447 318 686 307 306 283 486 687
284 368 688 689 369 368 125 350 688
348 690 689 688 348 688 350 349 599
465 28 691 692 693 694 695 672 671
667 696 677 676 203 279 697 698 692
695 699 700 697 695 701 702 703 704
333 705 701 704 689 690 706 707 346
707 706 74 352 192 708 351 708 349
350 351 709 710 599 691 46 67 339
76 601 710 711 693 34 39 712 713
714 316 713 317 311 310 309 316 714
39 684 683 712 713 712 683 317 148
147 146 156 437 635 153 601 600 599
710 173 715 716 482 652 651 170 664
715 173 172 171 715 664 663 716 482
716 663 717 430 669 718 56 55 54
669 675 674 718 56 718 674 57 719
720 721 722 301 723 724 302 724 725
726 302 77 605 604 47 175 102 101
176 118 121 9 727 728 226 230 229
729 358 721 720 726 607 730 302 731
93 91 90 240 3 2 732 114 117
375 291 624 622 733 734 114 293 295
115 295 385 735 115 735 736 116 115
118 727 737 738 175 739 179 102 740
741 742 743 744 745 34 316 746 50
129 747 357 78 132 131 590 748 421
418 173 651 63 423 749 54 64 749
431 430 54 359 224 219 222 359 222
227 360 217 360 227 750 729 720 751
638 752 233 232 11 752 11 10 47
752 47 604 233 731 753 754 161 207
643 754 753 755 323 322 756 144 150
149 144 756 757 145 731 161 159 93
656 732 2 655 755 328 324 323 656
658 758 732 657 662 758 658 666 665
624 734 181 188 183 68 759 760 4
7 759 387 621 760 492 8 4 493
496 493 4 760 496 760 621 623 118
335 334 119 334 673 120 119 193 670
669 430 194 167 62 61 761 168 118
738 336 335 175 178 762 739 763 764
765 766 763 767 768 764 769 770 197
200 771 772 353 110 353 772 771 602
338 111 771 200 773 602 769 201 204
774 198 197 770 210 775 205 211 776
206 205 775 218 211 205 209 218 209
157 456 210 213 777 775 228 778 777
779 228 779 728 229 776 775 777 778
661 246 245 662 661 176 101 246 492
727 9 8 221 220 763 766 223 767
763 220 227 226 728 750 225 780 230
226 364 365 781 438 441 438 781 782
364 440 86 81 443 11 86 440 238
237 234 92 238 92 94 239 244 611
242 243 187 377 783 186 247 186 783
248 185 186 247 341 342 341 247 250
372 252 251 784 6 5 120 785 372
784 786 627 382 630 787 788 789 627
786 736 789 736 787 630 735 788 787
736 492 495 737 727 790 738 737 501
498 501 737 495 790 501 179 739 259
538 532 531 260 260 791 544 543 256
791 260 531 792 793 263 556 559 264
559 585 272 264 570 588 577 576 567
151 394 794 149 152 755 149 794 795
401 326 328 403 405 795 794 394 285
796 797 27 26 329 796 285 332 330
329 742 798 797 796 797 798 799 27
285 284 800 332 801 734 733 802 267
140 139 427 525 270 598 528 527 271
803 804 805 806 807 744 20 23 808
809 719 810 751 720 730 700 303 302
321 13 12 811 445 811 12 444 801
702 666 734 37 36 812 680 73 75
690 348 347 75 74 706 690 191 349
708 192 769 353 79 356 769 356 355
201 221 766 721 358 225 358 729 780
0 98 234 237 470 473 97 96 470
96 95 616 474 235 97 473 244 100
366 611 608 611 366 612 487 367 99
505 487 612 366 367 295 813 386 385
735 385 384 788 637 641 640 397 396
403 394 393 398 391 390 814 398 404
814 815 253 135 134 816 815 814 390
403 398 814 404 817 818 819 820 803
744 743 821 329 822 743 742 817 821
743 822 314 818 746 316 315 329 50
746 822 817 822 746 818 129 400 823
747 748 823 400 132 405 406 402 401
795 136 407 406 405 137 407 136 33
32 412 408 163 402 421 651 164 651
648 165 164 326 166 165 654 173 418
417 174 63 174 417 423 749 423 422
824 415 414 824 422 138 73 347 190
297 299 298 431 749 824 424 299 824
414 446 143 321 811 445 454 446 811
157 158 457 456 457 158 455 460 474
460 455 235 99 180 506 505 506 180
500 499 32 31 521 410 412 596 256
543 542 526 825 525 524 547 562 43
42 566 529 43 562 816 535 254 253
815 532 538 534 537 826 827 828 829
830 831 832 827 826 831 539 544 791
793 545 539 831 826 830 833 546 545
830 829 541 540 546 262 261 548 263
262 546 833 829 507 511 557 833 263
833 557 556 555 553 572 586 558 276
275 834 517 516 834 275 274 529 566
570 569 564 563 565 564 569 834 566
834 569 568 517 586 585 559 558 584
563 272 585 570 563 584 588 835 589
266 560 591 835 560 269 518 517 568
593 595 520 519 594 595 18 14 520
598 825 526 300 525 825 561 267 598
270 561 825 466 467 601 836 765 722
721 766 726 725 768 767 773 605 77
602 773 200 603 605 361 837 606 362
359 362 606 224 838 839 606 837 838
837 361 363 223 607 726 767 606 839
730 607 452 453 840 841 441 782 840
453 610 609 615 614 242 611 610 614
842 620 370 369 842 345 619 620 624
623 621 622 733 622 386 813 380 626
843 381 843 626 6 785 789 123 628
627 629 123 789 630 628 123 122 371
126 123 629 379 631 632 230 780 230
632 432 231 434 436 631 639 729 638
631 780 751 23 22 638 776 644 642
206 757 643 642 145 754 643 757 756
322 161 754 756 228 433 645 778 776
778 645 644 437 156 645 433 645 156
155 646 155 145 642 646 466 836 844
469 94 160 647 239 478 160 845 479
162 325 845 160 322 325 162 161 653
650 480 479 649 481 480 650 482 717
656 483 663 658 656 717 170 660 659
664 491 504 666 846 491 846 847 486
120 673 672 785 334 57 674 673 790
848 336 738 61 60 336 848 790 739
762 848 168 761 762 178 61 848 762
761 603 200 199 196 295 294 849 813
292 680 849 294 682 317 683 320 318
317 682 686 65 57 334 337 65 337
336 60 799 798 709 691 601 693 692
836 694 693 711 850 845 851 653 479
324 851 845 325 653 851 324 327 843
696 667 381 672 696 843 785 849 802
733 813 812 802 849 680 801 802 41
40 812 36 41 802 751 810 808 23
838 698 697 839 681 698 838 363 844
698 681 469 844 836 692 698 730 839
697 700 303 700 699 852 666 702 701
846 703 702 801 40 847 705 687 486
687 705 800 284 847 846 701 705 800
705 333 332 689 707 842 369 842 707
346 345 731 90 157 753 157 208 207
753 758 243 240 732 245 243 758 662
217 779 777 213 217 750 728 779 236
1 0 237 251 248 783 377 376 784
251 377 759 383 384 387 759 7 625
383 382 788 384 383 116 736 786 784
376 117 116 784 443 444 12 11 799
691 28 27 51 704 703 52 744 850
711 745 742 741 709 798 806 695 694
807 806 805 699 695 35 52 703 40
774 204 203 676 774 676 199 198 740
745 711 710 740 710 709 741 804 304
303 852 744 807 694 850 804 852 699
805 305 312 318 306 51 331 333 704
71 344 346 74 637 396 395 153 636
151 154 153 395 394
        </DataArray>
        <DataArray type='Int32' Name='offsets' format='ascii'>
4 8 12 16 20 24 28 32 36
40 46 50 54 58 62 67 74 80
85 89 93 97 101 106 110 114 118
122 126 130 134 138 142 146 150 154
158 162 166 170 174 178 182 186 190
195 200 205 209 216 222 226 230 234
238 242 248 252 256 260 264 268 272
276 280 284 289 293 297 301 305 309
313 317 321 325 329 333 337 341 345
349 353 357 361 365 369 373 377 381
386 391 396 400 404 409 413 417 422
429 433 437 441 445 449 453 457 461
465 471 476 480 484 488 492 496 500
505 509 513 517 521 525 529 535 539
544 548 552 556 560 565 569 573 577
581 585 589 593 597 601 605 609 613
617 621 625 629 633 637 641 645 649
654 658 664 668 672 677 682 686 690
694 698 702 708 713 717 721 725 729
734 738 742 747 751 755 761 765 769
773 777 781 785 789 793 797 801 805
809 813 817 821 825 829 833 837 841
845 849 853 857 861 865 869 873 877
881 885 889 893 897 901 905 909 913
917 921 925 929 933 937 941 945 949
953 957 962 967 971 975 980 984 989
994 999 1003 1008 1013 1018 1024 1028 1032
1036 1040 1044 1048 1052 1057 1062 1066 1070
1074 1079 1083 1087 1091 1095 1099 1103 1107
1111 1115 1120 1124 1129 1135 1139 1144 1148
1153 1159 1163 1167 1171 1175 1180 1184 1188
1192 1196 1200 1204 1208 1212 1216 1220 1224
1228 1232 1236 1240 1244 1248 1252 1256 1260
1264 1268 1272 1276 1280 1284 1288 1292 1296
1300 1304 1308 1312 1316 1320 1324 1328 1332
1336 1340 1344 1348 1352 1356 1360 1364 1368
1372 1376 1380 1384 1388 1392 1396 1400 1404
1408 1412 1416 1420 1424 1428 1432 1436 1440
1444 1448 1452 1456 1460 1464 1468 1472 1476
1480 1484 1488 1492 1496 1500 1504 1508 1512
1516 1520 1524 1528 1532 1536 1540 1544 1548
1552 1556 1560 1564 1568 1572 1576 1580 1584
1588 1592 1596 1600 1604 1608 1612 1616 1622
1629 1633 1637 1644 1648 1654 1660 1664 1668
1674 1678 1682 1686 1690 1694 1698 1702 1706
1710 1714 1718 1722 1726 1730 1734 1738 1742
1746 1750 1754 1760 1764 1768 1772 1776 1781
1785 1789 1793 1797 1801 1805 1809 1813 1817
1821 1828 1832 1836 1840 1844 1848 1852 1856
1860 1864 1868 1872 1876 1880 1884 1888 1893
1898 1902 1906 1910 1914 1921 1928 1932 1939
1943 1947 1951 1955 1959 1963 1967 1971 1975
1979 1983 1987 1991 1995 1999 2003 2007 2011
2015 2019 2023 2027 2031 2035 2039 2043 2047
2051 2055 2059 2063 2067 2071 2075 2079 2083
2087 2092 2097 2102 2106 2110 2115 2120 2127
2132 2137 2142 2147 2151 2155 2159 2164 2169
2175 2179 2183 2187 2191 2195 2199 2203 2208
2212 2216 2220 2224 2228 2232 2236 2240 2244
2248 2252 2256 2260 2264 2268 2272 2277 2281
2285 2291 2295 2299 2303 2307 2311 2315 2320
2324 2328 2332 2336 2341 2346 2352 2357 2361
2365 2369 2373 2377 2381 2386 2391 2395 2399
2403 2407 2411 2415 2419 2423 2428 2432 2436
2440 2444 2449 2453 2458 2462 2467 2472 2477
2483 2487 2492 2496 2501 2506 2511 2515 2520
2524 2528 2532 2536 2540 2544 2548 2552 2556
2560 2564 2568 2572 2576 2580 2584 2588 2592
2596 2600 2604 2608 2612 2616 2620 2624 2628
2632 2636 2640 2644 2648 2652 2656 2660 2664
2668 2672 2676 2680 2684 2688 2692 2696 2700
2704 2708 2712 2716 2720 2724 2728 2732 2736
2740 2744 2748 2752 2756 2760 2764 2768 2772
2776 2780 2784 2788 2792 2796 2800 2804 2808
2812 2816 2820 2824 2828 2832 2836 2840 2844
2848 2852 2856 2860 2864 2868 2872 2876 2880
2884 2888 2892 2896 2900 2904 2908 2912 2916
2920 2924 2928 2932 2936 2940 2944 2948 2952
2956 2960 2964 2968 2972 2976 2980 2984 2988
2992 2996 3000 3004 3008 3012 3016 3020 3024
3028 3032 3036 3040 3044 3048 3052 3056 3060
3064 3069 3074
        </DataArray>
      </Polys>
      <CellData>
        <DataArray type='Float32' Name='D' NumberOfComponents='3' format='ascii'>
0 0 0 0 0 0 0 0 0
0 0 0 0 0 0 0 0 0
0 0 0 0 0 0 0 0 0
0 0 0 0 0 0 0 0 0
0 0 0 0 0 0 0 0 0
0 0 0 0 0 0 0 0 0
0 0 0 0 0 0 0 0 0
0 0 0 0 0 0 0 0 0
0 0 0 0 0 0 0 0 0
0 0 0 0 0 0 0 0 0
0 0 0 0 0 0 0 0 0
0 0 0 0 0 0 0 0 0
0 0 0 0 0 0 0 0 0
0 0 0 0 0 0 0 0 0
0 0 0 0 0 0 0 0 0
0 0 0 0 0 0 0 0 0
0 0 0 0 0 0 0 0 0
0 0 0 0 0 0 0 0 0
0 0 0 0 0 0 0 0 0
0 0 0 0 0 0 0 0 0
0 0 0 0 0 0 0 0 0
0 0 0 0 0 0 0 0 0
0 0 0 0 0 0 0 0 0
0 0 0 0 0 0 0 0 0
0 0 0 0 0 0 0 0 0
0 0 0 0 0 0 0 0 0
0 0 0 0 0 0 0 0 0
0 0 0 0 0 0 0 0 0
0 0 0 0 0 0 0 0 0
0 0 0 0 0 0 0 0 0
0 0 0 0 0 0 0 0 0
0 0 0 0 0 0 0 0 0
0 0 0 0 0 0 0 0 0
0 0 0 0 0 0 0 0 0
0 0 0 0 0 0 0 0 0
0 0 0 0 0 0 0 0 0
0 0 0 0 0 0 0 0 0
0 0 0 0 0 0 0 0 0
0 0 0 0 0 0 0 0 0
0 0 0 0 0 0 0 0 0
0 0 0 0 0 0 0 0 0
0 0 0 0 0 0 0 0 0
0 0 0 0 0 0 0 0 0
0 0 0 0 0 0 0 0 0
0 0 0 0 0 0 0 0 0
0 0 0 0 0 0 0 0 0
0 0 0 0 0 0 0 0 0
0 0 0 0 0 0 0 0 0
0 0 0 0 0 0 0 0 0
0 0 0 0 0 0 0 0 0
0 0 0 0 0 0 0 0 0
0 0 0 0 0 0 0 0 0
0 0 0 0 0 0 0 0 0
0 0 0 0 0 0 0 0 0
0 0 0 0 0 0 0 0 0
0 0 0 0 0 0 0 0 0
0 0 0 0 0 0 0 0 0
0 0 0 0 0 0 0 0 0
0 0 0 0 0 0 0 0 0
0 0 0 0 0 0 0 0 0
0 0 0 0 0 0 0 0 0
0 0 0 0 0 0 0 0 0
0 0 0 0 0 0 0 0 0
0 0 0 0 0 0 0 0 0
0 0 0 0 0 0 0 0 0
0 0 0 0 0 0 0 0 0
0 0 0 0 0 0 0 0 0
0 0 0 0 0 0 0 0 0
0 0 0 0 0 0 0 0 0
0 0 0 0 0 0 0 0 0
0 0 0 0 0 0 0 0 0
0 0 0 0 0 0 0 0 0
0 0 0 0 0 0 0 0 0
0 0 0 0 0 0 0 0 0
0 0 0 0 0 0 0 0 0
0 0 0 0 0 0 0 0 0
0 0 0 0 0 0 0 0 0
0 0 0 0 0 0 0 0 0
0 0 0 0 0 0 0 0 0
0 0 0 0 0 0 0 0 0
0 0 0 0 0 0 0 0 0
0 0 0 0 0 0 0 0 0
0 0 0 0 0 0 0 0 0
0 0 0 0 0 0 0 0 0
0 0 0 0 0 0 0 0 0
0 0 0 0 0 0 0 0 0
0 0 0 0 0 0 0 0 0
0 0 0 0 0 0 0 0 0
0 0 0 0 0 0 0 0 0
0 0 0 0 0 0 0 0 0
0 0 0 0 0 0 0 0 0
0 0 0 0 0 0 0 0 0
0 0 0 0 0 0 0 0 0
0 0 0 0 0 0 0 0 0
0 0 0 0 0 0 0 0 0
0 0 0 0 0 0 0 0 0
0 0 0 0 0 0 0 0 0
0 0 0 0 0 0 0 0 0
0 0 0 0 0 0 0 0 0
0 0 0 0 0 0 0 0 0
0 0 0 0 0 0 0 0 0
0 0 0 0 0 0 0 0 0
0 0 0 0 0 0 0 0 0
0 0 0 0 0 0 0 0 0
0 0 0 0 0 0 0 0 0
0 0 0 0 0 0 0 0 0
0 0 0 0 0 0 0 0 0
0 0 0 0 0 0 0 0 0
0 0 0 0 0 0 0 0 0
0 0 0 0 0 0 0 0 0
0 0 0 0 0 0 0 0 0
0 0 0 0 0 0 0 0 0
0 0 0 0 0 0 0 0 0
0 0 0 0 0 0 0 0 0
0 0 0 0 0 0 0 0 0
0 0 0 0 0 0 0 0 0
0 0 0 0 0 0 0 0 0
0 0 0 0 0 0 0 0 0
0 0 0 0 0 0 0 0 0
0 0 0 0 0 0 0 0 0
0 0 0 0 0 0 0 0 0
0 0 0 0 0 0 0 0 0
0 0 0 0 0 0 0 0 0
0 0 0 0 0 0 0 0 0
0 0 0 0 0 0 0 0 0
0 0 0 0 0 0 0 0 0
0 0 0 0 0 0 0 0 0
0 0 0 0 0 0 0 0 0
0 0 0 0 0 0 0 0 0
0 0 0 0 0 0 0 0 0
0 0 0 0 0 0 0 0 0
0 0 0 0 0 0 0 0 0
0 0 0 0 0 0 0 0 0
0 0 0 0 0 0 0 0 0
0 0 0 0 0 0 0 0 0
0 0 0 0 0 0 0 0 0
0 0 0 0 0 0 0 0 0
0 0 0 0 0 0 0 0 0
0 0 0 0 0 0 0 0 0
0 0 0 0 0 0 0 0 0
0 0 0 0 0 0 0 0 0
0 0 0 0 0 0 0 0 0
0 0 0 0 0 0 0 0 0
0 0 0 0 0 0 0 0 0
0 0 0 0 0 0 0 0 0
0 0 0 0 0 0 0 0 0
0 0 0 0 0 0 0 0 0
0 0 0 0 0 0 0 0 0
0 0 0 0 0 0 0 0 0
0 0 0 0 0 0 0 0 0
0 0 0 0 0 0 0 0 0
0 0 0 0 0 0 0 0 0
0 0 0 0 0 0 0 0 0
0 0 0 0 0 0 0 0 0
0 0 0 0 0 0 0 0 0
0 0 0 0 0 0 0 0 0
0 0 0 0 0 0 0 0 0
0 0 0 0 0 0 0 0 0
0 0 0 0 0 0 0 0 0
0 0 0 0 0 0 0 0 0
0 0 0 0 0 0 0 0 0
0 0 0 0 0 0 0 0 0
0 0 0 0 0 0 0 0 0
0 0 0 0 0 0 0 0 0
0 0 0 0 0 0 0 0 0
0 0 0 0 0 0 0 0 0
0 0 0 0 0 0 0 0 0
0 0 0 0 0 0 0 0 0
0 0 0 0 0 0 0 0 0
0 0 0 0 0 0 0 0 0
0 0 0 0 0 0 0 0 0
0 0 0 0 0 0 0 0 0
0 0 0 0 0 0 0 0 0
0 0 0 0 0 0 0 0 0
0 0 0 0 0 0 0 0 0
0 0 0 0 0 0 0 0 0
0 0 0 0 0 0 0 0 0
0 0 0 0 0 0 0 0 0
0 0 0 0 0 0 0 0 0
0 0 0 0 0 0 0 0 0
0 0 0 0 0 0 0 0 0
0 0 0 0 0 0 0 0 0
0 0 0 0 0 0 0 0 0
0 0 0 0 0 0 0 0 0
0 0 0 0 0 0 0 0 0
0 0 0 0 0 0 0 0 0
0 0 0 0 0 0 0 0 0
0 0 0 0 0 0 0 0 0
0 0 0 0 0 0 0 0 0
0 0 0 0 0 0 0 0 0
0 0 0 0 0 0 0 0 0
0 0 0 0 0 0 0 0 0
0 0 0 0 0 0 0 0 0
0 0 0 0 0 0 0 0 0
0 0 0 0 0 0 0 0 0
0 0 0 0 0 0 0 0 0
0 0 0 0 0 0 0 0 0
0 0 0 0 0 0 0 0 0
0 0 0 0 0 0 0 0 0
0 0 0 0 0 0 0 0 0
0 0 0 0 0 0 0 0 0
0 0 0 0 0 0 0 0 0
0 0 0 0 0 0 0 0 0
0 0 0 0 0 0 0 0 0
0 0 0 0 0 0 0 0 0
0 0 0 0 0 0 0 0 0
0 0 0 0 0 0 0 0 0
0 0 0 0 0 0 0 0 0
0 0 0 0 0 0 0 0 0
0 0 0 0 0 0 0 0 0
0 0 0 0 0 0 0 0 0
0 0 0 0 0 0 0 0 0
0 0 0 0 0 0 0 0 0
0 0 0 0 0 0 0 0 0
0 0 0 0 0 0 0 0 0
0 0 0 0 0 0 0 0 0
0 0 0 0 0 0 0 0 0
0 0 0 0 0 0 0 0 0
0 0 0 0 0 0 0 0 0
0 0 0 0 0 0 0 0 0
0 0 0 0 0 0 0 0 0
0 0 0 0 0 0 0 0 0
0 0 0 0 0 0 0 0 0
0 0 0 0 0 0 0 0 0
0 0 0 0 0 0 0 0 0
0 0 0 0 0 0 0 0 0
0 0 0 0 0 0 0 0 0
0 0 0 0 0 0 0 0 0
0 0 0 0 0 0 0 0 0
0 0 0 0 0 0 0 0 0
0 0 0 0 0 0 0 0 0
0 0 0 0 0 0 0 0 0
0 0 0 0 0 0 0 0 0
0 0 0 0 0 0 0 0 0
0 0 0 0 0 0 0 0 0
0 0 0 0 0 0 0 0 0
0 0 0 0 0 0 0 0 0
0 0 0 0 0 0 0 0 0
0 0 0 0 0 0 0 0 0
0 0 0 0 0 0 0 0 0
0 0 0 0 0 0 0 0 0
0 0 0 0 0 0 0 0 0
0 0 0 0 0 0 0 0 0
0 0 0 0 0 0 0 0 0
        </DataArray>
      </CellData>
      <PointData>
        <DataArray type='Float32' Name='D' NumberOfComponents='3' format='ascii'>
0 0 0 0 0 0 0 0 0
0 0 0 0 0 0 0 0 0
0 0 0 0 0 0 0 0 0
0 0 0 0 0 0 0 0 0
0 0 0 0 0 0 0 0 0
0 0 0 0 0 0 0 0 0
0 0 0 0 0 0 0 0 0
0 0 0 0 0 0 0 0 0
0 0 0 0 0 0 0 0 0
0 0 0 0 0 0 0 0 0
0 0 0 0 0 0 0 0 0
0 0 0 0 0 0 0 0 0
0 0 0 0 0 0 0 0 0
0 0 0 0 0 0 0 0 0
0 0 0 0 0 0 0 0 0
0 0 0 0 0 0 0 0 0
0 0 0 0 0 0 0 0 0
0 0 0 0 0 0 0 0 0
0 0 0 0 0 0 0 0 0
0 0 0 0 0 0 0 0 0
0 0 0 0 0 0 0 0 0
0 0 0 0 0 0 0 0 0
0 0 0 0 0 0 0 0 0
0 0 0 0 0 0 0 0 0
0 0 0 0 0 0 0 0 0
0 0 0 0 0 0 0 0 0
0 0 0 0 0 0 0 0 0
0 0 0 0 0 0 0 0 0
0 0 0 0 0 0 0 0 0
0 0 0 0 0 0 0 0 0
0 0 0 0 0 0 0 0 0
0 0 0 0 0 0 0 0 0
0 0 0 0 0 0 0 0 0
0 0 0 0 0 0 0 0 0
0 0 0 0 0 0 0 0 0
0 0 0 0 0 0 0 0 0
0 0 0 0 0 0 0 0 0
0 0 0 0 0 0 0 0 0
0 0 0 0 0 0 0 0 0
0 0 0 0 0 0 0 0 0
0 0 0 0 0 0 0 0 0
0 0 0 0 0 0 0 0 0
0 0 0 0 0 0 0 0 0
0 0 0 0 0 0 0 0 0
0 0 0 0 0 0 0 0 0
0 0 0 0 0 0 0 0 0
0 0 0 0 0 0 0 0 0
0 0 0 0 0 0 0 0 0
0 0 0 0 0 0 0 0 0
0 0 0 0 0 0 0 0 0
0 0 0 0 0 0 0 0 0
0 0 0 0 0 0 0 0 0
0 0 0 0 0 0 0 0 0
0 0 0 0 0 0 0 0 0
0 0 0 0 0 0 0 0 0
0 0 0 0 0 0 0 0 0
0 0 0 0 0 0 0 0 0
0 0 0 0 0 0 0 0 0
0 0 0 0 0 0 0 0 0
0 0 0 0 0 0 0 0 0
0 0 0 0 0 0 0 0 0
0 0 0 0 0 0 0 0 0
0 0 0 0 0 0 0 0 0
0 0 0 0 0 0 0 0 0
0 0 0 0 0 0 0 0 0
0 0 0 0 0 0 0 0 0
0 0 0 0 0 0 0 0 0
0 0 0 0 0 0 0 0 0
0 0 0 0 0 0 0 0 0
0 0 0 0 0 0 0 0 0
0 0 0 0 0 0 0 0 0
0 0 0 0 0 0 0 0 0
0 0 0 0 0 0 0 0 0
0 0 0 0 0 0 0 0 0
0 0 0 0 0 0 0 0 0
0 0 0 0 0 0 0 0 0
0 0 0 0 0 0 0 0 0
0 0 0 0 0 0 0 0 0
0 0 0 0 0 0 0 0 0
0 0 0 0 0 0 0 0 0
0 0 0 0 0 0 0 0 0
0 0 0 0 0 0 0 0 0
0 0 0 0 0 0 0 0 0
0 0 0 0 0 0 0 0 0
0 0 0 0 0 0 0 0 0
0 0 0 0 0 0 0 0 0
0 0 0 0 0 0 0 0 0
0 0 0 0 0 0 0 0 0
0 0 0 0 0 0 0 0 0
0 0 0 0 0 0 0 0 0
0 0 0 0 0 0 0 0 0
0 0 0 0 0 0 0 0 0
0 0 0 0 0 0 0 0 0
0 0 0 0 0 0 0 0 0
0 0 0 0 0 0 0 0 0
0 0 0 0 0 0 0 0 0
0 0 0 0 0 0 0 0 0
0 0 0 0 0 0 0 0 0
0 0 0 0 0 0 0 0 0
0 0 0 0 0 0 0 0 0
0 0 0 0 0 0 0 0 0
0 0 0 0 0 0 0 0 0
0 0 0 0 0 0 0 0 0
0 0 0 0 0 0 0 0 0
0 0 0 0 0 0 0 0 0
0 0 0 0 0 0 0 0 0
0 0 0 0 0 0 0 0 0
0 0 0 0 0 0 0 0 0
0 0 0 0 0 0 0 0 0
0 0 0 0 0 0 0 0 0
0 0 0 0 0 0 0 0 0
0 0 0 0 0 0 0 0 0
0 0 0 0 0 0 0 0 0
0 0 0 0 0 0 0 0 0
0 0 0 0 0 0 0 0 0
0 0 0 0 0 0 0 0 0
0 0 0 0 0 0 0 0 0
0 0 0 0 0 0 0 0 0
0 0 0 0 0 0 0 0 0
0 0 0 0 0 0 0 0 0
0 0 0 0 0 0 0 0 0
0 0 0 0 0 0 0 0 0
0 0 0 0 0 0 0 0 0
0 0 0 0 0 0 0 0 0
0 0 0 0 0 0 0 0 0
0 0 0 0 0 0 0 0 0
0 0 0 0 0 0 0 0 0
0 0 0 0 0 0 0 0 0
0 0 0 0 0 0 0 0 0
0 0 0 0 0 0 0 0 0
0 0 0 0 0 0 0 0 0
0 0 0 0 0 0 0 0 0
0 0 0 0 0 0 0 0 0
0 0 0 0 0 0 0 0 0
0 0 0 0 0 0 0 0 0
0 0 0 0 0 0 0 0 0
0 0 0 0 0 0 0 0 0
0 0 0 0 0 0 0 0 0
0 0 0 0 0 0 0 0 0
0 0 0 0 0 0 0 0 0
0 0 0 0 0 0 0 0 0
0 0 0 0 0 0 0 0 0
0 0 0 0 0 0 0 0 0
0 0 0 0 0 0 0 0 0
0 0 0 0 0 0 0 0 0
0 0 0 0 0 0 0 0 0
0 0 0 0 0 0 0 0 0
0 0 0 0 0 0 0 0 0
0 0 0 0 0 0 0 0 0
0 0 0 0 0 0 0 0 0
0 0 0 0 0 0 0 0 0
0 0 0 0 0 0 0 0 0
0 0 0 0 0 0 0 0 0
0 0 0 0 0 0 0 0 0
0 0 0 0 0 0 0 0 0
0 0 0 0 0 0 0 0 0
0 0 0 0 0 0 0 0 0
0 0 0 0 0 0 0 0 0
0 0 0 0 0 0 0 0 0
0 0 0 0 0 0 0 0 0
0 0 0 0 0 0 0 0 0
0 0 0 0 0 0 0 0 0
0 0 0 0 0 0 0 0 0
0 0 0 0 0 0 0 0 0
0 0 0 0 0 0 0 0 0
0 0 0 0 0 0 0 0 0
0 0 0 0 0 0 0 0 0
0 0 0 0 0 0 0 0 0
0 0 0 0 0 0 0 0 0
0 0 0 0 0 0 0 0 0
0 0 0 0 0 0 0 0 0
0 0 0 0 0 0 0 0 0
0 0 0 0 0 0 0 0 0
0 0 0 0 0 0 0 0 0
0 0 0 0 0 0 0 0 0
0 0 0 0 0 0 0 0 0
0 0 0 0 0 0 0 0 0
0 0 0 0 0 0 0 0 0
0 0 0 0 0 0 0 0 0
0 0 0 0 0 0 0 0 0
0 0 0 0 0 0 0 0 0
0 0 0 0 0 0 0 0 0
0 0 0 0 0 0 0 0 0
0 0 0 0 0 0 0 0 0
0 0 0 0 0 0 0 0 0
0 0 0 0 0 0 0 0 0
0 0 0 0 0 0 0 0 0
0 0 0 0 0 0 0 0 0
0 0 0 0 0 0 0 0 0
0 0 0 0 0 0 0 0 0
0 0 0 0 0 0 0 0 0
0 0 0 0 0 0 0 0 0
0 0 0 0 0 0 0 0 0
0 0 0 0 0 0 0 0 0
0 0 0 0 0 0 0 0 0
0 0 0 0 0 0 0 0 0
0 0 0 0 0 0 0 0 0
0 0 0 0 0 0 0 0 0
0 0 0 0 0 0 0 0 0
0 0 0 0 0 0 0 0 0
0 0 0 0 0 0 0 0 0
0 0 0 0 0 0 0 0 0
0 0 0 0 0 0 0 0 0
0 0 0 0 0 0 0 0 0
0 0 0 0 0 0 0 0 0
0 0 0 0 0 0 0 0 0
0 0 0 0 0 0 0 0 0
0 0 0 0 0 0 0 0 0
0 0 0 0 0 0 0 0 0
0 0 0 0 0 0 0 0 0
0 0 0 0 0 0 0 0 0
0 0 0 0 0 0 0 0 0
0 0 0 0 0 0 0 0 0
0 0 0 0 0 0 0 0 0
0 0 0 0 0 0 0 0 0
0 0 0 0 0 0 0 0 0
0 0 0 0 0 0 0 0 0
0 0 0 0 0 0 0 0 0
0 0 0 0 0 0 0 0 0
0 0 0 0 0 0 0 0 0
0 0 0 0 0 0 0 0 0
0 0 0 0 0 0 0 0 0
0 0 0 0 0 0 0 0 0
0 0 0 0 0 0 0 0 0
0 0 0 0 0 0 0 0 0
0 0 0 0 0 0 0 0 0
0 0 0 0 0 0 0 0 0
0 0 0 0 0 0 0 0 0
0 0 0 0 0 0 0 0 0
0 0 0 0 0 0 0 0 0
0 0 0 0 0 0 0 0 0
0 0 0 0 0 0 0 0 0
0 0 0 0 0 0 0 0 0
0 0 0 0 0 0 0 0 0
0 0 0 0 0 0 0 0 0
0 0 0 0 0 0 0 0 0
0 0 0 0 0 0 0 0 0
0 0 0 0 0 0 0 0 0
0 0 0 0 0 0 0 0 0
0 0 0 0 0 0 0 0 0
0 0 0 0 0 0 0 0 0
0 0 0 0 0 0 0 0 0
0 0 0 0 0 0 0 0 0
0 0 0 0 0 0 0 0 0
0 0 0 0 0 0 0 0 0
0 0 0 0 0 0 0 0 0
0 0 0 0 0 0 0 0 0
0 0 0 0 0 0 0 0 0
0 0 0 0 0 0 0 0 0
0 0 0 0 0 0 0 0 0
0 0 0 0 0 0 0 0 0
0 0 0 0 0 0 0 0 0
0 0 0 0 0 0 0 0 0
0 0 0 0 0 0 0 0 0
0 0 0 0 0 0 0 0 0
0 0 0 0 0 0 0 0 0
0 0 0 0 0 0 0 0 0
0 0 0 0 0 0 0 0 0
0 0 0 0 0 0 0 0 0
0 0 0 0 0 0 0 0 0
0 0 0 0 0 0 0 0 0
0 0 0 0 0 0 0 0 0
0 0 0 0 0 0 0 0 0
0 0 0 0 0 0 0 0 0
0 0 0 0 0 0 0 0 0
0 0 0 0 0 0 0 0 0
0 0 0 0 0 0 0 0 0
0 0 0 0 0 0 0 0 0
0 0 0 0 0 0 0 0 0
0 0 0 0 0 0 0 0 0
0 0 0 0 0 0 0 0 0
0 0 0 0 0 0 0 0 0
0 0 0 0 0 0 0 0 0
0 0 0 0 0 0 0 0 0
0 0 0 0 0 0 0 0 0
0 0 0 0 0 0 0 0 0
0 0 0 0 0 0 0 0 0
0 0 0 0 0 0 0 0 0
0 0 0 0 0 0 0 0 0
0 0 0 0 0 0 0 0 0
0 0 0 0 0 0 0 0 0
0 0 0 0 0 0 0 0 0
0 0 0 0 0 0 0 0 0
0 0 0 0 0 0 0 0 0
0 0 0
        </DataArray>
      </PointData>
    </Piece>
  </PolyData>
</VTKFile>
