<?xml version='1.0'?>
<!-- patch='artoph_end_back' time='0' index='0' -->
<VTKFile type='PolyData' version='0.1' byte_order='LittleEndian' header_type='UInt64'>
  <PolyData>
    <FieldData>
      <DataArray type='Float32' Name='TimeValue' NumberOfTuples='1' format='ascii'>
0
      </DataArray>
    </FieldData>
    <Piece NumberOfPoints='1021' NumberOfPolys='938'>
      <Points>
        <DataArray type='Float32' Name='Points' NumberOfComponents='3' format='ascii'>
-0.0100002 0.0015523 -0.0300521 -0.0100003 0.00156867 -0.0300061 -0.00994612 0.00156188 -0.0299991
-0.0099507 0.00154963 -0.0300492 -0.0108119 0.000946115 -0.0299991 -0.0108187 0.00100025 -0.0300061
-0.0108023 0.00100017 -0.0300521 -0.0107996 0.0009507 -0.0300492 -0.0113811 0.00175616 -0.0298747
-0.0113741 0.00174938 -0.0299289 -0.0114242 0.00173713 -0.0299243 -0.0114271 0.00173984 -0.0298749
-0.0112492 0.00206185 -0.0299289 -0.0112997 0.00204966 -0.0299244 -0.0113027 0.00205261 -0.0298745
-0.0112562 0.00206883 -0.0298746 -0.0113732 0.00162077 -0.0297455 -0.0113732 0.00168743 -0.0297497
-0.0113814 0.00168734 -0.0298061 -0.0113814 0.00162503 -0.0298061 -0.0099393 0.00162498 -0.0298127
-0.0099393 0.00168752 -0.0298127 -0.00993115 0.00168739 -0.0297563 -0.00993115 0.00162511 -0.0297564
-0.0114273 0.0016871 -0.0298225 -0.0114273 0.0016254 -0.0298225 -0.0106249 0.00237254 -0.0296159
-0.0106251 0.00238135 -0.029681 -0.0106874 0.00238134 -0.029681 -0.0106875 0.00237317 -0.029625
-0.0106254 0.00242734 -0.0296975 -0.0106871 0.00242734 -0.0296975 -0.0109996 0.00101015 -0.0299897
-0.0109998 0.00106288 -0.0299974 -0.0109375 0.0010626 -0.0299977 -0.0109369 0.0010009 -0.0299914
-0.0109438 0.000993834 -0.0299371 -0.0109998 0.00100238 -0.0299371 -0.0109995 0.0015 -0.0299919
-0.0109993 0.00162487 -0.0299913 -0.0108749 0.00162497 -0.0299886 -0.010875 0.00150001 -0.0299893
-0.0105002 0.00150023 -0.0299901 -0.0105 0.00162504 -0.0299883 -0.0103754 0.00162543 -0.029991
-0.0103757 0.00150072 -0.0299933 -0.00993985 0.00156247 -0.0299374 -0.00993976 0.0015 -0.0299375
-0.00994027 0.0015 -0.0299994 -0.0109805 0.00199955 -0.0299892 -0.0110078 0.002 -0.0299443
-0.0110088 0.00206232 -0.0299444 -0.0109869 0.00206174 -0.0299869 -0.0109808 0.00210584 -0.0299868
-0.0109367 0.00211192 -0.0299869 -0.0108747 0.00210537 -0.0299892 -0.010874 0.00199864 -0.0299929
-0.0109998 0.00212479 -0.0299426 -0.0109373 0.00213377 -0.0299444 -0.0104999 0.0019983 -0.0299908
-0.0105 0.00210543 -0.0299893 -0.0104376 0.00211228 -0.0299873 -0.0103745 0.00211672 -0.0299912
-0.0103751 0.00199919 -0.0299928 -0.0105 0.00213279 -0.0299443 -0.0104377 0.00213411 -0.0299447
-0.0105625 0.00100041 -0.03006 -0.0105001 0.00100048 -0.0300599 -0.0105004 0.000947949 -0.0300521
-0.0105625 0.000947755 -0.0300522 -0.0105003 0.000940221 -0.0299995 -0.0105625 0.000939966 -0.0299996
-0.0104381 0.0010009 -0.0300539 -0.0104504 0.000950749 -0.0300493 -0.0104473 0.000947617 -0.0299996
-0.010431 0.000993694 -0.0299998 -0.0105625 0.0010625 -0.0300603 -0.0105 0.00106251 -0.0300603
-0.0104375 0.0010626 -0.0300601 -0.0100008 0.00143798 -0.030054 -0.0100626 0.00143743 -0.03006
-0.010062 0.0014993 -0.0300541 -0.0100004 0.00149963 -0.0300595 -0.00994807 0.00149989 -0.0300519
-0.00995062 0.00145007 -0.0300494 -0.00994605 0.00143832 -0.0299991 -0.00999207 0.00142938 -0.0300079
-0.0110525 0.0010102 -0.029937 -0.0110496 0.00101325 -0.0299868 -0.0110684 0.00105658 -0.0299371
-0.0110616 0.00106355 -0.0299913 -0.0109984 0.00100982 -0.0294997 -0.011142 0.00110801 -0.0295002
-0.0111377 0.00111233 -0.029624 -0.0110976 0.00102786 -0.0296244 -0.011004 0.00100361 -0.0296201
-0.011116 0.0015 -0.0299972 -0.0111252 0.00156249 -0.0299976 -0.0111158 0.0016248 -0.0299968
-0.010625 0.00199802 -0.0299905 -0.010625 0.00210537 -0.0299893 -0.0105625 0.002112 -0.0299872
-0.0100102 0.00199961 -0.0299897 -0.0100629 0.00199982 -0.0299974 -0.0100634 0.00206188 -0.0299914
-0.0100132 0.00204963 -0.0299868 -0.0100102 0.00205248 -0.029937 -0.0100563 0.00206883 -0.0299371
-0.0100097 0.00199816 -0.0295001 -0.0100066 0.00199892 -0.0296245 -0.0100299 0.00209557 -0.0296244
-0.0101122 0.00213781 -0.0296239 -0.0101076 0.00214246 -0.0295002 -0.0100499 0.00154972 -0.0300496
-0.0100621 0.00156223 -0.0300051 -0.0100708 0.00150833 -0.0300083 -0.0105001 0.000939842 -0.0299375
-0.0105625 0.000939638 -0.0299375 -0.0105006 0.000886092 -0.0296054 -0.010504 0.000887832 -0.029498
-0.010625 0.000885455 -0.0294978 -0.010625 0.00088576 -0.0296054 -0.0105625 0.000887849 -0.029612
-0.010625 0.000930654 -0.0296328 -0.0105625 0.000930454 -0.0296339 -0.0104382 0.000945865 -0.029937
-0.0104292 0.000991739 -0.0299458 -0.0104091 0.000910489 -0.0294989 -0.0104387 0.000888588 -0.0296118
-0.0103945 0.000894858 -0.0295999 -0.0103607 0.000990941 -0.02962 -0.0103528 0.00097987 -0.0294997
-0.0103849 0.000938517 -0.0296246 -0.00994011 0.00143797 -0.0299374 -0.00991035 0.00140919 -0.0294991
-0.00997927 0.0013528 -0.0294998 -0.00999056 0.00136055 -0.0296201 -0.00993852 0.00138491 -0.0296246
-0.00989483 0.00139458 -0.0296 -0.00988417 0.00150095 -0.0296167 -0.00988727 0.00150405 -0.0294991
-0.00988847 0.00143862 -0.0296121 -0.01125 0.0014999 -0.0299977 -0.011312 0.00149966 -0.0299973
-0.0113122 0.00155271 -0.0299899 -0.0112495 0.00156188 -0.0299917 -0.0112583 0.00157085 -0.0299458
-0.0113126 0.00156899 -0.0299439 -0.0100024 0.00199975 -0.0299371 -0.00999383 0.00194383 -0.0299371
-0.0100009 0.00193688 -0.0299914 -0.00997936 0.00189702 -0.0294998 -0.00999046 0.00188949 -0.02962
-0.00988436 0.001625 -0.0294995 -0.00987773 0.00156273 -0.029625 -0.00987795 0.001625 -0.029616
-0.0112564 0.002069 -0.0298125 -0.0113029 0.00205269 -0.0298125 -0.0113029 0.00205272 -0.02975
-0.0112563 0.00206891 -0.02975 -0.0113175 0.00199941 -0.029813 -0.0113176 0.00199972 -0.0297499
-0.0107495 0.00100031 -0.0300596 -0.0107496 0.000947892 -0.030052 -0.0107499 0.000940125 -0.0299995
-0.0106875 0.00100041 -0.03006 -0.0106875 0.000947755 -0.0300522 -0.0106875 0.000939966 -0.0299996
-0.0108121 0.00106213 -0.0300051 -0.0107997 0.00104994 -0.0300496 -0.0107492 0.00106172 -0.030054
-0.0107581 0.00107075 -0.0300082 -0.0105005 0.00126474 -0.0300055 -0.0104379 0.00125832 -0.030009
-0.0104376 0.00124052 -0.0300527 -0.0104997 0.00124017 -0.0300524 -0.0104999 0.00118704 -0.0300599
-0.0104375 0.0011872 -0.0300601 -0.0103124 0.00124997 -0.0300602 -0.01025 0.00125 -0.0300604
-0.01025 0.00118751 -0.0300603 -0.0103125 0.0011875 -0.0300603 -0.0101875 0.00125001 -0.0300603
-0.0101877 0.00118768 -0.03006 -0.01025 0.0013124 -0.0300602 -0.0101875 0.0013125 -0.0300603
-0.0111965 0.00117854 -0.0297615 -0.0112402 0.00118843 -0.0297497 -0.0112406 0.00119682 -0.0298125
-0.0111938 0.00118119 -0.0298128 -0.0110039 0.00100235 -0.0297456 -0.0110613 0.00101028 -0.0297498
-0.0110529 0.00100989 -0.0298126 -0.0110001 0.00100211 -0.0298124 -0.0110715 0.00105355 -0.0297615
-0.0110688 0.0010562 -0.0298128 -0.0112402 0.00119731 -0.0299371 -0.0112372 0.00120034 -0.0299869
-0.0111865 0.00118852 -0.0299913 -0.0111934 0.00118158 -0.0299371 -0.0113029 0.00125978 -0.0298125
-0.0113113 0.00126018 -0.0297499 -0.0113194 0.0013127 -0.0297589 -0.0113107 0.00131257 -0.0298128
-0.01125 0.0014375 -0.0299978 -0.011312 0.00143764 -0.0299974 -0.0112489 0.00125094 -0.0299913
-0.0112993 0.00126287 -0.0299868 -0.0113024 0.00131289 -0.0299897 -0.0112496 0.00131268 -0.0299974
-0.0113023 0.00126002 -0.029937 -0.0113101 0.00131275 -0.0299371 -0.0113219 0.00194704 -0.0297614
-0.0113209 0.00194605 -0.0298045 -0.0110529 0.00230288 -0.0297499 -0.011062 0.00230442 -0.029813
-0.0110708 0.0022582 -0.0298042 -0.0110691 0.00225639 -0.0297499 -0.0110063 0.00231866 -0.0298126
-0.0109994 0.0023174 -0.0297505 -0.01024 0.00225999 -0.0297421 -0.0101878 0.00224774 -0.0297503
-0.0101876 0.0022479 -0.0298124 -0.0102428 0.0022572 -0.0298123 -0.0102589 0.0019999 -0.0299972
-0.0102496 0.00206236 -0.0299977 -0.0101876 0.00206244 -0.0299979 -0.0101877 0.002 -0.0299979
-0.0100535 0.00207184 -0.0297615 -0.0100104 0.00206128 -0.0297497 -0.0100099 0.00205282 -0.0298125
-0.010056 0.00206917 -0.0298128 -0.0102497 0.00223983 -0.0299896 -0.0102505 0.00225469 -0.0299366
-0.0101879 0.0022475 -0.0299371 -0.0101879 0.00223963 -0.0299896 -0.0101877 0.00218696 -0.0299974
-0.0102499 0.00218694 -0.0299974 -0.0102594 0.00230318 -0.0298125 -0.0102598 0.00231163 -0.0297497
-0.0103035 0.00232145 -0.0297615 -0.0103062 0.0023188 -0.0298128 -0.0109441 0.000993568 -0.0298124
-0.0109441 0.000993566 -0.0297499 -0.0102638 0.00101431 -0.029741 -0.0103125 0.00100236 -0.0297502
-0.0103126 0.00100216 -0.0298124 -0.0102599 0.00101011 -0.0298123 -0.010244 0.00105655 -0.0298125
-0.0102431 0.00106312 -0.029751 -0.0113738 0.0015625 -0.0299363 -0.0114242 0.00157535 -0.0299245
-0.011427 0.0016254 -0.0299272 -0.0113745 0.00162519 -0.0299351 -0.0114271 0.00157266 -0.029875
-0.0114345 0.00162548 -0.029875 -0.0113811 0.00155632 -0.029875 -0.010625 0.00150006 -0.0299885
-0.010625 0.00162501 -0.0299872 -0.0108742 0.0018745 -0.0299909 -0.0109952 0.00187051 -0.0299906
-0.0109874 0.00193747 -0.0299873 -0.0105 0.00187491 -0.029989 -0.010625 0.00187489 -0.0299884
-0.00993997 0.00175 -0.0299371 -0.00993996 0.0016875 -0.0299371 -0.00994775 0.0016875 -0.0299897
-0.00994775 0.00175 -0.0299897 -0.00993236 0.00156291 -0.0297496 -0.00993923 0.00149991 -0.0297501
-0.00993956 0.00150001 -0.0298125 -0.0099394 0.00156249 -0.0298126 -0.0099394 0.00175001 -0.0298126
-0.00993248 0.00174947 -0.0297495 -0.01075 0.00199823 -0.0299912 -0.0108125 0.002112 -0.0299872
-0.01075 0.00210537 -0.0299893 -0.0103124 0.00212519 -0.0299974 -0.0102542 0.00212075 -0.0299977
-0.0103118 0.00218658 -0.0299915 -0.0102999 0.0022372 -0.029987 -0.0103122 0.00224947 -0.0299423
-0.0103206 0.00219566 -0.0299457 -0.010625 0.000947754 -0.0300522 -0.010625 0.000939965 -0.0299996
-0.010625 0.00100041 -0.03006 -0.0106873 0.00106213 -0.0300599 -0.0105499 0.00123737 -0.0300497
-0.0105621 0.00124971 -0.0300077 -0.0105618 0.00118667 -0.0300541 -0.0105717 0.00119676 -0.0300117
-0.0109985 0.00174925 -0.0299916 -0.0111056 0.00174983 -0.0299894 -0.0111118 0.00181189 -0.0299869
-0.0111057 0.00185599 -0.0299868 -0.0110617 0.00186231 -0.0299871 -0.011133 0.0017502 -0.0299445
-0.0111338 0.00181233 -0.0299444 -0.0110626 0.00188397 -0.0299446 -0.0110103 0.00188535 -0.0299471
-0.010625 0.00242724 -0.0299272 -0.0105629 0.00242705 -0.0299271 -0.0105626 0.00237452 -0.0299349
-0.010625 0.00237459 -0.029935 -0.010563 0.00243461 -0.0298747 -0.010625 0.00243497 -0.0298746
-0.0104938 0.00238109 -0.0298747 -0.0105006 0.0023741 -0.0299289 -0.0105129 0.00242425 -0.0299243
-0.0105102 0.00242712 -0.0298748 -0.0100561 0.00206901 -0.029875 -0.0100649 0.00212475 -0.0299371
-0.0100646 0.00212487 -0.029875 -0.010125 0.00199999 -0.0299978 -0.0101251 0.00206246 -0.0299977
-0.01001 0.00205263 -0.029875 -0.0101254 0.00212482 -0.0299974 -0.0100727 0.00212461 -0.0299897
-0.01075 0.0009397 -0.0299375 -0.0108125 0.000939851 -0.0299374 -0.0108125 0.000939636 -0.02975
-0.0108125 0.000939637 -0.0298125 -0.01075 0.000939636 -0.0298125 -0.01075 0.000939635 -0.02975
-0.0106875 0.000939637 -0.0299375 -0.0105 0.000939637 -0.0298125 -0.0105 0.000939636 -0.02975
-0.0105625 0.000939635 -0.02975 -0.0105625 0.000939636 -0.0298125 -0.0106875 0.000939635 -0.02975
-0.0106875 0.000939636 -0.0298125 -0.0104379 0.000939961 -0.0298125 -0.0104379 0.00093996 -0.02975
-0.0100129 0.00126278 -0.0299874 -0.0100083 0.00131328 -0.0299991 -0.0100023 0.00131277 -0.0299374
-0.0100101 0.00126005 -0.0299372 -0.0100089 0.00125063 -0.0297419 -0.0100099 0.00125962 -0.0298124
-0.0100021 0.00131248 -0.0298124 -0.010002 0.00131214 -0.0297503 -0.00993989 0.0014379 -0.02975
-0.00993996 0.0014379 -0.0298125 -0.011427 0.00168709 -0.0299271 -0.0113745 0.00168736 -0.0299349
-0.0114345 0.00168702 -0.029875 -0.0100028 0.00199966 -0.0297409 -0.0099931 0.00193721 -0.0297508
-0.00999362 0.00194388 -0.0298125 -0.0100021 0.00199989 -0.0298123 -0.00994776 0.0018125 -0.0299897
-0.00993997 0.0018125 -0.0299371 -0.00993963 0.00181249 -0.0298125 -0.0099396 0.00181246 -0.02975
-0.0113115 0.00199906 -0.0299288 -0.0113183 0.00200576 -0.0298747 -0.0103752 0.00106288 -0.0300599
-0.0103131 0.0010634 -0.0300539 -0.0103254 0.00101325 -0.0300493 -0.0103754 0.00101015 -0.0300522
-0.0102504 0.00107265 -0.0300522 -0.0103125 0.0011251 -0.0300601 -0.0102502 0.00112538 -0.0300599
-0.0101884 0.00112605 -0.0300538 -0.0101816 0.00111908 -0.0299996 -0.0101975 0.00107262 -0.0299995
-0.0102004 0.00107575 -0.0300493 -0.010126 0.00118844 -0.0300538 -0.0100756 0.00120039 -0.0300493
-0.0100724 0.00119747 -0.0299995 -0.0101191 0.00118158 -0.0299996 -0.0100725 0.00125034 -0.0300523
-0.0101254 0.00125018 -0.0300599 -0.010013 0.00132508 -0.0300494 -0.0100633 0.00131299 -0.030054
-0.0100629 0.00137518 -0.0300599 -0.0100099 0.00137523 -0.0300522 -0.00999523 0.00137549 -0.0299992
-0.0101251 0.00131253 -0.0300602 -0.0111936 0.00118136 -0.029875 -0.0111777 0.00113481 -0.0299371
-0.0111779 0.00113457 -0.029875 -0.0111312 0.00111885 -0.029875 -0.0111309 0.00111908 -0.0299371
-0.0112404 0.00119707 -0.029875 -0.011124 0.00112597 -0.0299913 -0.0111747 0.00113784 -0.0299869
-0.011365 0.00138487 -0.029875 -0.0113648 0.00138502 -0.029937 -0.0113187 0.00136867 -0.0299371
-0.0113189 0.00136849 -0.029875 -0.0113647 0.0014996 -0.0299895 -0.0113646 0.00143791 -0.0299896
-0.0112499 0.00137504 -0.0299977 -0.0113116 0.00137562 -0.0299914 -0.0113617 0.00138787 -0.0299868
-0.0113104 0.00131263 -0.029875 -0.0113025 0.00125987 -0.029875 -0.0113646 0.00193709 -0.0299271
-0.011312 0.00193736 -0.0299349 -0.0113121 0.001875 -0.029935 -0.0113647 0.001875 -0.0299272
-0.0111871 0.00212482 -0.0299349 -0.0111865 0.00218656 -0.0299288 -0.0111248 0.00218732 -0.029935
-0.011125 0.00212499 -0.0299353 -0.0111308 0.00225583 -0.0298747 -0.0111241 0.00224895 -0.0299288
-0.0111747 0.00223716 -0.0299244 -0.0111776 0.00224017 -0.0298745 -0.0109994 0.0023116 -0.0299289
-0.0110621 0.00230235 -0.0299272 -0.0110622 0.00230997 -0.0298747 -0.0110063 0.00231861 -0.0298746
-0.0111148 0.00230212 -0.0298748 -0.0111121 0.00229925 -0.0299243 -0.010875 0.00231219 -0.0299351
-0.0109374 0.00231202 -0.0299349 -0.0109371 0.00236455 -0.0299271 -0.010875 0.00236504 -0.0299273
-0.0106875 0.00237459 -0.029935 -0.0106875 0.00242724 -0.0299272 -0.0106875 0.00243497 -0.0298746
-0.0100727 0.00217748 -0.029937 -0.0100725 0.00217763 -0.029875 -0.0101191 0.00219341 -0.0299371
-0.0101189 0.00219363 -0.029875 -0.010126 0.00218648 -0.0299913 -0.0100757 0.00217463 -0.0299868
-0.0102436 0.00225636 -0.0298749 -0.0101877 0.00224788 -0.029875 -0.0101876 0.0021249 -0.0299978
-0.0101379 0.00223675 -0.0299868 -0.010135 0.0022398 -0.029937 -0.0101349 0.00224004 -0.029875
-0.0103751 0.00231201 -0.0299349 -0.0104375 0.00231219 -0.0299351 -0.0104375 0.00236504 -0.0299273
-0.0103754 0.00236455 -0.0299271 -0.0103254 0.00236175 -0.0299243 -0.0103134 0.00231149 -0.029929
-0.0103066 0.00231841 -0.0298746 -0.0103225 0.0023648 -0.0298745 -0.0103754 0.00237226 -0.0298745
-0.0102629 0.00229979 -0.0299247 -0.0102598 0.00230274 -0.0298746 -0.0109999 0.00100211 -0.029875
-0.010944 0.000993568 -0.029875 -0.0103751 0.00100219 -0.0299996 -0.0103754 0.000995016 -0.029937
-0.01075 0.00150004 -0.0299883 -0.01075 0.001625 -0.0299873 -0.0108747 0.00174974 -0.0299891
-0.01075 0.00174998 -0.0299875 -0.0102591 0.00150079 -0.0299974 -0.0102544 0.00162929 -0.0299958
-0.0102503 0.00156263 -0.0299984 -0.0105 0.00175 -0.029988 -0.0103755 0.00174998 -0.0299903
-0.0102507 0.00175001 -0.0299939 -0.00994769 0.00162502 -0.02999 -0.00993995 0.00162496 -0.0299372
-0.00993964 0.0015625 -0.029875 -0.00993964 0.0015 -0.029875 -0.0104375 0.001125 -0.0300604
-0.0105 0.00112499 -0.0300603 -0.0103121 0.00131212 -0.0300598 -0.0101248 0.00143713 -0.0300599
-0.0101248 0.00149017 -0.0300525 -0.0101251 0.00150648 -0.0300065 -0.0111152 0.00107231 -0.0299371
-0.0110686 0.00105637 -0.029875 -0.0111154 0.00107207 -0.029875 -0.0110526 0.00100996 -0.029875
-0.0111122 0.00107534 -0.0299869 -0.0111348 0.00111518 -0.0297419 -0.0111362 0.00111381 -0.029687
-0.0112228 0.0011524 -0.0296245 -0.0112263 0.00114882 -0.0296865 -0.0112309 0.00114422 -0.0297252
-0.0111867 0.00113475 -0.0297497 -0.0111153 0.00106335 -0.0297497 -0.0111056 0.00101949 -0.0297252
-0.0111008 0.00102436 -0.0296866 -0.0109991 0.00100222 -0.0296871 -0.0113657 0.00137592 -0.0297422
-0.0113613 0.00131381 -0.0297376 -0.0113546 0.00127007 -0.0297259 -0.0113482 0.0012761 -0.0296886
-0.0113394 0.00128471 -0.0296578 -0.0113496 0.00137823 -0.0296263 -0.0112673 0.00135942 -0.0296075
-0.01126 0.00125084 -0.029625 -0.0112622 0.00131199 -0.0296129 -0.0112722 0.00135167 -0.0294987
-0.0113355 0.00141171 -0.0294998 -0.0111872 0.00156233 -0.0299975 -0.0111873 0.00149999 -0.0299978
-0.0111245 0.00168683 -0.02999 -0.0111367 0.00169684 -0.0299468 -0.0112666 0.00201576 -0.0295009
-0.0112626 0.00201155 -0.0296065 -0.0113116 0.00200731 -0.0296254 -0.0113595 0.00198024 -0.0296202
-0.0113386 0.00196429 -0.0295031 -0.011362 0.00198096 -0.0297312 -0.0113651 0.00193677 -0.0297497
-0.0113028 0.00205275 -0.0296878 -0.0112561 0.00206855 -0.0296876 -0.0113189 0.00200829 -0.0296874
-0.0111378 0.00213779 -0.029499 -0.0111365 0.0021365 -0.0295621 -0.0111375 0.00213749 -0.0296075
-0.0111866 0.00213151 -0.0296258 -0.0112357 0.00211071 -0.0296158 -0.0112254 0.00210042 -0.0295619
-0.011221 0.00209547 -0.0294996 -0.0111107 0.00223571 -0.0296158 -0.0111315 0.00218664 -0.0296258
-0.0110964 0.00222138 -0.0294998 -0.0111006 0.00222555 -0.0295619 -0.0110171 0.00226702 -0.0294995
-0.0110119 0.00226205 -0.0296064 -0.0110616 0.00225658 -0.0296258 -0.0110685 0.00225606 -0.0296876
-0.0110524 0.00230254 -0.0296878 -0.0109999 0.00231059 -0.0296877 -0.0106875 0.002112 -0.0299872
-0.01075 0.00213279 -0.0299443 -0.0106875 0.00213392 -0.0299445 -0.0109808 0.00235547 -0.0296002
-0.0109363 0.00236459 -0.0296247 -0.0109468 0.00232152 -0.0296365 -0.0109993 0.00231136 -0.0296253
-0.0109458 0.00232076 -0.0297417 -0.0109443 0.00231916 -0.0296876 -0.0101125 0.00213737 -0.0297324
-0.0101184 0.00218658 -0.0297508 -0.0101394 0.00223546 -0.0297408 -0.0101481 0.00222692 -0.0296871
-0.0101508 0.0022242 -0.0296249 -0.0101136 0.00213647 -0.029687 -0.0102387 0.00226125 -0.0296872
-0.0102373 0.00226267 -0.029624 -0.0100254 0.00209978 -0.0296864 -0.0100196 0.00210571 -0.0297252
-0.0100637 0.00212432 -0.0297503 -0.0102325 0.00226745 -0.0295003 -0.0102792 0.00234542 -0.0296246
-0.0102752 0.00234958 -0.0296867 -0.0102695 0.0023554 -0.0297253 -0.0103138 0.00236466 -0.0297497
-0.0103756 0.00237174 -0.0297409 -0.010377 0.00236734 -0.0296245 -0.0103795 0.00236176 -0.0295
-0.010625 0.000939637 -0.0299375 -0.0105625 0.000939636 -0.029875 -0.0105 0.000939699 -0.029875
-0.0107494 0.000886091 -0.0296054 -0.0107457 0.000888379 -0.0294979 -0.0108401 0.000911207 -0.0294983
-0.0108557 0.000894783 -0.0295998 -0.0108114 0.000888626 -0.0296118 -0.0108741 0.000938793 -0.0296251
-0.0108123 0.000930764 -0.0296337 -0.01075 0.000939262 -0.0296879 -0.0108125 0.000939345 -0.0296878
-0.0105 0.000939262 -0.0296879 -0.0105625 0.000939262 -0.0296879 -0.0106875 0.000887849 -0.029612
-0.0106875 0.000939262 -0.0296879 -0.010438 0.00094011 -0.0298749 -0.0103687 0.000993706 -0.0298749
-0.0103851 0.00094764 -0.0298747 -0.0103878 0.000950383 -0.0299249 -0.0104379 0.000939584 -0.0296878
-0.0106294 0.00125476 -0.0299964 -0.0106248 0.00118747 -0.0300079 -0.0102374 0.00111258 -0.0297321
-0.0102244 0.00110008 -0.0296495 -0.0102524 0.00102606 -0.0296224 -0.0101253 0.00113313 -0.0297421
-0.0101293 0.00111155 -0.0296222 -0.0101876 0.00111782 -0.029751 -0.0101098 0.00110879 -0.0294983
-0.0102536 0.00101294 -0.0294981 -0.0100108 0.00125235 -0.0295001 -0.0100354 0.00115861 -0.0296237
-0.0100083 0.00125166 -0.0296242 -0.0100204 0.00114501 -0.0297244 -0.0100137 0.00118867 -0.0297369
-0.0100637 0.00113831 -0.0297368 -0.0100631 0.00118807 -0.029757 -0.0101159 0.00117865 -0.0297601
-0.0099936 0.00136452 -0.029746 -0.00999103 0.00136696 -0.0296872 -0.00994764 0.00138505 -0.0299372
-0.00995038 0.00138778 -0.0299874 -0.00999371 0.00136866 -0.0299374 -0.00993996 0.0014379 -0.029875
-0.00999357 0.00136849 -0.029875 -0.00994746 0.00138487 -0.029875 -0.0099322 0.00150026 -0.0296873
-0.00993941 0.00143779 -0.0296878 -0.0113731 0.00175001 -0.0297499 -0.01138 0.00174947 -0.029813
-0.0113126 0.00162524 -0.0299358 -0.011362 0.00154965 -0.0299867 -0.0113125 0.00168749 -0.0299354
-0.0100005 0.00187486 -0.0299974 -0.0100626 0.00187491 -0.0299978 -0.0100627 0.00193741 -0.0299977
-0.0101251 0.00193741 -0.0299979 -0.0100021 0.00199987 -0.029875 -0.00999357 0.00194401 -0.029875
-0.0101293 0.00187079 -0.0299978 -0.00999082 0.00188324 -0.029687 -0.00999171 0.00188808 -0.029737
-0.00994024 0.00187456 -0.029937 -0.00994795 0.00187459 -0.0299896 -0.00995075 0.00192463 -0.0299868
-0.0099477 0.00192748 -0.029937 -0.00992933 0.00155435 -0.0296957 -0.00988403 0.00174919 -0.0296169
-0.00988724 0.00174597 -0.0294991 -0.00987753 0.00168736 -0.0296252 -0.00988846 0.00181139 -0.0296121
-0.00989483 0.00185542 -0.0296 -0.00991024 0.00184091 -0.0294991 -0.00993096 0.00175647 -0.0296876
-0.0099393 0.00181246 -0.0296879 -0.0113725 0.00187499 -0.0298746 -0.0113729 0.00181262 -0.0298746
-0.0113731 0.00181261 -0.0298124 -0.0113727 0.00187508 -0.0298124 -0.0113729 0.00181258 -0.0297499
-0.0113725 0.00187887 -0.0297456 -0.011365 0.00181252 -0.0299273 -0.0113122 0.00181246 -0.0299351
-0.0112419 0.00212454 -0.0297505 -0.0112369 0.00217474 -0.0297625 -0.0112398 0.00217744 -0.0298128
-0.0112477 0.0021248 -0.0298126 -0.0111955 0.00213326 -0.0297418 -0.0111866 0.0021866 -0.0297508
-0.0111246 0.00224203 -0.0297504 -0.0111243 0.00225477 -0.029813 -0.0111775 0.00224006 -0.0298128
-0.0111747 0.00223705 -0.0297626 -0.0111333 0.00219555 -0.0297418 -0.0112476 0.00212475 -0.0298746
-0.0112398 0.00217748 -0.0298745 -0.011125 0.0020625 -0.0299354 -0.0111874 0.00206246 -0.0299351
-0.0108751 0.00237288 -0.0298746 -0.010875 0.00237304 -0.0298125 -0.0108122 0.00238015 -0.0298129
-0.0108187 0.00238109 -0.0298747 -0.0107565 0.00238149 -0.0297499 -0.0107583 0.00238326 -0.0298042
-0.0108127 0.00237337 -0.0297499 -0.0108749 0.00237273 -0.02975 -0.0108119 0.0023741 -0.0299289
-0.0108125 0.0023124 -0.0299351 -0.0109371 0.00237226 -0.0298745 -0.010937 0.00237239 -0.0298126
-0.0109872 0.00236212 -0.0297626 -0.0109899 0.00236486 -0.0298128 -0.0109368 0.00236664 -0.0297505
-0.01099 0.0023648 -0.0298745 -0.010625 0.0023125 -0.0299354 -0.0105625 0.00231249 -0.0299353
-0.0106875 0.0023125 -0.0299354 -0.0104956 0.00237333 -0.0297456 -0.0105003 0.00238015 -0.0298129
-0.0105541 0.00238326 -0.0298042 -0.0105559 0.00238149 -0.0297498 -0.010875 0.00100046 -0.0299977
-0.010875 0.00106252 -0.029998 -0.0107463 0.00112819 -0.0300052 -0.0108125 0.00112516 -0.0299983
-0.010875 0.00112499 -0.0299979 -0.0103223 0.00101004 -0.0299996 -0.0103132 0.00100816 -0.029937
-0.0102601 0.00101014 -0.0298747 -0.0103128 0.00100227 -0.0298749 -0.0102628 0.00101288 -0.0299249
-0.0102506 0.00105761 -0.0299371 -0.010244 0.00105645 -0.0298749 -0.010625 0.00175 -0.0299872
-0.01075 0.00187489 -0.029989 -0.00993964 0.00175 -0.029875 -0.00993964 0.0016875 -0.029875
-0.0106875 0.000939636 -0.029875 -0.01075 0.000939636 -0.029875 -0.010625 0.000939636 -0.0298125
-0.010625 0.000939635 -0.02975 -0.0101348 0.00113481 -0.0299996 -0.0101346 0.00113458 -0.0299375
-0.0101814 0.00111886 -0.0299375 -0.0101189 0.00118136 -0.0299375 -0.0101346 0.00113458 -0.029875
-0.0101814 0.00111886 -0.029875 -0.0101189 0.00118136 -0.029875 -0.01001 0.00125987 -0.029875
-0.0100564 0.00124386 -0.029875 -0.0100564 0.00124402 -0.0299374 -0.0100021 0.00131263 -0.029875
-0.00993964 0.0018125 -0.029875 -0.010625 0.00106241 -0.0300602 -0.0105623 0.00112483 -0.03006
-0.0110626 0.00212503 -0.0299356 -0.0110628 0.00206253 -0.0299357 -0.0108745 0.000940221 -0.0299371
-0.0109275 0.000947702 -0.029937 -0.0109246 0.00095075 -0.0299868 -0.0108746 0.000947889 -0.0299899
-0.0114245 0.00157536 -0.0298254 -0.01138 0.00156299 -0.0298129 -0.0114245 0.00173714 -0.0298254
-0.0103747 0.0012497 -0.0300544 -0.010375 0.00118741 -0.0300602 -0.0101749 0.0014872 -0.0300496
-0.0101868 0.00143665 -0.030054 -0.0101872 0.00149924 -0.0300057 -0.0102376 0.00142507 -0.0300498
-0.0101873 0.00137483 -0.03006 -0.0102495 0.00137447 -0.0300542 -0.0111782 0.00113445 -0.0298125
-0.0111319 0.0011181 -0.0298123 -0.0111156 0.00107182 -0.0298125 -0.0113216 0.00136577 -0.0297602
-0.0113191 0.00136836 -0.0298127 -0.0110625 0.00218749 -0.0299354 -0.0106251 0.00243516 -0.0298125
-0.0105632 0.00242913 -0.029813 -0.0105128 0.00242462 -0.0298251 -0.0106874 0.00243516 -0.0298125
-0.010119 0.00219345 -0.0298125 -0.0101349 0.00223989 -0.0298123 -0.0100646 0.00212487 -0.0298128
-0.0100725 0.00217745 -0.0298128 -0.0103222 0.0023651 -0.0298125 -0.0103753 0.00237253 -0.0298123
-0.0108124 0.00118766 -0.0299979 -0.0107506 0.00118798 -0.0299982 -0.0108749 0.00125894 -0.0299972
-0.0108124 0.00124967 -0.0299977 -0.010875 0.00118768 -0.0299979 -0.0103647 0.000993807 -0.0297459
-0.0103684 0.000993575 -0.0298124 -0.010875 0.00218785 -0.0299357 -0.010875 0.00213279 -0.0299443
-0.0109375 0.00218777 -0.0299357 -0.0108125 0.00218786 -0.0299357 -0.0108125 0.00213392 -0.0299445
-0.0104376 0.0021879 -0.0299359 -0.0103747 0.00218729 -0.0299428 -0.010384 0.00213508 -0.0299465
-0.0103626 0.00217482 -0.0299873 -0.0106873 0.00111529 -0.0300525 -0.0107374 0.00111234 -0.0300497
-0.0111873 0.0014375 -0.0299979 -0.0111873 0.001375 -0.0299979 -0.0111252 0.0014375 -0.0299977
-0.0111161 0.00137505 -0.0299973 -0.0111876 0.00187503 -0.0299356 -0.0111875 0.0019375 -0.0299354
-0.011125 0.00193759 -0.0299356 -0.0111248 0.00187479 -0.0299426 -0.0111878 0.00181253 -0.0299357
-0.0108125 0.000939638 -0.029875 -0.0109276 0.00094746 -0.02975 -0.0109276 0.00094746 -0.0298125
-0.0108746 0.00093996 -0.0298125 -0.0108746 0.00093996 -0.02975 -0.0103848 0.000947472 -0.0298125
-0.0103848 0.000947434 -0.0297499 -0.0101973 0.0010722 -0.0299375 -0.0100721 0.00119716 -0.0299375
-0.0101344 0.00113447 -0.0298124 -0.0101814 0.00111889 -0.0298125 -0.0101186 0.00118116 -0.0298127
-0.0100562 0.00124364 -0.0298127 -0.00999357 0.00136842 -0.0298124 -0.00994743 0.00138477 -0.0297499
-0.00994747 0.00138483 -0.0298125 -0.0101877 0.00193745 -0.0299978 -0.0102548 0.00187026 -0.0299967
-0.0102497 0.00193737 -0.0299977 -0.0101878 0.00187547 -0.0299978 -0.00995031 0.00192477 -0.0297625
-0.00994581 0.00187439 -0.0297504 -0.00994011 0.00187453 -0.0298126 -0.00994762 0.00192745 -0.0298128
-0.0112375 0.00161251 -0.0299872 -0.0112497 0.0016248 -0.0299428 -0.0111956 0.00163316 -0.0299457
-0.0111866 0.00162424 -0.0299915 -0.0111749 0.00167499 -0.0299872 -0.0113728 0.00168745 -0.0296873
-0.0113729 0.00175 -0.0296873 -0.0113728 0.00162547 -0.0296872 -0.0113716 0.00162027 -0.0296202
-0.0113727 0.00168737 -0.0296253 -0.0113722 0.00175 -0.0296161 -0.0113728 0.00181255 -0.0296873
-0.0113725 0.00187408 -0.0296871 -0.0113711 0.00187888 -0.0296201 -0.0113727 0.00181262 -0.0296253
-0.0111751 0.00217508 -0.0296375 -0.011178 0.00217802 -0.0296877 -0.0111936 0.00213128 -0.0296874
-0.0111313 0.00219362 -0.0296874 -0.0112403 0.00211549 -0.0296872 -0.0112566 0.00206169 -0.0296258
-0.0111155 0.00224035 -0.0296872 -0.010625 0.00218785 -0.0299357 -0.0105625 0.00218786 -0.0299357
-0.0105625 0.00213392 -0.0299445 -0.010625 0.00213279 -0.0299443 -0.0106875 0.00218786 -0.0299357
-0.0108126 0.00237309 -0.0296873 -0.0107495 0.00238001 -0.0296879 -0.0108748 0.00237255 -0.0296873
-0.0108744 0.00237166 -0.029616 -0.0108125 0.00237282 -0.0296252 -0.01075 0.00237245 -0.029616
-0.010928 0.00236519 -0.0296875 -0.010563 0.00238 -0.0296879 -0.0105004 0.00237311 -0.0296872
-0.0105624 0.00237303 -0.0296253 -0.0104953 0.00237173 -0.0296202 -0.010625 0.000939261 -0.0296879
-0.0105 0.000930656 -0.0296328 -0.0106875 0.000930454 -0.0296339 -0.01075 0.000930656 -0.0296328
-0.0109439 0.000993614 -0.0296875 -0.0109374 0.000992862 -0.0296258 -0.00988514 0.0016253 -0.0297399
-0.00987762 0.00162514 -0.0296868 -0.00988351 0.00156324 -0.0296865 -0.00988788 0.00157506 -0.0297372
-0.00992851 0.00149099 -0.0296351 -0.00988773 0.00151244 -0.0296748 -0.009888 0.00173714 -0.0297371
-0.00988505 0.00174023 -0.029687 -0.00987773 0.00168715 -0.0296869 -0.00988516 0.0016871 -0.02974
-0.00992841 0.00175921 -0.0296352 -0.0110629 0.00193781 -0.029936 -0.0101999 0.00107494 -0.0297624
-0.0101972 0.00107224 -0.0298128 -0.0100718 0.00119681 -0.0298128 -0.0103653 0.00131224 -0.0300525
-0.0103122 0.00136533 -0.0300525 -0.0113001 0.00205013 -0.0296374 -0.0110497 0.00229996 -0.0296374
-0.0105754 0.0024245 -0.0297004 -0.0107371 0.0024245 -0.0297004 -0.0108746 0.000939862 -0.0296877
-0.0109274 0.000947537 -0.0296878 -0.0103847 0.000947071 -0.0296875 -0.010438 0.000930823 -0.0296337
-0.00994707 0.00138468 -0.0296875 -0.00993066 0.00143777 -0.0296339 -0.00994698 0.00186555 -0.0296874
-0.00993065 0.0018123 -0.0296339 -0.0109997 0.00137529 -0.0299934 -0.0108748 0.0013754 -0.0299918
-0.0105007 0.00137606 -0.0299939 -0.0106253 0.00137566 -0.0299917 -0.0103784 0.00137854 -0.0300043
-0.0113666 0.0015007 -0.0296247 -0.0113601 0.00150466 -0.0295003 -0.0110629 0.002 -0.0299357
-0.0110091 0.0019378 -0.0299447 -0.011365 0.00162471 -0.0294996 -0.0113614 0.00187062 -0.0295013
-0.0108713 0.00236375 -0.0294995 -0.0109671 0.0023415 -0.0294994 -0.0106248 0.0023661 -0.0294996
-0.0104998 0.00236579 -0.0294997 -0.0103753 0.00187458 -0.0299914 -0.0108875 0.000987556 -0.0296064
-0.0108973 0.000979019 -0.0294992 -0.0109247 0.000950035 -0.0296374 -0.0112596 0.00124039 -0.0297422
-0.0112569 0.00124311 -0.0298123 -0.0112559 0.00124408 -0.0299371 -0.0112501 0.00168759 -0.0299358
-0.0113124 0.00174997 -0.0299352 -0.01125 0.00174999 -0.0299354 -0.00993852 0.00186509 -0.0296246
-0.0112498 0.00199983 -0.029935 -0.011 0.00125894 -0.0299973 -0.011 0.00118768 -0.0299979
-0.0110624 0.00118761 -0.0299978 -0.0110624 0.00124962 -0.0299978 -0.0111872 0.00125026 -0.0299975
-0.0109375 0.00124976 -0.0299977 -0.0109375 0.00118767 -0.0299979 -0.0107454 0.00125505 -0.0299969
-0.010306 0.00105619 -0.0299998 -0.0102502 0.00106471 -0.0299997 -0.0100578 0.00125073 -0.0299992
-0.0100545 0.00130437 -0.0300078 -0.0101957 0.00144568 -0.0300082 -0.0102494 0.00143732 -0.030007
-0.0100004 0.00175 -0.0299975 -0.0100004 0.0016875 -0.0299975 -0.0100004 0.0018125 -0.0299975
-0.01125 0.00193749 -0.0299353 -0.01125 0.0018125 -0.0299354 -0.0111934 0.00219342 -0.0298127
-0.0111875 0.00199999 -0.0299353 -0.0110623 0.00224962 -0.0299349 -0.011 0.0022499 -0.0299351
-0.011 0.00218759 -0.0299356 -0.0109375 0.00224999 -0.0299353 -0.0108125 0.00225 -0.0299354
-0.01075 0.00231249 -0.0299353 -0.01075 0.00225 -0.0299354 -0.0105625 0.00225 -0.0299354
-0.0105 0.0023124 -0.0299351 -0.0105 0.00225 -0.0299354 -0.0106875 0.00225 -0.0299354
-0.0106872 0.00243478 -0.0297505 -0.0107493 0.00242913 -0.029813 -0.0107402 0.00242742 -0.0297504
-0.0104375 0.00224999 -0.0299354 -0.0103042 0.00105423 -0.0299458 -0.0113726 0.00149981 -0.029937
-0.0113731 0.00149987 -0.029875 -0.01075 0.00218785 -0.0299357 -0.0105 0.00218785 -0.0299357
-0.011 0.00112501 -0.0299978 -0.0110623 0.00112518 -0.0299975 -0.0111207 0.00125425 -0.0299978
-0.0111254 0.00131264 -0.0299978 -0.0111874 0.00131256 -0.0299978 -0.0109375 0.001125 -0.0299979
-0.0106379 0.00113866 -0.0300077 -0.0106876 0.00113311 -0.0300089 -0.0106245 0.00112448 -0.0300542
-0.0106126 0.00117508 -0.0300499 -0.0113725 0.0014379 -0.029875 -0.0113723 0.00143794 -0.029937
-0.0113721 0.00193699 -0.0298747 -0.0113646 0.0019898 -0.0298748 -0.0113617 0.00198713 -0.0299243
-0.0111879 0.00175009 -0.0299359 -0.0109871 0.00236175 -0.0299243 -0.0104374 0.00237288 -0.0298746
-0.0100626 0.00168756 -0.0299979 -0.0100627 0.00175 -0.0299979 -0.010134 0.00175001 -0.0299973
-0.0101247 0.0016876 -0.0299978 -0.0101298 0.00162922 -0.0299975 -0.0101878 0.00162515 -0.0299984
-0.0100626 0.00181244 -0.0299979 -0.0101247 0.00181241 -0.0299978 -0.0112561 0.00124385 -0.029875
-0.0100537 0.00124087 -0.0297602 -0.0112368 0.00217463 -0.0299243 -0.0112398 0.00212461 -0.0299272
-0.0111247 0.00118776 -0.0299975 -0.010375 0.00112501 -0.0300603 -0.0101378 0.00113784 -0.0300494
-0.010125 0.001375 -0.0300602 -0.0100004 0.00162512 -0.0299979 -0.01125 0.001875 -0.0299354
-0.0111934 0.00219342 -0.0298746 -0.010875 0.00225 -0.0299354 -0.0108023 0.00242712 -0.0298748
-0.0107996 0.00242425 -0.0299243 -0.0107496 0.00242705 -0.0299271 -0.0107499 0.00237452 -0.0299349
-0.0107495 0.00243461 -0.0298747 -0.0103751 0.00225009 -0.0299357 -0.00993964 0.001625 -0.029875
-0.0107498 0.00137557 -0.0299911 -0.010383 0.00131294 -0.030009 -0.0103881 0.00126331 -0.0300084
-0.0103623 0.0013623 -0.0300495 -0.010263 0.00138802 -0.0300082 -0.0103128 0.00138298 -0.0300089
-0.0112609 0.00123923 -0.0296875 -0.0112414 0.00125178 -0.0294995 -0.0113721 0.00150001 -0.029741
-0.0113723 0.00143766 -0.0297502 -0.0111874 0.00168725 -0.0299428 -0.0113731 0.00156239 -0.0297502
-0.0113648 0.00174974 -0.0294998 -0.0113619 0.0019869 -0.0296868 -0.0107499 0.00236616 -0.0294995
-0.010075 0.00217475 -0.0297624 -0.0104374 0.0023729 -0.0297503 -0.010625 0.000939636 -0.029875
-0.0103671 0.000991294 -0.0296871 -0.00994746 0.00192763 -0.029875 -0.00993996 0.0018746 -0.029875
-0.011125 0.002 -0.0299354 -0.010625 0.00225 -0.0299354 -0.0101247 0.00156283 -0.0299989
-0.0100626 0.00162514 -0.0299981 -0.0109276 0.000947461 -0.029875 -0.0108746 0.000939961 -0.029875
-0.0113731 0.00149995 -0.0298123 -0.0113621 0.00198722 -0.0298251 -0.0113651 0.00138463 -0.0298124
-0.0113725 0.00143781 -0.0298123 -0.0113667 0.001937 -0.0298131 -0.0111122 0.00229962 -0.0298251
-0.0107997 0.00242462 -0.0298251 -0.0105723 0.00242742 -0.0297504 -0.0106253 0.00243478 -0.0297505
-0.0104374 0.0023731 -0.0298124 -0.0101972 0.0010721 -0.029875 -0.0100721 0.00119708 -0.029875
-0.0101877 0.00156262 -0.03
        </DataArray>
      </Points>
      <Polys>
        <DataArray type='Int32' Name='connectivity' format='ascii'>
0 1 2 3 4 5 6 7 8
9 10 11 12 13 14 15 16 17
18 19 20 21 22 23 18 24 25
19 26 27 28 29 28 27 30 31
32 33 34 35 32 35 36 37 38
39 40 41 42 43 44 45 2 46
47 48 49 50 51 52 49 52 53
54 55 56 53 57 58 54 59 60
61 62 63 60 64 65 61 66 67
68 69 68 70 71 69 68 67 72
73 74 70 68 73 72 75 74 73
66 76 77 67 72 67 77 78 79
80 81 82 79 82 83 84 85 86
79 84 83 48 85 84 83 82 0
3 2 48 83 3 32 37 87 88
87 89 90 88 91 92 93 94 95
38 96 97 98 39 59 99 100 101
60 102 103 104 105 106 105 104 107
108 109 110 111 112 0 82 81 113
114 113 81 115 0 113 114 1 116
117 71 70 118 119 120 121 122 121
123 124 122 116 70 74 125 74 75
126 125 127 119 118 128 129 130 131
127 129 132 85 48 47 133 134 135
136 137 138 139 140 134 138 141 142
143 144 145 146 145 144 147 102 148
149 150 108 151 152 109 153 140 139
154 155 156 157 158 159 160 161 158
157 6 162 163 7 163 164 4 7
163 162 165 166 167 164 163 166 168
169 6 5 6 169 170 162 170 169
168 171 172 173 174 175 176 175 174
177 178 179 180 181 180 179 182 183
182 179 184 185 186 187 188 189 190
191 192 193 192 191 194 195 196 197
198 199 200 201 202 203 142 204 205
143 206 207 208 209 208 207 210 211
212 161 160 213 214 215 216 217 218
215 214 219 220 221 222 223 224 225
226 227 228 229 230 231 232 233 234
235 232 235 236 237 220 223 238 239
240 239 238 241 190 193 242 243 244
245 246 247 244 247 248 249 250 251
252 253 252 251 254 255 254 251 250
256 42 257 258 43 49 56 259 260
261 59 262 263 99 264 265 266 267
268 269 270 271 272 273 22 21 274
56 55 275 276 224 63 62 277 278
225 232 237 279 280 281 280 279 282
283 69 71 284 283 285 66 69 165
162 170 286 172 175 287 288 176 289
287 175 290 288 287 289 291 292 293
294 295 260 292 296 297 293 260 295
298 299 300 301 302 303 304 301 300
305 306 307 308 309 310 107 311 312
313 314 104 103 310 315 106 107 316
317 104 314 318 319 4 164 320 321
322 323 318 164 167 324 325 326 327
328 329 323 322 330 325 331 332 326
333 334 335 336 337 338 339 340 341
342 270 269 252 343 344 253 345 343
252 255 346 347 348 349 264 267 350
351 272 352 353 273 354 355 14 13
283 284 167 166 283 166 165 285 356
357 358 359 360 357 361 362 363 364
365 366 363 366 360 362 367 368 369
370 371 368 367 372 180 183 363 362
367 183 182 372 373 374 375 376 377
334 373 376 378 374 371 372 379 199
380 381 382 381 380 383 196 199 379
384 385 383 380 386 387 388 389 390
391 143 205 392 393 394 205 204 395
394 389 388 395 392 205 394 396 211
210 397 208 211 389 394 393 209 208
394 398 399 400 401 402 403 404 405
406 407 408 409 410 411 412 413 406
414 415 407 416 417 418 419 420 421
300 303 300 421 422 305 311 423 424
312 424 423 425 426 316 427 428 317
429 430 234 233 278 237 236 431 432
235 234 433 432 427 236 235 316 431
236 427 434 433 234 430 435 436 437
438 435 438 439 440 441 440 439 442
443 442 439 438 444 440 441 445 429
233 444 445 446 37 36 447 448 449
126 75 450 41 40 451 291 452 40
39 453 451 40 452 454 45 44 455
456 457 458 44 43 459 455 44 458
2 460 461 46 462 463 47 46 356
359 72 78 464 78 77 465 184 179
178 466 79 376 375 80 467 468 81
80 469 115 81 468 470 89 471 472
382 383 470 472 471 89 87 473 446
473 87 37 385 474 470 383 475 476
93 477 478 479 480 479 187 186 480
475 481 482 483 94 93 476 190 484
95 94 483 482 191 482 481 194 191
485 486 487 488 489 490 491 490 489
492 493 491 494 495 490 142 145 496
497 291 39 98 498 292 292 498 499
296 500 501 502 503 504 505 161 212
506 158 507 508 159 158 161 509 507
510 511 512 513 514 515 516 517 518
512 511 510 519 520 521 522 523 517
520 519 214 217 524 525 214 525 526
219 274 276 527 100 99 276 528 529
527 530 531 532 533 534 219 526 535
536 537 538 539 540 111 541 220 542
543 540 539 538 221 110 544 545 546
536 541 111 346 229 545 544 110 109
545 229 228 546 547 112 111 540 543
548 549 550 551 552 553 220 239 550
549 548 543 542 550 239 240 551 547
543 548 553 554 71 117 555 284 556
117 116 557 558 559 560 561 562 561
563 564 562 565 566 320 323 567 568
327 326 558 569 121 120 559 565 323
329 570 571 557 116 125 572 573 574
449 567 326 332 575 576 288 290 577
244 249 578 579 580 581 582 579 578
583 580 579 582 584 585 586 584 582
587 588 337 588 587 589 590 589 591
592 590 581 593 592 591 586 588 136
135 337 340 594 595 136 588 596 597
85 133 377 597 596 598 599 133 47
463 600 598 596 601 602 603 341 269
604 605 18 17 250 253 606 147 144
607 250 147 391 607 144 143 344 608
606 253 609 610 611 150 313 103 611
612 613 614 149 148 615 612 611 610
346 109 152 616 617 347 618 619 620
621 602 269 268 622 623 624 153 155
625 623 626 627 628 624 629 273 353
630 631 632 633 634 604 635 633 605
8 605 633 632 636 634 633 635 637
401 400 638 639 640 641 642 639 643
644 640 645 646 647 648 645 648 644
649 650 642 641 651 406 409 647 646
652 653 402 405 639 642 156 159 650
15 156 642 645 217 216 646 654 655
656 657 658 659 656 660 661 660 656
655 416 419 662 663 654 664 665 655
666 667 218 219 666 668 665 667 666
219 534 668 669 413 218 667 669 667
665 664 661 655 665 668 670 303 302
671 670 672 420 303 673 674 675 676
677 678 168 5 679 171 168 680 681
680 168 678 446 447 242 193 448 682
683 449 684 685 683 686 684 686 687
688 572 449 683 685 450 451 258 257
457 43 258 689 453 689 258 451 291
260 259 452 274 690 259 56 453 452
259 690 274 99 263 690 457 689 263
262 453 690 263 689 266 265 461 460
264 691 692 265 270 463 462 271 20
23 268 271 272 21 692 691 555 324
167 284 693 694 318 324 325 328 556
557 695 328 327 696 322 694 693 330
329 330 695 696 697 698 699 364 697
370 700 698 701 702 699 698 701 698
700 703 377 598 335 334 704 705 706
336 704 336 335 707 600 707 335 598
350 619 618 351 708 691 264 351 709
76 66 285 710 465 77 76 652 405
711 712 713 714 715 716 25 255 254
717 254 256 718 717 25 717 718 19
345 255 25 24 8 11 719 605 14
355 160 157 156 15 14 157 464 465
176 177 174 720 721 177 180 362 361
181 178 181 721 720 722 468 467 723
469 468 722 724 725 723 726 727 378
372 182 185 726 185 184 727 379 381
728 189 382 729 728 381 379 189 188
384 475 480 728 729 730 472 471 195
382 472 730 729 192 195 471 473 446
193 192 473 475 729 730 481 396 397
200 203 202 731 732 203 404 733 711
405 218 413 412 215 304 305 734 735
306 309 736 674 422 737 734 305 429
223 222 430 538 537 738 739 538 739
222 221 434 739 738 426 434 430 222
739 313 227 226 314 278 431 226 225
316 314 226 431 310 312 740 231 310
231 230 315 424 741 740 312 424 426
738 741 441 442 742 241 443 743 742
442 238 445 441 241 429 445 238 223
552 551 742 743 679 680 744 745 746
747 744 748 681 748 744 680 684 247
246 685 684 688 248 247 749 750 246
245 572 685 246 750 751 752 58 753
751 754 755 752 65 756 757 758 278
277 279 237 62 759 279 277 165 286
709 285 760 286 170 761 393 204 762
763 96 764 762 497 765 763 762 764
766 767 768 769 297 770 766 769 4
319 713 716 318 694 771 319 772 773
774 775 322 321 771 694 774 321 320
775 325 557 571 331 332 331 776 777
749 777 776 750 572 750 776 573 365
364 699 778 700 370 369 779 701 780
781 702 701 703 782 780 581 583 781
780 581 780 782 593 704 338 783 705
704 707 339 338 594 340 339 784 600
784 339 707 599 463 270 342 341 785
786 342 594 784 786 785 600 601 786
784 313 612 787 227 788 789 787 790
615 790 787 612 613 349 348 614 791
792 793 794 272 691 708 352 353 352
793 792 795 796 797 798 795 798 496
145 96 497 496 97 98 97 496 798
98 798 799 498 604 17 800 801 16
802 800 17 803 804 800 802 805 801
800 804 604 801 806 635 636 635 806
807 808 807 806 809 805 809 806 801
810 811 812 513 810 518 813 811 639
159 508 814 514 814 508 815 645 816
524 217 517 523 524 816 817 818 819
820 529 821 817 820 658 660 822 823
661 824 822 660 825 826 822 824 827
823 822 826 661 668 828 824 828 535
532 531 825 824 828 531 532 535 526
533 827 29 28 823 673 676 829 830
26 831 829 27 832 830 829 831 833
696 327 568 567 834 124 568 329 696
833 570 565 570 835 836 95 484 837
838 839 840 841 842 155 154 841 840
139 843 602 844 139 844 841 154 845
846 847 848 845 273 629 846 839 848
847 840 155 840 847 625 623 625 847
846 623 846 629 849 298 769 768 850
176 465 710 289 781 583 851 852 592
593 782 853 178 720 854 466 184 466
855 727 509 502 856 507 508 507 856
815 524 523 857 525 526 525 857 533
30 27 829 858 28 31 859 823 772
775 860 861 320 566 860 775 565 836
564 566 332 777 862 575 567 575 863
834 864 785 341 603 602 843 865 603
866 630 353 792 629 630 867 849 102
105 106 148 32 88 90 33 38 868
765 764 96 38 41 869 868 42 870
871 257 42 45 872 870 873 490 495
874 875 50 876 850 877 803 873 874
503 808 878 504 875 712 51 50 879
825 531 530 880 832 831 26 881 882
554 553 832 882 59 63 883 262 102
150 611 103 715 714 36 35 91 95
838 884 885 884 563 561 560 885 884
838 886 563 887 888 188 187 887 201
200 888 206 197 196 889 206 889 210
207 890 608 891 892 149 621 620 150
628 627 893 152 151 354 13 12 894
346 349 230 229 895 896 897 898 206
899 198 197 895 900 901 896 902 745
744 747 358 357 903 682 903 357 360
904 360 366 365 904 369 368 371 905
333 905 906 334 906 374 373 334 371
374 906 905 454 724 907 908 722 723
907 724 907 723 725 908 909 267 266
910 909 911 350 267 912 399 354 894
891 638 913 892 644 914 641 640 647
914 644 648 915 894 12 653 916 917
918 733 916 411 410 917 410 417 919
917 920 663 921 922 923 671 924 925
921 672 926 922 927 737 928 929 924
436 930 925 232 280 281 233 281 440
444 233 683 682 903 931 903 904 687
931 683 931 687 686 391 932 250 607
933 256 250 932 919 753 918 917 920
922 934 754 930 756 935 925 613 148
106 315 677 716 715 35 448 75 72
359 936 33 90 937 385 937 90 474
895 898 938 939 765 868 142 497 762
204 206 209 940 899 677 35 34 678
936 941 34 33 681 678 34 941 902
576 577 942 943 679 745 679 943 760
761 942 944 760 943 942 577 945 944
377 376 79 86 377 86 85 597 609
150 620 619 387 946 947 388 391 392
947 932 933 932 947 946 395 388 947
392 631 948 398 401 949 950 398 948
915 767 912 894 951 892 913 770 654
419 418 664 669 664 418 952 302 301
308 307 304 309 308 301 311 107 104
317 443 438 437 953 306 953 437 307
909 910 954 955 459 956 957 958 959
455 909 955 960 911 224 227 787 789
459 788 790 615 961 956 772 243 242
773 962 889 196 384 962 397 210 889
365 778 687 904 333 336 706 905 369
905 706 779 851 249 248 852 337 963
783 338 337 590 592 963 783 963 592
853 10 9 344 343 10 343 345 11
791 794 348 347 949 355 354 950 650
651 964 965 448 359 358 682 938 966
198 899 385 386 198 966 356 967 361
357 697 364 363 968 697 968 367 370
363 183 367 968 378 969 375 374 970
910 266 460 609 619 350 911 198 386
380 199 396 390 389 211 631 401 637
632 398 950 354 399 400 399 912 971
964 651 972 403 972 409 408 403 964
403 402 965 408 407 404 403 412 411
415 414 415 411 916 407 669 952 410
413 418 417 410 952 416 973 919 417
662 657 974 975 654 657 662 419 976
977 662 975 976 975 974 978 420 977
976 421 422 421 976 978 311 317 428
423 425 423 428 427 432 433 425 427
434 426 425 433 437 436 924 307 435
979 930 436 281 979 435 440 461 980
462 46 895 868 869 746 900 450 981
869 41 902 747 746 869 981 172 288
576 871 870 450 257 871 981 902 981
871 576 356 78 464 967 172 870 872
982 983 173 983 720 174 173 983 982
854 720 872 984 854 982 454 908 985
986 872 45 985 908 725 727 985 727
855 986 872 986 855 984 467 80 375
969 90 89 470 474 887 187 479 478
477 492 987 887 987 492 489 488 487
201 988 492 477 93 92 485 490 873
989 990 988 494 491 493 492 951 991
890 892 16 992 989 873 803 802 805
804 803 877 993 636 807 808 503 994
505 506 805 993 878 808 809 500 516
515 514 815 501 501 815 856 502 512
518 810 513 521 880 530 533 522 522
533 857 523 935 818 923 925 926 821
934 922 827 826 825 879 995 827 995
881 26 29 859 31 927 929 536 546
996 537 552 997 673 830 832 553 224
789 788 883 63 457 262 883 458 459
458 883 788 556 998 555 117 190 243
837 484 837 243 772 861 574 125 126
449 574 573 571 125 585 131 130 580
244 580 130 999 749 245 749 999 862
777 130 132 862 999 587 582 581 591
589 578 249 851 583 599 601 596 133
594 785 864 595 136 595 864 137 606
796 146 147 795 145 146 796 890 796
606 608 891 608 344 9 1000 621 149
614 1000 1001 618 621 617 792 791 347
617 616 866 792 152 893 866 616 637
638 891 9 913 638 400 971 972 651
641 914 972 914 647 409 915 653 652
1002 402 653 12 965 416 663 920 973
921 663 662 977 924 671 302 307 670
671 923 1003 926 672 670 1003 420 672
921 977 692 980 461 265 462 980 20
271 839 842 268 23 692 21 20 980
845 848 22 273 693 324 555 998 695
998 556 328 693 998 695 330 618 1001
708 351 710 76 709 944 652 712 875
1002 711 57 51 712 469 1004 114 115
970 1 114 1005 958 1005 114 1004 36
714 1006 447 713 1007 1006 714 962 384
188 888 962 888 200 397 989 992 718
1008 933 1008 718 256 16 19 718 992
719 24 18 605 345 24 719 11 949
1009 160 355 613 315 230 349 936 937
897 896 938 898 897 966 385 966 897
937 679 761 170 171 936 896 901 941
746 748 901 900 681 941 901 748 464
177 721 967 361 967 721 181 726 723
467 969 378 185 726 969 186 189 728
480 194 481 730 195 396 203 732 390
387 390 732 1010 485 1010 732 731 387
1010 1011 946 989 1008 1011 990 933 946
1011 1008 485 990 1011 1010 631 634 1012
948 949 948 1012 1009 636 506 1012 634
160 1009 1012 213 1012 506 212 213 918
57 711 733 916 733 404 407 406 646
1013 414 412 414 1013 215 1013 646 216
215 656 1014 974 657 928 1014 656 659
658 929 928 659 974 1014 928 978 304
735 736 309 675 735 1015 676 736 735
675 674 1015 735 734 1016 422 978 928
737 927 1016 734 737 228 231 740 546
738 537 996 741 996 546 740 741 240
241 742 551 443 953 1017 743 673 997
1017 674 306 674 1017 953 552 743 1017
997 58 57 918 753 751 753 919 973
920 754 751 973 934 528 755 754 757
756 930 979 935 756 65 64 62 758
757 759 281 282 757 979 279 759 757
282 938 899 940 939 393 763 940 209
765 939 940 763 760 944 709 286 915
1002 768 767 912 767 766 971 913 971
766 770 951 770 297 296 970 1005 954
910 956 955 954 957 958 957 954 1005
609 911 960 610 956 961 960 955 615
610 960 961 771 1007 713 319 242 447
1006 773 1006 1007 774 773 771 321 774
1007 776 331 571 573 1018 778 699 702
687 778 1018 688 700 779 1019 703 1019
779 706 705 599 342 786 601 1000 614
348 794 1000 794 793 1001 708 1001 793
352 890 991 797 796 799 798 797 991
951 296 499 991 799 991 499 498 812
811 644 643 639 814 812 643 644 811
813 649 645 649 813 816 514 513 812
814 517 816 813 518 923 818 817 1003
819 818 935 64 926 1003 817 821 934
821 529 528 828 668 534 535 124 123
833 568 841 622 268 842 841 844 602
622 875 850 768 1002 298 850 876 299
945 289 710 944 290 289 945 577 781
852 1018 702 1018 852 248 688 1019 853
782 703 783 853 1019 705 854 984 855
466 658 823 859 929 1015 858 829 676
30 858 1015 1016 927 31 30 1016 860
563 886 861 837 861 886 838 564 563
860 566 862 132 863 575 865 137 864
603 866 893 867 630 970 460 2 1
650 965 12 15 677 5 4 716 8
632 637 9 839 23 22 848 833 123
835 570 60 101 819 64 118 834 863
128 139 141 865 843 260 299 876 261
55 752 755 275 487 486 202 201 503
502 509 994 121 569 835 123 455 959
1020 456 623 849 867 626 55 54 58
752 53 52 51 57 62 61 65 758
100 820 819 101 118 122 124 834 129
128 863 132 138 137 865 141 49 261
876 50 276 275 755 528 294 293 297
769 294 769 298 295 485 731 202 486
505 994 509 161 100 527 529 820 558
562 564 836 558 836 835 569 958 1004
1020 959 454 456 1020 724 469 724 1020
1004 627 626 867 893
        </DataArray>
        <DataArray type='Int32' Name='offsets' format='ascii'>
4 8 12 16 20 24 28 32 36
40 44 48 52 56 60 66 70 75
79 83 87 91 95 99 103 107 111
115 119 123 127 131 135 139 144 149
154 158 162 167 171 175 179 183 188
192 196 200 205 210 214 219 224 228
232 236 240 245 249 253 257 261 265
269 273 277 281 285 289 293 297 301
305 309 313 317 321 325 329 333 337
341 345 349 353 357 361 365 369 373
377 381 385 389 393 397 401 406 410
414 418 422 427 433 437 441 445 449
453 457 461 465 471 475 479 483 487
491 495 499 503 507 511 515 519 523
527 531 535 539 543 547 551 555 559
563 567 571 575 579 583 587 591 595
599 603 607 611 615 619 623 627 631
635 639 643 647 651 655 659 663 667
671 675 679 683 687 691 695 699 703
707 711 715 719 723 727 731 735 739
743 747 751 755 759 763 767 771 775
779 784 788 792 796 800 804 808 812
816 820 824 828 832 836 840 844 851
855 862 869 873 879 884 888 892 897
901 906 910 914 918 925 932 938 942
946 951 955 959 963 970 977 984 990
994 999 1005 1012 1016 1021 1025 1029 1034
1038 1042 1046 1051 1055 1059 1063 1067 1071
1076 1081 1086 1091 1096 1100 1104 1108 1114
1118 1122 1126 1130 1134 1138 1142 1146 1150
1154 1158 1162 1166 1170 1176 1180 1184 1189
1194 1198 1202 1206 1210 1214 1218 1222 1226
1230 1234 1238 1242 1246 1250 1254 1258 1262
1266 1270 1274 1278 1282 1286 1290 1294 1298
1302 1306 1310 1314 1318 1322 1326 1330 1334
1338 1342 1346 1350 1354 1358 1362 1366 1370
1374 1378 1382 1386 1390 1394 1398 1402 1406
1410 1414 1418 1422 1426 1430 1434 1438 1442
1446 1450 1454 1458 1462 1466 1470 1474 1478
1482 1486 1490 1494 1498 1502 1506 1510 1514
1518 1522 1526 1530 1534 1538 1542 1546 1550
1554 1558 1562 1566 1570 1574 1578 1582 1586
1590 1594 1598 1602 1606 1610 1614 1618 1622
1626 1630 1634 1638 1642 1646 1650 1654 1658
1662 1666 1670 1674 1678 1682 1686 1690 1694
1698 1702 1706 1710 1714 1718 1722 1726 1730
1734 1738 1742 1746 1750 1754 1758 1762 1766
1770 1774 1778 1782 1786 1790 1794 1798 1802
1806 1810 1814 1818 1822 1826 1830 1834 1838
1842 1846 1850 1854 1858 1862 1866 1870 1874
1878 1882 1886 1890 1894 1898 1902 1906 1910
1914 1918 1922 1926 1930 1934 1938 1942 1946
1950 1954 1958 1962 1966 1970 1974 1978 1982
1986 1990 1994 1998 2002 2006 2010 2014 2018
2022 2026 2030 2034 2038 2042 2046 2050 2054
2058 2062 2066 2070 2074 2078 2082 2086 2090
2094 2098 2102 2106 2110 2114 2118 2122 2126
2130 2134 2138 2142 2146 2150 2154 2158 2163
2167 2171 2175 2179 2183 2187 2191 2195 2200
2205 2209 2213 2217 2221 2226 2231 2235 2239
2243 2247 2251 2255 2259 2264 2268 2272 2276
2280 2284 2288 2292 2296 2300 2304 2308 2312
2316 2320 2324 2328 2332 2336 2340 2344 2348
2352 2356 2360 2364 2368 2372 2376 2380 2384
2388 2392 2396 2400 2404 2408 2412 2416 2420
2424 2428 2432 2436 2440 2444 2448 2454 2458
2462 2466 2470 2474 2481 2485 2489 2493 2497
2501 2505 2509 2513 2517 2521 2525 2529 2533
2537 2541 2545 2549 2553 2557 2561 2565 2569
2575 2579 2583 2589 2593 2597 2601 2605 2609
2613 2617 2621 2625 2629 2633 2637 2641 2645
2649 2653 2657 2661 2665 2669 2673 2677 2681
2685 2689 2693 2697 2701 2705 2709 2713 2717
2721 2725 2729 2733 2737 2741 2745 2749 2753
2757 2761 2765 2769 2773 2777 2781 2785 2789
2793 2797 2801 2806 2810 2815 2820 2824 2828
2832 2838 2842 2846 2850 2856 2860 2864 2868
2872 2876 2883 2890 2895 2900 2905 2909 2915
2920 2927 2932 2938 2942 2946 2951 2955 2959
2963 2968 2973 2977 2981 2987 2992 2996 3000
3004 3008 3012 3016 3020 3024 3030 3034 3038
3043 3047 3051 3055 3059 3063 3067 3071 3075
3079 3083 3087 3091 3095 3099 3103 3107 3111
3115 3119 3123 3127 3131 3135 3139 3143 3147
3151 3155 3159 3163 3167 3171 3175 3179 3183
3187 3191 3195 3199 3203 3207 3211 3215 3219
3223 3227 3231 3235 3239 3243 3247 3251 3255
3259 3263 3267 3271 3275 3279 3283 3287 3291
3295 3299 3303 3307 3311 3315 3319 3323 3327
3331 3335 3339 3343 3347 3351 3355 3359 3363
3367 3371 3375 3379 3383 3387 3391 3395 3399
3403 3407 3411 3415 3419 3423 3427 3431 3435
3439 3443 3447 3451 3455 3459 3463 3467 3471
3475 3479 3483 3487 3491 3495 3499 3503 3507
3511 3515 3519 3523 3527 3531 3535 3539 3543
3547 3551 3555 3559 3563 3567 3571 3575 3579
3583 3587 3591 3595 3599 3603 3607 3611 3615
3619 3623 3627 3631 3635 3639 3643 3647 3651
3655 3659 3663 3667 3671 3675 3679 3683 3687
3691 3695 3699 3703 3707 3711 3715 3719 3723
3727 3731 3735 3739 3743 3747 3751 3755 3759
3763 3767 3771 3775 3779 3783 3787 3791 3795
3799 3803 3807 3811 3815 3819 3823 3827 3831
3835 3839 3843 3847 3851 3855 3859 3863 3867
3871 3875
        </DataArray>
      </Polys>
      <CellData>
        <DataArray type='Float32' Name='D' NumberOfComponents='3' format='ascii'>
0 0 0 0 0 0 0 0 0
0 0 0 0 0 0 0 0 0
0 0 0 0 0 0 0 0 0
0 0 0 0 0 0 0 0 0
0 0 0 0 0 0 0 0 0
0 0 0 0 0 0 0 0 0
0 0 0 0 0 0 0 0 0
0 0 0 0 0 0 0 0 0
0 0 0 0 0 0 0 0 0
0 0 0 0 0 0 0 0 0
0 0 0 0 0 0 0 0 0
0 0 0 0 0 0 0 0 0
0 0 0 0 0 0 0 0 0
0 0 0 0 0 0 0 0 0
0 0 0 0 0 0 0 0 0
0 0 0 0 0 0 0 0 0
0 0 0 0 0 0 0 0 0
0 0 0 0 0 0 0 0 0
0 0 0 0 0 0 0 0 0
0 0 0 0 0 0 0 0 0
0 0 0 0 0 0 0 0 0
0 0 0 0 0 0 0 0 0
0 0 0 0 0 0 0 0 0
0 0 0 0 0 0 0 0 0
0 0 0 0 0 0 0 0 0
0 0 0 0 0 0 0 0 0
0 0 0 0 0 0 0 0 0
0 0 0 0 0 0 0 0 0
0 0 0 0 0 0 0 0 0
0 0 0 0 0 0 0 0 0
0 0 0 0 0 0 0 0 0
0 0 0 0 0 0 0 0 0
0 0 0 0 0 0 0 0 0
0 0 0 0 0 0 0 0 0
0 0 0 0 0 0 0 0 0
0 0 0 0 0 0 0 0 0
0 0 0 0 0 0 0 0 0
0 0 0 0 0 0 0 0 0
0 0 0 0 0 0 0 0 0
0 0 0 0 0 0 0 0 0
0 0 0 0 0 0 0 0 0
0 0 0 0 0 0 0 0 0
0 0 0 0 0 0 0 0 0
0 0 0 0 0 0 0 0 0
0 0 0 0 0 0 0 0 0
0 0 0 0 0 0 0 0 0
0 0 0 0 0 0 0 0 0
0 0 0 0 0 0 0 0 0
0 0 0 0 0 0 0 0 0
0 0 0 0 0 0 0 0 0
0 0 0 0 0 0 0 0 0
0 0 0 0 0 0 0 0 0
0 0 0 0 0 0 0 0 0
0 0 0 0 0 0 0 0 0
0 0 0 0 0 0 0 0 0
0 0 0 0 0 0 0 0 0
0 0 0 0 0 0 0 0 0
0 0 0 0 0 0 0 0 0
0 0 0 0 0 0 0 0 0
0 0 0 0 0 0 0 0 0
0 0 0 0 0 0 0 0 0
0 0 0 0 0 0 0 0 0
0 0 0 0 0 0 0 0 0
0 0 0 0 0 0 0 0 0
0 0 0 0 0 0 0 0 0
0 0 0 0 0 0 0 0 0
0 0 0 0 0 0 0 0 0
0 0 0 0 0 0 0 0 0
0 0 0 0 0 0 0 0 0
0 0 0 0 0 0 0 0 0
0 0 0 0 0 0 0 0 0
0 0 0 0 0 0 0 0 0
0 0 0 0 0 0 0 0 0
0 0 0 0 0 0 0 0 0
0 0 0 0 0 0 0 0 0
0 0 0 0 0 0 0 0 0
0 0 0 0 0 0 0 0 0
0 0 0 0 0 0 0 0 0
0 0 0 0 0 0 0 0 0
0 0 0 0 0 0 0 0 0
0 0 0 0 0 0 0 0 0
0 0 0 0 0 0 0 0 0
0 0 0 0 0 0 0 0 0
0 0 0 0 0 0 0 0 0
0 0 0 0 0 0 0 0 0
0 0 0 0 0 0 0 0 0
0 0 0 0 0 0 0 0 0
0 0 0 0 0 0 0 0 0
0 0 0 0 0 0 0 0 0
0 0 0 0 0 0 0 0 0
0 0 0 0 0 0 0 0 0
0 0 0 0 0 0 0 0 0
0 0 0 0 0 0 0 0 0
0 0 0 0 0 0 0 0 0
0 0 0 0 0 0 0 0 0
0 0 0 0 0 0 0 0 0
0 0 0 0 0 0 0 0 0
0 0 0 0 0 0 0 0 0
0 0 0 0 0 0 0 0 0
0 0 0 0 0 0 0 0 0
0 0 0 0 0 0 0 0 0
0 0 0 0 0 0 0 0 0
0 0 0 0 0 0 0 0 0
0 0 0 0 0 0 0 0 0
0 0 0 0 0 0 0 0 0
0 0 0 0 0 0 0 0 0
0 0 0 0 0 0 0 0 0
0 0 0 0 0 0 0 0 0
0 0 0 0 0 0 0 0 0
0 0 0 0 0 0 0 0 0
0 0 0 0 0 0 0 0 0
0 0 0 0 0 0 0 0 0
0 0 0 0 0 0 0 0 0
0 0 0 0 0 0 0 0 0
0 0 0 0 0 0 0 0 0
0 0 0 0 0 0 0 0 0
0 0 0 0 0 0 0 0 0
0 0 0 0 0 0 0 0 0
0 0 0 0 0 0 0 0 0
0 0 0 0 0 0 0 0 0
0 0 0 0 0 0 0 0 0
0 0 0 0 0 0 0 0 0
0 0 0 0 0 0 0 0 0
0 0 0 0 0 0 0 0 0
0 0 0 0 0 0 0 0 0
0 0 0 0 0 0 0 0 0
0 0 0 0 0 0 0 0 0
0 0 0 0 0 0 0 0 0
0 0 0 0 0 0 0 0 0
0 0 0 0 0 0 0 0 0
0 0 0 0 0 0 0 0 0
0 0 0 0 0 0 0 0 0
0 0 0 0 0 0 0 0 0
0 0 0 0 0 0 0 0 0
0 0 0 0 0 0 0 0 0
0 0 0 0 0 0 0 0 0
0 0 0 0 0 0 0 0 0
0 0 0 0 0 0 0 0 0
0 0 0 0 0 0 0 0 0
0 0 0 0 0 0 0 0 0
0 0 0 0 0 0 0 0 0
0 0 0 0 0 0 0 0 0
0 0 0 0 0 0 0 0 0
0 0 0 0 0 0 0 0 0
0 0 0 0 0 0 0 0 0
0 0 0 0 0 0 0 0 0
0 0 0 0 0 0 0 0 0
0 0 0 0 0 0 0 0 0
0 0 0 0 0 0 0 0 0
0 0 0 0 0 0 0 0 0
0 0 0 0 0 0 0 0 0
0 0 0 0 0 0 0 0 0
0 0 0 0 0 0 0 0 0
0 0 0 0 0 0 0 0 0
0 0 0 0 0 0 0 0 0
0 0 0 0 0 0 0 0 0
0 0 0 0 0 0 0 0 0
0 0 0 0 0 0 0 0 0
0 0 0 0 0 0 0 0 0
0 0 0 0 0 0 0 0 0
0 0 0 0 0 0 0 0 0
0 0 0 0 0 0 0 0 0
0 0 0 0 0 0 0 0 0
0 0 0 0 0 0 0 0 0
0 0 0 0 0 0 0 0 0
0 0 0 0 0 0 0 0 0
0 0 0 0 0 0 0 0 0
0 0 0 0 0 0 0 0 0
0 0 0 0 0 0 0 0 0
0 0 0 0 0 0 0 0 0
0 0 0 0 0 0 0 0 0
0 0 0 0 0 0 0 0 0
0 0 0 0 0 0 0 0 0
0 0 0 0 0 0 0 0 0
0 0 0 0 0 0 0 0 0
0 0 0 0 0 0 0 0 0
0 0 0 0 0 0 0 0 0
0 0 0 0 0 0 0 0 0
0 0 0 0 0 0 0 0 0
0 0 0 0 0 0 0 0 0
0 0 0 0 0 0 0 0 0
0 0 0 0 0 0 0 0 0
0 0 0 0 0 0 0 0 0
0 0 0 0 0 0 0 0 0
0 0 0 0 0 0 0 0 0
0 0 0 0 0 0 0 0 0
0 0 0 0 0 0 0 0 0
0 0 0 0 0 0 0 0 0
0 0 0 0 0 0 0 0 0
0 0 0 0 0 0 0 0 0
0 0 0 0 0 0 0 0 0
0 0 0 0 0 0 0 0 0
0 0 0 0 0 0 0 0 0
0 0 0 0 0 0 0 0 0
0 0 0 0 0 0 0 0 0
0 0 0 0 0 0 0 0 0
0 0 0 0 0 0 0 0 0
0 0 0 0 0 0 0 0 0
0 0 0 0 0 0 0 0 0
0 0 0 0 0 0 0 0 0
0 0 0 0 0 0 0 0 0
0 0 0 0 0 0 0 0 0
0 0 0 0 0 0 0 0 0
0 0 0 0 0 0 0 0 0
0 0 0 0 0 0 0 0 0
0 0 0 0 0 0 0 0 0
0 0 0 0 0 0 0 0 0
0 0 0 0 0 0 0 0 0
0 0 0 0 0 0 0 0 0
0 0 0 0 0 0 0 0 0
0 0 0 0 0 0 0 0 0
0 0 0 0 0 0 0 0 0
0 0 0 0 0 0 0 0 0
0 0 0 0 0 0 0 0 0
0 0 0 0 0 0 0 0 0
0 0 0 0 0 0 0 0 0
0 0 0 0 0 0 0 0 0
0 0 0 0 0 0 0 0 0
0 0 0 0 0 0 0 0 0
0 0 0 0 0 0 0 0 0
0 0 0 0 0 0 0 0 0
0 0 0 0 0 0 0 0 0
0 0 0 0 0 0 0 0 0
0 0 0 0 0 0 0 0 0
0 0 0 0 0 0 0 0 0
0 0 0 0 0 0 0 0 0
0 0 0 0 0 0 0 0 0
0 0 0 0 0 0 0 0 0
0 0 0 0 0 0 0 0 0
0 0 0 0 0 0 0 0 0
0 0 0 0 0 0 0 0 0
0 0 0 0 0 0 0 0 0
0 0 0 0 0 0 0 0 0
0 0 0 0 0 0 0 0 0
0 0 0 0 0 0 0 0 0
0 0 0 0 0 0 0 0 0
0 0 0 0 0 0 0 0 0
0 0 0 0 0 0 0 0 0
0 0 0 0 0 0 0 0 0
0 0 0 0 0 0 0 0 0
0 0 0 0 0 0 0 0 0
0 0 0 0 0 0 0 0 0
0 0 0 0 0 0 0 0 0
0 0 0 0 0 0 0 0 0
0 0 0 0 0 0 0 0 0
0 0 0 0 0 0 0 0 0
0 0 0 0 0 0 0 0 0
0 0 0 0 0 0 0 0 0
0 0 0 0 0 0 0 0 0
0 0 0 0 0 0 0 0 0
0 0 0 0 0 0 0 0 0
0 0 0 0 0 0 0 0 0
0 0 0 0 0 0 0 0 0
0 0 0 0 0 0 0 0 0
0 0 0 0 0 0 0 0 0
0 0 0 0 0 0 0 0 0
0 0 0 0 0 0 0 0 0
0 0 0 0 0 0 0 0 0
0 0 0 0 0 0 0 0 0
0 0 0 0 0 0 0 0 0
0 0 0 0 0 0 0 0 0
0 0 0 0 0 0 0 0 0
0 0 0 0 0 0 0 0 0
0 0 0 0 0 0 0 0 0
0 0 0 0 0 0 0 0 0
0 0 0 0 0 0 0 0 0
0 0 0 0 0 0 0 0 0
0 0 0 0 0 0 0 0 0
0 0 0 0 0 0 0 0 0
0 0 0 0 0 0 0 0 0
0 0 0 0 0 0 0 0 0
0 0 0 0 0 0 0 0 0
0 0 0 0 0 0 0 0 0
0 0 0 0 0 0 0 0 0
0 0 0 0 0 0 0 0 0
0 0 0 0 0 0 0 0 0
0 0 0 0 0 0 0 0 0
0 0 0 0 0 0 0 0 0
0 0 0 0 0 0 0 0 0
0 0 0 0 0 0 0 0 0
0 0 0 0 0 0 0 0 0
0 0 0 0 0 0 0 0 0
0 0 0 0 0 0 0 0 0
0 0 0 0 0 0 0 0 0
0 0 0 0 0 0 0 0 0
0 0 0 0 0 0 0 0 0
0 0 0 0 0 0 0 0 0
0 0 0 0 0 0 0 0 0
0 0 0 0 0 0 0 0 0
0 0 0 0 0 0 0 0 0
0 0 0 0 0 0 0 0 0
0 0 0 0 0 0 0 0 0
0 0 0 0 0 0 0 0 0
0 0 0 0 0 0 0 0 0
0 0 0 0 0 0 0 0 0
0 0 0 0 0 0 0 0 0
0 0 0 0 0 0 0 0 0
0 0 0 0 0 0 0 0 0
0 0 0 0 0 0 0 0 0
0 0 0 0 0 0 0 0 0
0 0 0 0 0 0 0 0 0
0 0 0 0 0 0 0 0 0
0 0 0 0 0 0 0 0 0
0 0 0 0 0 0 0 0 0
0 0 0 0 0 0 0 0 0
0 0 0 0 0 0 0 0 0
0 0 0 0 0 0 0 0 0
0 0 0 0 0 0 0 0 0
0 0 0 0 0 0 0 0 0
0 0 0 0 0 0 0 0 0
0 0 0 0 0 0 0 0 0
0 0 0 0 0 0 0 0 0
0 0 0 0 0 0
        </DataArray>
      </CellData>
      <PointData>
        <DataArray type='Float32' Name='D' NumberOfComponents='3' format='ascii'>
0 0 0 0 0 0 0 0 0
0 0 0 0 0 0 0 0 0
0 0 0 0 0 0 0 0 0
0 0 0 0 0 0 0 0 0
0 0 0 0 0 0 0 0 0
0 0 0 0 0 0 0 0 0
0 0 0 0 0 0 0 0 0
0 0 0 0 0 0 0 0 0
0 0 0 0 0 0 0 0 0
0 0 0 0 0 0 0 0 0
0 0 0 0 0 0 0 0 0
0 0 0 0 0 0 0 0 0
0 0 0 0 0 0 0 0 0
0 0 0 0 0 0 0 0 0
0 0 0 0 0 0 0 0 0
0 0 0 0 0 0 0 0 0
0 0 0 0 0 0 0 0 0
0 0 0 0 0 0 0 0 0
0 0 0 0 0 0 0 0 0
0 0 0 0 0 0 0 0 0
0 0 0 0 0 0 0 0 0
0 0 0 0 0 0 0 0 0
0 0 0 0 0 0 0 0 0
0 0 0 0 0 0 0 0 0
0 0 0 0 0 0 0 0 0
0 0 0 0 0 0 0 0 0
0 0 0 0 0 0 0 0 0
0 0 0 0 0 0 0 0 0
0 0 0 0 0 0 0 0 0
0 0 0 0 0 0 0 0 0
0 0 0 0 0 0 0 0 0
0 0 0 0 0 0 0 0 0
0 0 0 0 0 0 0 0 0
0 0 0 0 0 0 0 0 0
0 0 0 0 0 0 0 0 0
0 0 0 0 0 0 0 0 0
0 0 0 0 0 0 0 0 0
0 0 0 0 0 0 0 0 0
0 0 0 0 0 0 0 0 0
0 0 0 0 0 0 0 0 0
0 0 0 0 0 0 0 0 0
0 0 0 0 0 0 0 0 0
0 0 0 0 0 0 0 0 0
0 0 0 0 0 0 0 0 0
0 0 0 0 0 0 0 0 0
0 0 0 0 0 0 0 0 0
0 0 0 0 0 0 0 0 0
0 0 0 0 0 0 0 0 0
0 0 0 0 0 0 0 0 0
0 0 0 0 0 0 0 0 0
0 0 0 0 0 0 0 0 0
0 0 0 0 0 0 0 0 0
0 0 0 0 0 0 0 0 0
0 0 0 0 0 0 0 0 0
0 0 0 0 0 0 0 0 0
0 0 0 0 0 0 0 0 0
0 0 0 0 0 0 0 0 0
0 0 0 0 0 0 0 0 0
0 0 0 0 0 0 0 0 0
0 0 0 0 0 0 0 0 0
0 0 0 0 0 0 0 0 0
0 0 0 0 0 0 0 0 0
0 0 0 0 0 0 0 0 0
0 0 0 0 0 0 0 0 0
0 0 0 0 0 0 0 0 0
0 0 0 0 0 0 0 0 0
0 0 0 0 0 0 0 0 0
0 0 0 0 0 0 0 0 0
0 0 0 0 0 0 0 0 0
0 0 0 0 0 0 0 0 0
0 0 0 0 0 0 0 0 0
0 0 0 0 0 0 0 0 0
0 0 0 0 0 0 0 0 0
0 0 0 0 0 0 0 0 0
0 0 0 0 0 0 0 0 0
0 0 0 0 0 0 0 0 0
0 0 0 0 0 0 0 0 0
0 0 0 0 0 0 0 0 0
0 0 0 0 0 0 0 0 0
0 0 0 0 0 0 0 0 0
0 0 0 0 0 0 0 0 0
0 0 0 0 0 0 0 0 0
0 0 0 0 0 0 0 0 0
0 0 0 0 0 0 0 0 0
0 0 0 0 0 0 0 0 0
0 0 0 0 0 0 0 0 0
0 0 0 0 0 0 0 0 0
0 0 0 0 0 0 0 0 0
0 0 0 0 0 0 0 0 0
0 0 0 0 0 0 0 0 0
0 0 0 0 0 0 0 0 0
0 0 0 0 0 0 0 0 0
0 0 0 0 0 0 0 0 0
0 0 0 0 0 0 0 0 0
0 0 0 0 0 0 0 0 0
0 0 0 0 0 0 0 0 0
0 0 0 0 0 0 0 0 0
0 0 0 0 0 0 0 0 0
0 0 0 0 0 0 0 0 0
0 0 0 0 0 0 0 0 0
0 0 0 0 0 0 0 0 0
0 0 0 0 0 0 0 0 0
0 0 0 0 0 0 0 0 0
0 0 0 0 0 0 0 0 0
0 0 0 0 0 0 0 0 0
0 0 0 0 0 0 0 0 0
0 0 0 0 0 0 0 0 0
0 0 0 0 0 0 0 0 0
0 0 0 0 0 0 0 0 0
0 0 0 0 0 0 0 0 0
0 0 0 0 0 0 0 0 0
0 0 0 0 0 0 0 0 0
0 0 0 0 0 0 0 0 0
0 0 0 0 0 0 0 0 0
0 0 0 0 0 0 0 0 0
0 0 0 0 0 0 0 0 0
0 0 0 0 0 0 0 0 0
0 0 0 0 0 0 0 0 0
0 0 0 0 0 0 0 0 0
0 0 0 0 0 0 0 0 0
0 0 0 0 0 0 0 0 0
0 0 0 0 0 0 0 0 0
0 0 0 0 0 0 0 0 0
0 0 0 0 0 0 0 0 0
0 0 0 0 0 0 0 0 0
0 0 0 0 0 0 0 0 0
0 0 0 0 0 0 0 0 0
0 0 0 0 0 0 0 0 0
0 0 0 0 0 0 0 0 0
0 0 0 0 0 0 0 0 0
0 0 0 0 0 0 0 0 0
0 0 0 0 0 0 0 0 0
0 0 0 0 0 0 0 0 0
0 0 0 0 0 0 0 0 0
0 0 0 0 0 0 0 0 0
0 0 0 0 0 0 0 0 0
0 0 0 0 0 0 0 0 0
0 0 0 0 0 0 0 0 0
0 0 0 0 0 0 0 0 0
0 0 0 0 0 0 0 0 0
0 0 0 0 0 0 0 0 0
0 0 0 0 0 0 0 0 0
0 0 0 0 0 0 0 0 0
0 0 0 0 0 0 0 0 0
0 0 0 0 0 0 0 0 0
0 0 0 0 0 0 0 0 0
0 0 0 0 0 0 0 0 0
0 0 0 0 0 0 0 0 0
0 0 0 0 0 0 0 0 0
0 0 0 0 0 0 0 0 0
0 0 0 0 0 0 0 0 0
0 0 0 0 0 0 0 0 0
0 0 0 0 0 0 0 0 0
0 0 0 0 0 0 0 0 0
0 0 0 0 0 0 0 0 0
0 0 0 0 0 0 0 0 0
0 0 0 0 0 0 0 0 0
0 0 0 0 0 0 0 0 0
0 0 0 0 0 0 0 0 0
0 0 0 0 0 0 0 0 0
0 0 0 0 0 0 0 0 0
0 0 0 0 0 0 0 0 0
0 0 0 0 0 0 0 0 0
0 0 0 0 0 0 0 0 0
0 0 0 0 0 0 0 0 0
0 0 0 0 0 0 0 0 0
0 0 0 0 0 0 0 0 0
0 0 0 0 0 0 0 0 0
0 0 0 0 0 0 0 0 0
0 0 0 0 0 0 0 0 0
0 0 0 0 0 0 0 0 0
0 0 0 0 0 0 0 0 0
0 0 0 0 0 0 0 0 0
0 0 0 0 0 0 0 0 0
0 0 0 0 0 0 0 0 0
0 0 0 0 0 0 0 0 0
0 0 0 0 0 0 0 0 0
0 0 0 0 0 0 0 0 0
0 0 0 0 0 0 0 0 0
0 0 0 0 0 0 0 0 0
0 0 0 0 0 0 0 0 0
0 0 0 0 0 0 0 0 0
0 0 0 0 0 0 0 0 0
0 0 0 0 0 0 0 0 0
0 0 0 0 0 0 0 0 0
0 0 0 0 0 0 0 0 0
0 0 0 0 0 0 0 0 0
0 0 0 0 0 0 0 0 0
0 0 0 0 0 0 0 0 0
0 0 0 0 0 0 0 0 0
0 0 0 0 0 0 0 0 0
0 0 0 0 0 0 0 0 0
0 0 0 0 0 0 0 0 0
0 0 0 0 0 0 0 0 0
0 0 0 0 0 0 0 0 0
0 0 0 0 0 0 0 0 0
0 0 0 0 0 0 0 0 0
0 0 0 0 0 0 0 0 0
0 0 0 0 0 0 0 0 0
0 0 0 0 0 0 0 0 0
0 0 0 0 0 0 0 0 0
0 0 0 0 0 0 0 0 0
0 0 0 0 0 0 0 0 0
0 0 0 0 0 0 0 0 0
0 0 0 0 0 0 0 0 0
0 0 0 0 0 0 0 0 0
0 0 0 0 0 0 0 0 0
0 0 0 0 0 0 0 0 0
0 0 0 0 0 0 0 0 0
0 0 0 0 0 0 0 0 0
0 0 0 0 0 0 0 0 0
0 0 0 0 0 0 0 0 0
0 0 0 0 0 0 0 0 0
0 0 0 0 0 0 0 0 0
0 0 0 0 0 0 0 0 0
0 0 0 0 0 0 0 0 0
0 0 0 0 0 0 0 0 0
0 0 0 0 0 0 0 0 0
0 0 0 0 0 0 0 0 0
0 0 0 0 0 0 0 0 0
0 0 0 0 0 0 0 0 0
0 0 0 0 0 0 0 0 0
0 0 0 0 0 0 0 0 0
0 0 0 0 0 0 0 0 0
0 0 0 0 0 0 0 0 0
0 0 0 0 0 0 0 0 0
0 0 0 0 0 0 0 0 0
0 0 0 0 0 0 0 0 0
0 0 0 0 0 0 0 0 0
0 0 0 0 0 0 0 0 0
0 0 0 0 0 0 0 0 0
0 0 0 0 0 0 0 0 0
0 0 0 0 0 0 0 0 0
0 0 0 0 0 0 0 0 0
0 0 0 0 0 0 0 0 0
0 0 0 0 0 0 0 0 0
0 0 0 0 0 0 0 0 0
0 0 0 0 0 0 0 0 0
0 0 0 0 0 0 0 0 0
0 0 0 0 0 0 0 0 0
0 0 0 0 0 0 0 0 0
0 0 0 0 0 0 0 0 0
0 0 0 0 0 0 0 0 0
0 0 0 0 0 0 0 0 0
0 0 0 0 0 0 0 0 0
0 0 0 0 0 0 0 0 0
0 0 0 0 0 0 0 0 0
0 0 0 0 0 0 0 0 0
0 0 0 0 0 0 0 0 0
0 0 0 0 0 0 0 0 0
0 0 0 0 0 0 0 0 0
0 0 0 0 0 0 0 0 0
0 0 0 0 0 0 0 0 0
0 0 0 0 0 0 0 0 0
0 0 0 0 0 0 0 0 0
0 0 0 0 0 0 0 0 0
0 0 0 0 0 0 0 0 0
0 0 0 0 0 0 0 0 0
0 0 0 0 0 0 0 0 0
0 0 0 0 0 0 0 0 0
0 0 0 0 0 0 0 0 0
0 0 0 0 0 0 0 0 0
0 0 0 0 0 0 0 0 0
0 0 0 0 0 0 0 0 0
0 0 0 0 0 0 0 0 0
0 0 0 0 0 0 0 0 0
0 0 0 0 0 0 0 0 0
0 0 0 0 0 0 0 0 0
0 0 0 0 0 0 0 0 0
0 0 0 0 0 0 0 0 0
0 0 0 0 0 0 0 0 0
0 0 0 0 0 0 0 0 0
0 0 0 0 0 0 0 0 0
0 0 0 0 0 0 0 0 0
0 0 0 0 0 0 0 0 0
0 0 0 0 0 0 0 0 0
0 0 0 0 0 0 0 0 0
0 0 0 0 0 0 0 0 0
0 0 0 0 0 0 0 0 0
0 0 0 0 0 0 0 0 0
0 0 0 0 0 0 0 0 0
0 0 0 0 0 0 0 0 0
0 0 0 0 0 0 0 0 0
0 0 0 0 0 0 0 0 0
0 0 0 0 0 0 0 0 0
0 0 0 0 0 0 0 0 0
0 0 0 0 0 0 0 0 0
0 0 0 0 0 0 0 0 0
0 0 0 0 0 0 0 0 0
0 0 0 0 0 0 0 0 0
0 0 0 0 0 0 0 0 0
0 0 0 0 0 0 0 0 0
0 0 0 0 0 0 0 0 0
0 0 0 0 0 0 0 0 0
0 0 0 0 0 0 0 0 0
0 0 0 0 0 0 0 0 0
0 0 0 0 0 0 0 0 0
0 0 0 0 0 0 0 0 0
0 0 0 0 0 0 0 0 0
0 0 0 0 0 0 0 0 0
0 0 0 0 0 0 0 0 0
0 0 0 0 0 0 0 0 0
0 0 0 0 0 0 0 0 0
0 0 0 0 0 0 0 0 0
0 0 0 0 0 0 0 0 0
0 0 0 0 0 0 0 0 0
0 0 0 0 0 0 0 0 0
0 0 0 0 0 0 0 0 0
0 0 0 0 0 0 0 0 0
0 0 0 0 0 0 0 0 0
0 0 0 0 0 0 0 0 0
0 0 0 0 0 0 0 0 0
0 0 0 0 0 0 0 0 0
0 0 0 0 0 0 0 0 0
0 0 0 0 0 0 0 0 0
0 0 0 0 0 0 0 0 0
0 0 0 0 0 0 0 0 0
0 0 0 0 0 0 0 0 0
0 0 0 0 0 0 0 0 0
0 0 0 0 0 0 0 0 0
0 0 0 0 0 0 0 0 0
0 0 0 0 0 0 0 0 0
0 0 0 0 0 0 0 0 0
0 0 0 0 0 0 0 0 0
0 0 0 0 0 0 0 0 0
0 0 0 0 0 0 0 0 0
0 0 0 0 0 0 0 0 0
0 0 0 0 0 0 0 0 0
0 0 0 0 0 0 0 0 0
0 0 0 0 0 0 0 0 0
0 0 0 0 0 0 0 0 0
0 0 0 0 0 0 0 0 0
0 0 0 0 0 0 0 0 0
0 0 0 0 0 0 0 0 0
0 0 0 0 0 0 0 0 0
0 0 0 0 0 0 0 0 0
0 0 0 0 0 0 0 0 0
0 0 0 0 0 0 0 0 0
0 0 0 0 0 0 0 0 0
0 0 0 0 0 0 0 0 0
0 0 0
        </DataArray>
      </PointData>
    </Piece>
  </PolyData>
</VTKFile>
