# vtk DataFile Version 3.0
patches
ASCII
DATASET POLYDATA
POINTS 160 float
6.58800000e-03 -4.11200000e-03 0.00000000e+00
6.59700000e-03 -3.95500000e-03 0.00000000e+00
-6.58800000e-03 -4.11200000e-03 0.00000000e+00
-6.59700000e-03 -3.95500000e-03 0.00000000e+00
6.42287109e-03 -4.93610770e-03 0.00000000e+00
6.51635063e-03 -4.80803332e-03 0.00000000e+00
6.60727671e-03 -4.67813366e-03 0.00000000e+00
6.70000000e-03 -4.75000000e-03 0.00000000e+00
6.93000000e-03 -4.49000000e-03 0.00000000e+00
6.84000000e-03 -4.42000000e-03 0.00000000e+00
6.90000000e-03 -4.02000000e-03 0.00000000e+00
6.92000000e-03 -3.86000000e-03 0.00000000e+00
7.00000000e-03 -3.35000000e-03 0.00000000e+00
6.99439792e-03 -3.34495812e-03 0.00000000e+00
7.02749377e-03 -3.30798940e-03 0.00000000e+00
7.06039422e-03 -3.27084668e-03 0.00000000e+00
7.09309836e-03 -3.23353100e-03 0.00000000e+00
7.12560529e-03 -3.19604338e-03 0.00000000e+00
7.15791409e-03 -3.15838488e-03 0.00000000e+00
7.19002387e-03 -3.12055654e-03 0.00000000e+00
7.22193374e-03 -3.08255941e-03 0.00000000e+00
-7.22193374e-03 -3.08255941e-03 0.00000000e+00
-7.19002387e-03 -3.12055654e-03 0.00000000e+00
-7.15791409e-03 -3.15838488e-03 0.00000000e+00
-7.12560529e-03 -3.19604338e-03 0.00000000e+00
-7.09309836e-03 -3.23353100e-03 0.00000000e+00
-7.06039422e-03 -3.27084668e-03 0.00000000e+00
-7.02749377e-03 -3.30798940e-03 0.00000000e+00
-6.99439792e-03 -3.34495812e-03 0.00000000e+00
-7.00000000e-03 -3.35000000e-03 0.00000000e+00
-6.92000000e-03 -3.86000000e-03 0.00000000e+00
-6.90000000e-03 -4.02000000e-03 0.00000000e+00
-6.84000000e-03 -4.42000000e-03 0.00000000e+00
-6.93000000e-03 -4.49000000e-03 0.00000000e+00
-6.70000000e-03 -4.75000000e-03 0.00000000e+00
-6.60727671e-03 -4.67813366e-03 0.00000000e+00
-6.51635063e-03 -4.80803332e-03 0.00000000e+00
-6.42287109e-03 -4.93610770e-03 0.00000000e+00
6.42287109e-03 -4.93610770e-03 1.00000000e-03
6.51635063e-03 -4.80803332e-03 1.00000000e-03
6.60727671e-03 -4.67813366e-03 1.00000000e-03
6.70000000e-03 -4.75000000e-03 1.00000000e-03
6.93000000e-03 -4.49000000e-03 1.00000000e-03
6.84000000e-03 -4.42000000e-03 1.00000000e-03
6.90000000e-03 -4.02000000e-03 1.00000000e-03
6.58800000e-03 -4.11200000e-03 1.00000000e-03
6.59700000e-03 -3.95500000e-03 1.00000000e-03
6.92000000e-03 -3.86000000e-03 1.00000000e-03
7.00000000e-03 -3.35000000e-03 1.00000000e-03
6.99439792e-03 -3.34495812e-03 1.00000000e-03
7.02749377e-03 -3.30798940e-03 1.00000000e-03
7.06039422e-03 -3.27084668e-03 1.00000000e-03
7.09309836e-03 -3.23353100e-03 1.00000000e-03
7.12560529e-03 -3.19604338e-03 1.00000000e-03
7.15791409e-03 -3.15838488e-03 1.00000000e-03
7.19002387e-03 -3.12055654e-03 1.00000000e-03
7.22193374e-03 -3.08255941e-03 1.00000000e-03
-7.22193374e-03 -3.08255941e-03 1.00000000e-03
-7.19002387e-03 -3.12055654e-03 1.00000000e-03
-7.15791409e-03 -3.15838488e-03 1.00000000e-03
-7.12560529e-03 -3.19604338e-03 1.00000000e-03
-7.09309836e-03 -3.23353100e-03 1.00000000e-03
-7.06039422e-03 -3.27084668e-03 1.00000000e-03
-7.02749377e-03 -3.30798940e-03 1.00000000e-03
-6.99439792e-03 -3.34495812e-03 1.00000000e-03
-7.00000000e-03 -3.35000000e-03 1.00000000e-03
-6.92000000e-03 -3.86000000e-03 1.00000000e-03
-6.59700000e-03 -3.95500000e-03 1.00000000e-03
-6.58800000e-03 -4.11200000e-03 1.00000000e-03
-6.90000000e-03 -4.02000000e-03 1.00000000e-03
-6.84000000e-03 -4.42000000e-03 1.00000000e-03
-6.93000000e-03 -4.49000000e-03 1.00000000e-03
-6.70000000e-03 -4.75000000e-03 1.00000000e-03
-6.60727671e-03 -4.67813366e-03 1.00000000e-03
-6.51635063e-03 -4.80803332e-03 1.00000000e-03
-6.42287109e-03 -4.93610770e-03 1.00000000e-03
6.46961086e-03 -4.87207051e-03 0.00000000e+00
6.56181367e-03 -4.74308349e-03 0.00000000e+00
6.65363836e-03 -4.71406683e-03 0.00000000e+00
6.81500000e-03 -4.62000000e-03 0.00000000e+00
6.88500000e-03 -4.45500000e-03 0.00000000e+00
6.86000000e-03 -4.28666667e-03 0.00000000e+00
6.88000000e-03 -4.15333333e-03 0.00000000e+00
6.77154354e-03 -4.05787819e-03 0.00000000e+00
6.67635861e-03 -4.08594554e-03 0.00000000e+00
6.68807866e-03 -3.92821216e-03 0.00000000e+00
6.78629760e-03 -3.89932424e-03 0.00000000e+00
6.94666667e-03 -3.69000000e-03 0.00000000e+00
6.97333333e-03 -3.52000000e-03 0.00000000e+00
6.99720792e-03 -3.34748712e-03 0.00000000e+00
7.01094584e-03 -3.32647376e-03 0.00000000e+00
7.04394399e-03 -3.28941804e-03 0.00000000e+00
7.07674629e-03 -3.25218884e-03 0.00000000e+00
7.10935183e-03 -3.21478719e-03 0.00000000e+00
7.14175969e-03 -3.17721413e-03 0.00000000e+00
7.17396898e-03 -3.13947071e-03 0.00000000e+00
7.20597881e-03 -3.10155798e-03 0.00000000e+00
-7.20597881e-03 -3.10155798e-03 0.00000000e+00
-7.17396898e-03 -3.13947071e-03 0.00000000e+00
-7.14175969e-03 -3.17721413e-03 0.00000000e+00
-7.10935183e-03 -3.21478719e-03 0.00000000e+00
-7.07674629e-03 -3.25218884e-03 0.00000000e+00
-7.04394399e-03 -3.28941804e-03 0.00000000e+00
-7.01094584e-03 -3.32647376e-03 0.00000000e+00
-6.99720792e-03 -3.34748712e-03 0.00000000e+00
-6.97333333e-03 -3.52000000e-03 0.00000000e+00
-6.94666667e-03 -3.69000000e-03 0.00000000e+00
-6.78629760e-03 -3.89932424e-03 0.00000000e+00
-6.68807866e-03 -3.92821216e-03 0.00000000e+00
-6.67635861e-03 -4.08594554e-03 0.00000000e+00
-6.77154354e-03 -4.05787819e-03 0.00000000e+00
-6.88000000e-03 -4.15333333e-03 0.00000000e+00
-6.86000000e-03 -4.28666667e-03 0.00000000e+00
-6.88500000e-03 -4.45500000e-03 0.00000000e+00
-6.81500000e-03 -4.62000000e-03 0.00000000e+00
-6.65363836e-03 -4.71406683e-03 0.00000000e+00
-6.56181367e-03 -4.74308349e-03 0.00000000e+00
-6.46961086e-03 -4.87207051e-03 0.00000000e+00
6.46961086e-03 -4.87207051e-03 1.00000000e-03
6.56181367e-03 -4.74308349e-03 1.00000000e-03
6.65363836e-03 -4.71406683e-03 1.00000000e-03
6.81500000e-03 -4.62000000e-03 1.00000000e-03
6.88500000e-03 -4.45500000e-03 1.00000000e-03
6.86000000e-03 -4.28666667e-03 1.00000000e-03
6.88000000e-03 -4.15333333e-03 1.00000000e-03
6.77154354e-03 -4.05787819e-03 1.00000000e-03
6.67635861e-03 -4.08594554e-03 1.00000000e-03
6.68807866e-03 -3.92821216e-03 1.00000000e-03
6.78629760e-03 -3.89932424e-03 1.00000000e-03
6.94666667e-03 -3.69000000e-03 1.00000000e-03
6.97333333e-03 -3.52000000e-03 1.00000000e-03
6.99720792e-03 -3.34748712e-03 1.00000000e-03
7.01094584e-03 -3.32647376e-03 1.00000000e-03
7.04394399e-03 -3.28941804e-03 1.00000000e-03
7.07674629e-03 -3.25218884e-03 1.00000000e-03
7.10935183e-03 -3.21478719e-03 1.00000000e-03
7.14175969e-03 -3.17721413e-03 1.00000000e-03
7.17396898e-03 -3.13947071e-03 1.00000000e-03
7.20597881e-03 -3.10155798e-03 1.00000000e-03
-7.20597881e-03 -3.10155798e-03 1.00000000e-03
-7.17396898e-03 -3.13947071e-03 1.00000000e-03
-7.14175969e-03 -3.17721413e-03 1.00000000e-03
-7.10935183e-03 -3.21478719e-03 1.00000000e-03
-7.07674629e-03 -3.25218884e-03 1.00000000e-03
-7.04394399e-03 -3.28941804e-03 1.00000000e-03
-7.01094584e-03 -3.32647376e-03 1.00000000e-03
-6.99720792e-03 -3.34748712e-03 1.00000000e-03
-6.97333333e-03 -3.52000000e-03 1.00000000e-03
-6.94666667e-03 -3.69000000e-03 1.00000000e-03
-6.78629760e-03 -3.89932424e-03 1.00000000e-03
-6.68807866e-03 -3.92821216e-03 1.00000000e-03
-6.67635861e-03 -4.08594554e-03 1.00000000e-03
-6.77154354e-03 -4.05787819e-03 1.00000000e-03
-6.88000000e-03 -4.15333333e-03 1.00000000e-03
-6.86000000e-03 -4.28666667e-03 1.00000000e-03
-6.88500000e-03 -4.45500000e-03 1.00000000e-03
-6.81500000e-03 -4.62000000e-03 1.00000000e-03
-6.65363836e-03 -4.71406683e-03 1.00000000e-03
-6.56181367e-03 -4.74308349e-03 1.00000000e-03
-6.46961086e-03 -4.87207051e-03 1.00000000e-03
LINES 232 696
2 107 149
2 44 124
2 11 47
2 18 94
2 58 140
2 125 126
2 103 145
2 54 136
2 26 102
2 153 154
2 99 141
2 39 118
2 10 83
2 89 131
2 55 137
2 16 52
2 74 159
2 16 93
2 7 78
2 51 133
2 59 141
2 12 89
2 90 132
2 27 102
2 17 53
2 41 120
2 4 38
2 69 153
2 8 79
2 23 98
2 65 147
2 13 49
2 60 142
2 13 90
2 56 138
2 109 110
2 106 148
2 52 134
2 91 133
2 151 152
2 42 121
2 83 84
2 30 106
2 31 110
2 9 80
2 35 73
2 87 129
2 24 99
2 66 148
2 19 96
2 47 128
2 6 40
2 43 122
2 5 76
2 31 69
2 62 144
2 93 135
2 71 155
2 20 56
2 88 130
2 25 100
2 2 109
2 7 41
2 61 142
2 14 90
2 35 116
2 72 156
2 63 145
2 111 112
2 108 150
2 36 74
2 73 157
2 104 146
2 32 70
2 94 136
2 11 87
2 78 120
2 26 101
2 40 119
2 36 117
2 81 82
2 1 85
2 102 144
2 33 71
2 22 97
2 64 146
2 95 137
2 17 94
2 79 121
2 32 113
2 9 43
2 74 158
2 37 117
2 46 127
2 28 103
2 44 125
2 18 54
2 10 44
2 49 132
2 18 95
2 5 39
2 59 140
2 12 88
2 33 114
2 54 137
2 70 154
2 1 46
2 6 78
2 50 133
2 109 151
2 34 72
2 96 138
2 80 122
2 92 134
2 29 104
2 76 118
2 7 79
2 27 63
2 34 115
2 23 59
2 77 119
2 19 95
2 2 68
2 8 42
2 62 143
2 15 91
2 116 158
2 52 135
2 111 153
2 85 86
2 58 139
2 82 124
2 53 136
2 42 122
2 4 76
2 112 154
2 48 131
2 63 144
2 83 125
2 24 60
2 30 107
2 68 151
2 24 100
2 9 81
2 66 149
2 31 111
2 38 118
2 117 159
2 105 106
2 10 82
2 5 77
2 113 155
2 97 139
2 84 126
2 25 61
2 16 92
2 3 108
2 14 50
2 72 157
2 36 116
2 21 57
2 21 97
2 64 145
2 17 93
2 75 159
2 32 112
2 69 152
2 45 126
2 65 146
2 39 119
2 87 88
2 60 141
2 13 89
2 55 138
2 114 156
2 98 140
2 127 128
2 49 131
2 26 62
2 33 113
2 51 134
2 0 84
2 110 152
2 107 108
2 40 120
2 22 58
2 27 103
2 6 77
2 81 123
2 22 98
2 50 132
2 147 148
2 41 121
2 115 157
2 8 80
2 23 99
2 28 64
2 28 104
2 85 127
2 12 48
2 70 155
2 34 114
2 20 96
2 35 115
2 105 147
2 0 45
2 100 142
2 129 130
2 123 124
2 101 143
2 29 65
2 47 129
2 29 105
2 86 128
2 149 150
2 43 123
2 71 156
2 11 86
2 25 101
2 53 135
2 67 150
2 30 66
2 48 130
2 61 143
2 14 91
2 19 55
2 37 75
2 57 139
2 15 51
2 73 158
2 15 92
2 3 67
